<?xml version="1.0" encoding="UTF-8"?>
<svg version="1.1" xmlns="http://www.w3.org/2000/svg" width="1003" height="1003">
<path d="M0 0 C0.11450515 47.27965851 0.20257925 94.55930231 0.25532665 141.83907221 C0.26158 147.42396503 0.26805163 153.00885758 0.2746582 158.59375 C0.27596976 159.70557696 0.27728131 160.81740393 0.2786326 161.96292262 C0.3003747 179.95308361 0.33978967 197.94316452 0.38576398 215.93327804 C0.43256185 234.40000329 0.46030245 252.86668668 0.47044247 271.33346879 C0.47729471 282.72366753 0.49891785 294.11363988 0.53958233 305.50376891 C0.56606179 313.31997524 0.57398921 321.13606494 0.56750689 328.95231284 C0.5643121 333.45839532 0.56912501 337.96408286 0.59602737 342.47009468 C0.62052459 346.60364698 0.62148214 350.73654224 0.60449447 354.87012605 C0.60239784 356.35759263 0.60860066 357.84510177 0.62441591 359.33248575 C0.77303671 374.18565087 -2.85943854 386.75643011 -13 398 C-24.70686899 409.35682972 -37.99067005 413.32485338 -53.93359375 413.24050903 C-55.12057578 413.24221788 -56.30755781 413.24392673 -57.530509 413.24568737 C-60.8075486 413.24840272 -64.08442828 413.24218774 -67.361449 413.23213124 C-70.90190024 413.22346714 -74.44234448 413.22641899 -77.98280334 413.22793579 C-84.11104076 413.22898277 -90.23923548 413.22272572 -96.36746216 413.21146011 C-105.22776356 413.19518273 -114.08804439 413.18999482 -122.94835913 413.18748413 C-137.32479669 413.18311054 -151.7012115 413.16981055 -166.07763672 413.15087891 C-180.04020067 413.13251141 -194.00275843 413.11835916 -207.96533203 413.10986328 C-208.82647197 413.10933783 -209.6876119 413.10881239 -210.57484698 413.10827102 C-214.89507846 413.10566088 -219.21530998 413.10313348 -223.53554153 413.10064721 C-259.35704374 413.07992517 -295.1785201 413.04470879 -331 413 C-331.64431297 410.62753791 -332.28562923 408.25433115 -332.92529297 405.88061523 C-333.10605881 405.21621178 -333.28682465 404.55180832 -333.47306824 403.86727142 C-335.05427407 397.98412633 -336.20240811 392.08475344 -337.125 386.0625 C-337.28967773 384.99894287 -337.45435547 383.93538574 -337.62402344 382.83959961 C-344.99387386 333.39957829 -342.78046828 279.54464743 -318 235 C-317.42507813 233.9378125 -316.85015625 232.875625 -316.2578125 231.78125 C-304.53321494 210.81745344 -286.39097766 192.34332994 -268 177 C-267.08605469 176.20851563 -266.17210937 175.41703125 -265.23046875 174.6015625 C-257.85682824 168.23453052 -250.2242914 162.26815441 -242.45703125 156.390625 C-238.69132259 153.53839262 -234.9710217 150.63237053 -231.25830078 147.71166992 C-223.47792676 141.59923986 -215.56712814 135.74448073 -207.44287109 130.09814453 C-204.6616526 128.16324892 -201.88945718 126.2170018 -199.12963867 124.25170898 C-188.5113117 116.69225099 -177.73383363 109.39609289 -166.875 102.1875 C-165.14807386 101.03895706 -163.42118625 99.89035618 -161.69433594 98.74169922 C-142.93645917 86.27313459 -124.10663876 73.92932554 -105 62 C-104.20513184 61.5035498 -103.41026367 61.00709961 -102.59130859 60.49560547 C-5.58607456 0 -5.58607456 0 0 0 Z " fill="#3A81F5" transform="translate(753,452)"/>
<path d="M0 0 C0.0701676 18.48942205 0.1230261 36.97881697 0.15543652 55.46834469 C0.17088709 64.05389298 0.19194189 72.63935842 0.22631836 81.22485352 C0.25627625 88.71039991 0.27558816 96.19588628 0.28226548 103.68149096 C0.28616695 107.64287377 0.29529793 111.60408488 0.31719017 115.56541252 C0.33765647 119.29921335 0.34381348 123.03277285 0.33932304 126.76662445 C0.34053302 128.77953175 0.35662181 130.79241318 0.3732605 132.80525208 C0.341754 142.09216825 -0.475425 150.31106066 -7.05371094 157.33300781 C-11.15457297 160.84538688 -15.90608009 163.29596136 -20.625 165.875 C-22.96914172 167.19112287 -25.31161863 168.50987446 -27.65234375 169.83203125 C-28.25534805 170.17102951 -28.85835236 170.51002777 -29.47962952 170.85929871 C-36.13798271 174.61390122 -42.66591262 178.57648935 -49.1875 182.5625 C-50.3666039 183.28200526 -51.54572172 184.00148772 -52.72485352 184.72094727 C-55.03899946 186.13370393 -57.35222734 187.54795104 -59.66503906 188.96289062 C-62.84288224 190.90402704 -66.0256677 192.8367048 -69.2109375 194.765625 C-80.45031303 201.57481411 -91.6140188 208.48911597 -102.70263672 215.54101562 C-105.7855022 217.49884815 -108.87477041 219.4464501 -111.96411133 221.39404297 C-115.13726712 223.39512032 -118.3080856 225.39988095 -121.47851562 227.40527344 C-123.21386154 228.50280244 -124.94955889 229.59977592 -126.68554688 230.69628906 C-138.40008029 238.09951043 -150.02589949 245.61066348 -161.52587891 253.34277344 C-164.29643291 255.19855798 -167.07534754 257.04139263 -169.85546875 258.8828125 C-181.0224724 266.28505176 -192.09830089 273.78074418 -202.99658203 281.57324219 C-205.04187878 283.02982447 -207.09558989 284.47371023 -209.15234375 285.9140625 C-232.71691037 302.42374611 -255.86189652 319.61381123 -278 338 C-278.57685547 338.47775879 -279.15371094 338.95551758 -279.74804688 339.44775391 C-286.74771807 345.25876387 -293.54639784 351.249743 -300.21484375 357.4375 C-302.71105295 359.7341525 -305.2490421 361.96670399 -307.8125 364.1875 C-311.23461321 367.2164081 -314.26198074 370.40414226 -317.203125 373.8984375 C-318.44694611 375.35316741 -319.73165792 376.77354673 -321.046875 378.1640625 C-351.18033547 410.1140791 -365.89237576 455.66420168 -367 499 C-367.03867187 500.0216626 -367.03867187 500.0216626 -367.078125 501.06396484 C-367.91928622 524.72688141 -364.99034305 548.50184295 -359.58544922 571.50683594 C-358.68769033 575.32998595 -357.84735977 579.16540417 -357 583 C-357.66 583 -358.32 583 -359 583 C-360.12231445 581.51318359 -360.12231445 581.51318359 -361.36328125 579.3984375 C-362.06505493 578.21556152 -362.06505493 578.21556152 -362.78100586 577.00878906 C-363.53909546 575.70506348 -363.53909546 575.70506348 -364.3125 574.375 C-364.84302979 573.47491211 -365.37355957 572.57482422 -365.92016602 571.64746094 C-367.04814509 569.73305412 -368.17330802 567.8169857 -369.29589844 565.89941406 C-370.92409515 563.12914699 -372.5712544 560.37132124 -374.2265625 557.6171875 C-412.14588472 494.37404134 -434.68352799 425.57544826 -416.45703125 351.62890625 C-407.79497257 318.14759409 -392.68760844 286.86050862 -369.15234375 261.33984375 C-367.03283386 259.03569416 -364.98564658 256.68004566 -362.9375 254.3125 C-359.90744779 250.90145891 -356.7351156 247.88051847 -353.25390625 244.9375 C-351.02855197 243.02454381 -348.87184666 241.04807313 -346.72241211 239.05053711 C-340.6799443 233.43864439 -334.44216088 228.15201991 -328 223 C-326.89272448 222.10088159 -325.78597865 221.20111057 -324.6796875 220.30078125 C-315.10903657 212.54189638 -305.28271326 205.14513472 -295.39990234 197.79003906 C-293.19499033 196.14543938 -290.99621138 194.49316369 -288.80078125 192.8359375 C-271.50792898 179.78424569 -253.82964529 167.30593475 -236 155 C-235.43518921 154.60986725 -234.87037842 154.2197345 -234.28845215 153.81777954 C-223.33656378 146.25636976 -212.32997698 138.77674743 -201.30029297 131.3293457 C-199.43260009 130.06755389 -197.56573804 128.80453141 -195.69970703 127.5402832 C-186.14456634 121.06677156 -176.576149 114.65313828 -166.75341797 108.59165955 C-159.2065348 103.9222901 -151.86066976 98.95566411 -144.5 94 C-136.47209979 88.59511454 -128.43884824 83.22896096 -120.203125 78.14453125 C-111.61809084 72.83486419 -103.27609319 67.18278521 -94.92929077 61.50836182 C-77.67491491 49.78218618 -60.31541439 38.22389952 -42.87368774 26.77856445 C-31.4356025 19.27276554 -20.02030862 11.74985103 -8.84448242 3.85595703 C-7.71296753 3.06680908 -7.71296753 3.06680908 -6.55859375 2.26171875 C-5.61971313 1.59595825 -5.61971313 1.59595825 -4.66186523 0.91674805 C-3 0 -3 0 0 0 Z " fill="#3B81F5" transform="translate(673,140)"/>
<path d="M0 0 C0.07009354 19.19315429 0.12298987 38.38628259 0.15543652 57.57953835 C0.17090276 66.4913829 0.19198764 75.40314791 0.22631836 84.31494141 C0.25622814 92.08282537 0.27557677 99.85065172 0.28226548 107.61859167 C0.28617507 111.73134136 0.29535806 115.84392623 0.31719017 119.95662308 C0.3375803 123.82912343 0.34382873 127.70139134 0.33932304 131.57394028 C0.34014712 132.99370843 0.34609785 134.41348451 0.35761642 135.83320618 C0.37259823 137.77535347 0.36715312 139.71762599 0.36076355 141.65982056 C0.36352893 142.74569269 0.36629431 143.83156483 0.36914349 144.95034218 C-0.36966659 151.05397945 -3.41295865 155.10251389 -8 159 C-11.52093771 161.35243374 -15.15743146 163.48869375 -18.8125 165.625 C-20.48172259 166.61413227 -22.15094213 167.60326971 -23.8200531 168.59259033 C-26.24108818 170.02507689 -28.6661837 171.45062311 -31.09106445 172.87658691 C-37.0884309 176.40605126 -43.07557333 179.952866 -49.0625 183.5 C-50.08129242 184.10322083 -50.08129242 184.10322083 -51.1206665 184.71862793 C-62.95441186 191.72983832 -74.64263851 198.94789247 -86.27539062 206.28857422 C-89.78853423 208.49530689 -93.31978414 210.6718366 -96.85302734 212.84619141 C-117.33616211 225.45804408 -137.47347885 238.58540167 -157.5625 251.8125 C-158.97500534 252.74171265 -158.97500534 252.74171265 -160.41604614 253.68969727 C-172.0322307 261.33501804 -183.58016942 269.06416402 -195 277 C-195.93110596 277.64525635 -196.86221191 278.2905127 -197.8215332 278.95532227 C-235.44497804 305.08199525 -272.75311926 332.38258805 -306 364 C-306.5995752 364.56557617 -307.19915039 365.13115234 -307.81689453 365.71386719 C-346.0351723 401.97095696 -364.79485171 450.49974566 -366.18359375 502.83203125 C-366.62966275 530.43002875 -362.74181301 557.28377291 -356 584 C-359.16624412 581.05904465 -361.37950552 578.05333082 -363.6171875 574.36328125 C-364.64114624 572.67960449 -364.64114624 572.67960449 -365.68579102 570.96191406 C-366.41605005 569.74575642 -367.14577371 568.52927717 -367.875 567.3125 C-368.24760956 566.69451538 -368.62021912 566.07653076 -369.00411987 565.43981934 C-379.33822226 548.29726661 -389.44171277 530.95891304 -398.08789062 512.89355469 C-399.05720655 510.88123822 -400.05134497 508.8822776 -401.046875 506.8828125 C-426.51298226 455.1512402 -428.34296681 389.30162843 -410.71875 334.89453125 C-397.2796361 295.56769027 -373.2727733 260.59528187 -340.42578125 234.92578125 C-337.90564474 232.92509316 -335.55229259 230.8064161 -333.1875 228.625 C-327.68671627 223.62507256 -321.86391009 219.08133618 -315.98632812 214.54052734 C-313.8945743 212.91823548 -311.81374211 211.28266452 -309.734375 209.64453125 C-300.82414722 202.64076892 -291.78071537 195.87352562 -282.5625 189.28125 C-278.65768616 186.48537641 -274.79642121 183.63467467 -270.94262695 180.76904297 C-263.06190786 174.91165344 -255.08209487 169.24284154 -246.95385742 163.73413086 C-242.69997545 160.85087181 -238.47837942 157.93405421 -234.30078125 154.94140625 C-221.77430148 145.97214183 -208.8845973 137.53104076 -196.04806519 129.01525879 C-192.02837123 126.34857159 -188.01304945 123.67548258 -184.00149536 120.99656677 C-177.85967811 116.89540594 -171.70081123 112.82415527 -165.5 108.8125 C-163.76033951 107.68371266 -162.02075912 106.55480185 -160.28125 105.42578125 C-159.40210938 104.85553223 -158.52296875 104.2852832 -157.6171875 103.69775391 C-127.07720311 83.88664836 -96.64800487 63.90319873 -66.5 43.5 C-51.18576544 33.13629323 -35.81038169 22.86997665 -20.375 12.6875 C-18.91114868 11.72021973 -18.91114868 11.72021973 -17.41772461 10.73339844 C-14.68385531 8.92770181 -11.94784099 7.12531213 -9.2109375 5.32421875 C-8.39027802 4.78202194 -7.56961853 4.23982513 -6.72409058 3.68119812 C-5.60842209 2.94894768 -5.60842209 2.94894768 -4.47021484 2.2019043 C-3.82047699 1.77419235 -3.17073914 1.34648041 -2.50131226 0.9058075 C-1 0 -1 0 0 0 Z " fill="#3B81F5" transform="translate(753,264)"/>
</svg>
