<?xml version="1.0" encoding="UTF-8"?>
<svg version="1.1" xmlns="http://www.w3.org/2000/svg" width="2584" height="1003">
<path d="M0 0 C852.72 0 1705.44 0 2584 0 C2584 330.99 2584 661.98 2584 1003 C1731.28 1003 878.56 1003 0 1003 C0 672.01 0 341.02 0 0 Z " fill="#FEFEFE" transform="translate(0,0)"/>
<path d="M0 0 C0.09158249 46.93153125 0.16205243 93.86305304 0.20426132 140.79465605 C0.20926406 146.33706251 0.21444136 151.8794688 0.21972656 157.421875 C0.2207758 158.52525474 0.22182505 159.62863448 0.22290608 160.76544997 C0.24030488 178.62438317 0.27183971 196.48326479 0.30861118 214.34216741 C0.34603517 232.67102327 0.36823894 250.99985215 0.37635398 269.32874465 C0.38183871 280.6359985 0.39915343 291.94310655 0.43166587 303.25031552 C0.45283172 311.0071619 0.45919534 318.76393307 0.45400551 326.52080622 C0.45144697 330.99418142 0.45533169 335.46730208 0.4768219 339.94063187 C0.49638031 344.04193167 0.49721026 348.14280734 0.48359558 352.24412724 C0.48191453 353.72213228 0.4869099 355.2001645 0.49953273 356.67811659 C0.63207281 373.16505674 -4.09075766 386.57491394 -15.42578125 398.640625 C-26.55091707 408.83725935 -40.71196789 412.64012079 -55.49690247 412.48101807 C-56.68407307 412.48443577 -57.87124367 412.48785347 -59.09438914 412.49137473 C-62.34891511 412.49677558 -65.60278543 412.48446268 -68.85723412 412.46426249 C-72.38191753 412.44684402 -75.90657528 412.45284426 -79.43128967 412.45587158 C-85.52457059 412.45795993 -91.61767899 412.44550531 -97.71091652 412.42292023 C-106.52047603 412.39028829 -115.32995288 412.37998182 -124.13956627 412.37496826 C-138.43562065 412.36623308 -152.73158327 412.33966596 -167.02758789 412.30175781 C-180.90746606 412.26499157 -194.78731923 412.23670244 -208.66723633 412.21972656 C-209.95249531 412.21815022 -209.95249531 412.21815022 -211.26371912 412.21654204 C-215.56261324 412.21132155 -219.86150753 412.2062668 -224.16040194 412.20129442 C-259.77366668 412.15988777 -295.38682484 412.08948802 -331 412 C-331.63837068 409.3367877 -332.27364085 406.67289607 -332.90722656 404.00854492 C-333.08557037 403.26590141 -333.26391418 402.5232579 -333.44766235 401.75811005 C-335.28665672 394.00405275 -336.65071919 386.20395546 -337.75 378.3125 C-337.85706268 377.54407776 -337.96412537 376.77565552 -338.07443237 375.98394775 C-342.0789379 346.2330649 -342.52218089 314.40367588 -336 285 C-335.77505859 283.9795459 -335.55011719 282.9590918 -335.31835938 281.90771484 C-332.5734583 269.84867631 -329.14935065 258.25643077 -324 247 C-323.70899414 246.36046387 -323.41798828 245.72092773 -323.11816406 245.06201172 C-313.67617097 224.56439391 -300.31833797 208.19777971 -284.5 192.25 C-283.20098755 190.93684814 -283.20098755 190.93684814 -281.87573242 189.59716797 C-276.64421654 184.3917432 -271.23134025 179.58511441 -265.45825195 174.98681641 C-263.12732112 173.10290389 -260.89926719 171.14653116 -258.6875 169.125 C-252.70947763 163.76684287 -246.35721337 158.89425031 -240 154 C-239.18853516 153.37464355 -238.37707031 152.74928711 -237.54101562 152.10498047 C-227.47778367 144.36244537 -217.38242523 136.69159262 -206.98908997 129.39674377 C-204.89318881 127.92499692 -202.79942934 126.45023087 -200.70556641 124.97558594 C-189.2709524 116.93554455 -177.75505421 109.02459168 -166.16333008 101.21289062 C-163.43278997 99.37182426 -160.70558771 97.52588577 -157.97851562 95.6796875 C-147.16946953 88.37871605 -136.25567235 81.2784084 -125.19078064 74.37155151 C-121.32522137 71.95149468 -117.47640477 69.50499288 -113.625 67.0625 C-85.38741819 49.21628637 -56.81295393 31.90041967 -28 15 C-27.39988098 14.64796509 -26.79976196 14.29593018 -26.18145752 13.93322754 C-22.51986747 11.78665784 -18.85448641 9.64676739 -15.18414307 7.51519775 C-13.47011528 6.51895691 -11.75822882 5.51903482 -10.04638672 4.51904297 C-8.5055542 3.62789795 -8.5055542 3.62789795 -6.93359375 2.71875 C-5.5731897 1.92887695 -5.5731897 1.92887695 -4.18530273 1.12304688 C-2 0 -2 0 0 0 Z " fill="#3B82F6" transform="translate(753,453)"/>
<path d="M0 0 C0.66 0 1.32 0 2 0 C2.07011905 18.78473157 2.12300237 37.56943653 2.15543652 56.35427189 C2.17089735 65.07663921 2.19197189 73.79892515 2.22631836 82.52124023 C2.25624471 90.12469473 2.2755807 97.72809028 2.28226548 105.33160204 C2.28617227 109.35663586 2.29533737 113.38150107 2.31719017 117.40648079 C2.33760651 121.19772875 2.34382346 124.98873921 2.33932304 128.78003693 C2.34014595 130.16874674 2.34608103 131.55746479 2.35761642 132.94612694 C2.42564484 141.56071273 1.92720047 147.16568408 -2.546875 154.5546875 C-6.27767405 158.27360503 -10.67388463 160.56482575 -15.25 163.125 C-17.41618226 164.36315389 -19.58150068 165.60281992 -21.74609375 166.84375 C-22.32082932 167.17170563 -22.89556488 167.49966125 -23.48771667 167.83755493 C-30.8100219 172.01949903 -38.06229456 176.31963845 -45.3125 180.625 C-46.00309509 181.03475067 -46.69369019 181.44450134 -47.4052124 181.8666687 C-56.78470161 187.43605826 -66.07598858 193.11757121 -75.265625 198.99609375 C-81.0040551 202.65873712 -86.81914784 206.19564829 -92.625 209.75 C-117.20752503 224.84967825 -141.22714111 240.7365299 -165.19828796 256.78236389 C-169.68334136 259.78429382 -174.1715482 262.78134168 -178.6652832 265.77026367 C-179.60043762 266.39250824 -180.53559204 267.01475281 -181.49908447 267.65585327 C-183.27397346 268.83645823 -185.04936615 270.01630644 -186.82537842 271.19522095 C-195.00026985 276.63423844 -203.02308044 282.27569276 -211 288 C-211.71720215 288.51385254 -212.4344043 289.02770508 -213.17333984 289.55712891 C-218.46361616 293.35123619 -223.73709712 297.16802463 -229 301 C-229.79760742 301.58072266 -230.59521484 302.16144531 -231.41699219 302.75976562 C-253.81100338 319.0933808 -275.52618944 336.29826578 -296 355 C-296.96808594 355.87527344 -297.93617188 356.75054688 -298.93359375 357.65234375 C-319.14938688 375.96886182 -335.68001267 396.03462362 -347 421 C-347.33241699 421.71655762 -347.66483398 422.43311523 -348.00732422 423.17138672 C-352.90217909 433.87727082 -356.19776284 444.80478875 -358.875 456.25 C-359.16125244 457.4683252 -359.44750488 458.68665039 -359.74243164 459.94189453 C-363.16189766 475.24983771 -364.3321828 489.96083598 -364.26074219 505.58984375 C-364.25003931 508.36480688 -364.26069491 511.13911905 -364.2734375 513.9140625 C-364.28767798 529.96184156 -362.82388627 545.41208309 -359.5 561.125 C-359.28730469 562.16914062 -359.07460938 563.21328125 -358.85546875 564.2890625 C-357.70129522 569.8970713 -356.4354846 575.45743448 -355 581 C-357.7690925 578.49874813 -359.54679208 575.70826264 -361.484375 572.53125 C-362.16467773 571.4167749 -362.84498047 570.3022998 -363.54589844 569.15405273 C-364.28128438 567.93644886 -365.01596636 566.71841959 -365.75 565.5 C-366.12515747 564.87908478 -366.50031494 564.25816956 -366.88684082 563.61843872 C-386.02626194 531.89920913 -404.97300122 499.49055194 -413 463 C-413.26554687 461.82050781 -413.53109375 460.64101563 -413.8046875 459.42578125 C-420.46757621 427.10733651 -422.25765244 392.32343354 -415 360 C-414.79632813 359.03126953 -414.59265625 358.06253906 -414.3828125 357.06445312 C-405.57198446 315.48495908 -385.20973412 280.20265704 -355.5 250.25 C-354.2008667 248.93672729 -354.2008667 248.93672729 -352.87548828 247.59692383 C-347.65546062 242.40293244 -342.24936818 237.61548351 -336.50439453 233.00976562 C-333.32747677 230.46030306 -330.2583198 227.80005895 -327.1875 225.125 C-320.29827703 219.18402605 -313.21073491 213.54409474 -306 208 C-304.8255835 207.09459473 -304.8255835 207.09459473 -303.62744141 206.17089844 C-292.29380327 197.44401882 -280.84684127 188.90382349 -269.21044922 180.58544922 C-266.94783852 178.96258707 -264.69354851 177.32876026 -262.44140625 175.69140625 C-254.14714858 169.6638087 -245.80305007 163.72666297 -237.32910156 157.95410156 C-234.48223568 156.01306312 -231.63895039 154.06696958 -228.79907227 152.11572266 C-217.77446127 144.5453637 -206.68765417 137.07283864 -195.55615234 129.66064453 C-192.86830921 127.87054394 -190.18213203 126.07796356 -187.49609375 124.28515625 C-177.29475895 117.48294512 -167.04888351 110.756369 -156.7388916 104.12005615 C-148.46437405 98.79026775 -140.23244171 93.3944505 -132 88 C-131.25969543 87.51490967 -130.51939087 87.02981934 -129.75665283 86.5300293 C-107.69668104 72.07018377 -85.7114419 57.50844855 -63.87054443 42.71954346 C-47.51862903 31.65008147 -31.05441515 20.75664852 -14.54492188 9.92382812 C-13.6423465 9.3311615 -12.73977112 8.73849487 -11.80984497 8.12786865 C-10.11536589 7.01556643 -8.42014911 5.90438698 -6.72409058 4.79449463 C-5.60842209 4.06235748 -5.60842209 4.06235748 -4.47021484 3.31542969 C-3.82047699 2.88993835 -3.17073914 2.46444702 -2.50131226 2.02606201 C-1.01970946 1.0813102 -1.01970946 1.0813102 0 0 Z " fill="#3B82F6" transform="translate(751,265)"/>
<path d="M0 0 C0.09352238 18.76744076 0.1640179 37.5348341 0.20724869 56.30245972 C0.22785678 65.01698607 0.25594376 73.73136748 0.30175781 82.44580078 C0.34167937 90.04303938 0.36744556 97.64017297 0.37635398 105.23751354 C0.38155976 109.25872487 0.39375836 113.27963585 0.42292023 117.30075073 C0.45017363 121.0895882 0.45842515 124.87800306 0.45243073 128.66692924 C0.45352655 130.05361672 0.46142154 131.44031907 0.4768219 132.82692146 C0.56602467 141.27657577 0.49986357 148.17019226 -5.54563522 154.65896606 C-10.39193929 159.25356177 -16.41632254 162.35747817 -22.1875 165.625 C-24.34693434 166.86617864 -26.50578024 168.10838158 -28.6640625 169.3515625 C-29.7355957 169.96676758 -30.80712891 170.58197266 -31.91113281 171.21582031 C-36.3230426 173.76421082 -40.6975534 176.3721737 -45.0625 179 C-45.8661499 179.48380127 -46.6697998 179.96760254 -47.49780273 180.46606445 C-49.99992555 181.97508819 -52.50019134 183.48714612 -55 185 C-56.34263916 185.81138428 -56.34263916 185.81138428 -57.71240234 186.63916016 C-72.56290298 195.61991817 -87.30782573 204.76277694 -102 214 C-102.82419434 214.51771973 -103.64838867 215.03543945 -104.49755859 215.56884766 C-122.75044846 227.04068877 -141.00095366 238.53420788 -158.88183594 250.58007812 C-161.42796878 252.28689101 -163.98331297 253.97949632 -166.5390625 255.671875 C-178.71387104 263.74133889 -190.77777898 271.94180279 -202.70214844 280.37695312 C-204.91447937 281.93959401 -207.13201641 283.49450488 -209.3515625 285.046875 C-225.87425701 296.62019094 -242.0424657 308.66088223 -258 321 C-258.61713867 321.4753418 -259.23427734 321.95068359 -259.87011719 322.44042969 C-267.0029068 327.9411077 -273.97589221 333.58466339 -280.76831055 339.50219727 C-283.29181302 341.69730671 -285.82486998 343.86007834 -288.43847656 345.94824219 C-295.86905058 351.88681897 -302.67147776 358.2689091 -309.375 365 C-309.92214661 365.5483551 -310.46929321 366.09671021 -311.03302002 366.66168213 C-349.24417259 405.10151875 -366.35631847 454.13118922 -366.24536133 507.87167358 C-366.12625989 528.52931225 -364.22138726 548.14364919 -359.6015625 568.31152344 C-358.6585715 572.52589716 -357.8249533 576.76116874 -357 581 C-360.09780068 577.30095858 -362.67706932 573.43038795 -365.125 569.28515625 C-365.70062935 568.31949989 -365.70062935 568.31949989 -366.28788757 567.33433533 C-367.52993416 565.24645685 -368.76552582 563.15486349 -370 561.0625 C-370.42318512 560.34747314 -370.84637024 559.63244629 -371.28237915 558.89575195 C-381.50392614 541.61428995 -391.33921306 524.12316687 -400 506 C-400.33483398 505.3105127 -400.66966797 504.62102539 -401.01464844 503.91064453 C-410.27233984 484.71288728 -414.78993474 464.98514217 -418 444 C-418.2173171 442.63148964 -418.43475036 441.26299771 -418.65234375 439.89453125 C-420.63544296 426.85239701 -421.26743665 413.80104312 -421.3125 400.625 C-421.31511841 399.8838797 -421.31773682 399.1427594 -421.32043457 398.37918091 C-421.32505026 386.09864905 -420.26822045 374.42289007 -417.546875 362.41357422 C-417.03574837 360.15777162 -416.5736911 357.89780835 -416.125 355.62890625 C-409.53468764 323.67338031 -395.08779517 294.48252167 -375 269 C-374.21625 267.99066406 -373.4325 266.98132813 -372.625 265.94140625 C-365.57403943 257.06475053 -357.63435164 249.09182457 -349.015625 241.734375 C-346.69885379 239.74087419 -344.44580016 237.68445612 -342.1875 235.625 C-337.45668843 231.36080869 -332.58089181 227.31153518 -327.62353516 223.31445312 C-325.79870879 221.8370298 -323.98306697 220.34873231 -322.16796875 218.859375 C-314.81145661 212.83221457 -307.40729379 206.91153554 -299.74072266 201.27978516 C-297.71292658 199.78894266 -295.69049216 198.29095616 -293.66796875 196.79296875 C-284.30453022 189.86635055 -274.89670986 183.00374934 -265.44140625 176.203125 C-262.52209464 174.10249684 -259.61393943 171.98780822 -256.71484375 169.859375 C-247.17874301 162.87816447 -237.46280196 156.22187097 -227.58544922 149.73120117 C-222.92596783 146.66091189 -218.33502126 143.54421312 -213.84765625 140.2265625 C-206.38890147 134.75006842 -198.6191743 129.74697182 -190.875 124.6875 C-189.38265498 123.70922463 -187.89046678 122.73070998 -186.3984375 121.75195312 C-178.33088882 116.46391059 -170.24190095 111.209698 -162.14006042 105.97438049 C-155.30297254 101.55428296 -148.49150495 97.09580771 -141.6875 92.625 C-140.69962997 91.9760376 -140.69962997 91.9760376 -139.69180298 91.31396484 C-136.04794689 88.92002275 -132.40465051 86.52523121 -128.76171875 84.12988281 C-125.48667154 81.97667216 -122.21051264 79.82516576 -118.93359375 77.67480469 C-98.51978562 64.27784128 -78.16193223 50.80651561 -57.9375 37.125 C-45.08604139 28.43346049 -32.21877705 19.76818726 -19.26785278 11.22528076 C-17.7260275 10.20784285 -16.18521818 9.18886351 -14.64547729 8.16827393 C-12.54667366 6.77802011 -10.44398436 5.39387725 -8.33984375 4.01171875 C-7.72125488 3.60079483 -7.10266602 3.18987091 -6.46533203 2.76649475 C-2.22950713 0 -2.22950713 0 0 0 Z " fill="#3B82F6" transform="translate(672,141)"/>
<path d="M0 0 C14.01400779 -0.0940524 28.0279656 -0.16400679 42.04222584 -0.20724869 C48.55145621 -0.22801534 55.06047273 -0.25613107 61.56958008 -0.30175781 C67.86551161 -0.34560796 74.16123903 -0.36921895 80.45731163 -0.37950897 C82.84476618 -0.38683065 85.23221111 -0.40112531 87.61957741 -0.42292023 C118.13508909 -0.69011641 147.9265042 5.38717723 170.45703125 27.41308594 C181.63718569 38.9116625 188.54778111 52.64209342 193 68 C193.32097656 69.05767578 193.32097656 69.05767578 193.6484375 70.13671875 C201.09471273 96.73826721 195.98189819 129.09023319 188 155 C187.78504883 155.71317383 187.57009766 156.42634766 187.34863281 157.16113281 C176.74178689 191.70869224 153.71339057 220.60611856 122 238 C96.43809408 251.23307255 68.55805558 254.65766622 40.12890625 254.390625 C37.74039694 254.38313904 35.35188137 254.3774573 32.96336365 254.37347412 C26.76073412 254.35840289 20.5584959 254.31928685 14.35601807 254.2746582 C7.99325856 254.2332997 1.6304341 254.21537758 -4.73242188 254.1953125 C-17.15511724 254.15276965 -29.57752574 254.08475077 -42 254 C-41.13822057 248.82548755 -40.27621795 243.65101231 -39.4140625 238.4765625 C-39.28056019 237.67530567 -39.14705788 236.87404884 -39.00951004 236.04851151 C-37.18718477 225.11228037 -35.36141489 214.17663154 -33.53167725 203.24163818 C-32.56359621 197.45603026 -31.59673974 191.67021784 -30.63012314 185.88436508 C-29.92972734 181.69246024 -29.22869718 177.50066328 -28.52636719 173.30908203 C-27.82416422 169.11804303 -27.12367862 164.92671989 -26.42424393 160.73521805 C-26.16577984 159.1880177 -25.90676515 157.64090918 -25.64707565 156.09391403 C-24.05334399 146.59746756 -22.5462679 137.09061242 -21.09521484 127.57128906 C-19.00302601 113.86793651 -16.74191662 100.1951222 -14.453125 86.5234375 C-14.03271365 84.0047135 -13.61244885 81.48596504 -13.19232178 78.9671936 C-12.21264366 73.09588926 -11.23152714 67.22482683 -10.24965453 61.35388911 C-9.12854487 54.6498869 -8.00936264 47.94556333 -6.89031076 41.24121737 C-4.59562553 27.49379626 -2.29862225 13.74676333 0 0 Z " fill="#3B82F6" transform="translate(971,349)"/>
<path d="M0 0 C23.43 0 46.86 0 71 0 C79.86373486 47.86416827 79.86373486 47.86416827 83.5 69.5 C86.22393123 85.70405816 89.15267644 101.86518286 92.14535522 118.02163696 C95.01384386 133.51535255 97.76024325 149.02423714 100.39233398 164.55967712 C101.86439866 173.24660557 103.41494135 181.91658204 105.0078125 190.58203125 C106.38877539 198.09609402 107.72394593 205.61835496 109.06347656 213.13989258 C110.06125246 218.7421652 111.06068132 224.34410462 112.07035828 229.94424438 C112.42446602 231.90853562 112.77779064 233.87296798 113.13110352 235.83740234 C113.5781502 238.3223476 114.02651071 240.80705694 114.47631836 243.29150391 C114.77614624 244.96092041 114.77614624 244.96092041 115.08203125 246.6640625 C115.25968018 247.64842285 115.4373291 248.6327832 115.62036133 249.64697266 C116 252 116 252 116 254 C96.86 254 77.72 254 58 254 C55.03 235.19 52.06 216.38 49 197 C18.64 197 -11.72 197 -43 197 C-51.0926692 213.51378764 -51.0926692 213.51378764 -59.18481445 230.02783203 C-60.2026178 232.10450146 -61.22043887 234.1811622 -62.23828125 236.2578125 C-62.76272827 237.32829834 -63.28717529 238.39878418 -63.82751465 239.50170898 C-64.33472046 240.53642334 -64.84192627 241.5711377 -65.36450195 242.63720703 C-65.80196243 243.52989288 -66.23942291 244.42257874 -66.69013977 245.34231567 C-68.11527825 248.23389763 -69.55831585 251.11663171 -71 254 C-90.14 254 -109.28 254 -129 254 C-123.67545426 242.75929232 -118.36704695 231.62321469 -112.62722778 220.60626221 C-110.77575212 217.05232472 -108.93509878 213.49278574 -107.09375 209.93359375 C-106.73487198 209.24044067 -106.37599396 208.5472876 -106.00624084 207.83312988 C-103.13976018 202.28930967 -100.33341095 196.71722269 -97.5625 191.125 C-94.58450655 185.11914387 -91.52431196 179.16774698 -88.375 173.25 C-83.76153713 164.57650283 -79.37607855 155.79470354 -75 147 C-70.32051063 137.59561949 -65.59981909 128.22622329 -60.65625 118.95703125 C-57.15397755 112.36245135 -53.82397742 105.68590199 -50.5 99 C-45.535067 89.0188374 -40.44641897 79.11669715 -35.21044922 69.27539062 C-29.09285467 57.77559612 -23.06255899 46.24386335 -17.27832031 34.57275391 C-14.72458966 29.43310273 -12.15320779 24.30223968 -9.58532715 19.16964722 C-8.04856189 16.09772828 -6.51259844 13.02540868 -4.9765625 9.953125 C-2.48828125 4.9765625 -2.48828125 4.9765625 0 0 Z " fill="#3B82F6" transform="translate(1737,349)"/>
<path d="M0 0 C1.24132187 0.00222061 2.48264374 0.00444122 3.76158142 0.00672913 C4.44447739 0.0065831 5.12737335 0.00643707 5.83096313 0.00628662 C8.09815092 0.00698575 10.36525752 0.01477811 12.63243103 0.02259827 C14.20041865 0.02446245 15.76840685 0.02588635 17.33639526 0.02688599 C21.47103981 0.03071117 25.60564944 0.04054146 29.74028015 0.05158997 C33.95627876 0.06180407 38.172283 0.0663836 42.38829041 0.07142639 C50.66630125 0.08216373 58.94428368 0.09924015 67.22227478 0.12025452 C68.74575937 5.92539248 69.92331252 11.71184993 70.92149353 17.62806702 C71.15502785 18.98751183 71.15502785 18.98751183 71.39328003 20.37442017 C71.72729942 22.31914725 72.06009432 24.26408498 72.39176941 26.20921326 C73.27712123 31.39828042 74.17277593 36.58556041 75.06993103 41.77259827 C75.25114502 42.82044998 75.43235901 43.8683017 75.61906433 44.94790649 C77.29108416 54.58121006 79.05502988 64.19620841 80.84727478 73.80775452 C83.4045864 87.53562555 85.82398208 101.28214041 88.16197205 115.04896545 C89.79130143 124.63986635 91.48610205 134.21643637 93.24571228 143.78431702 C94.12330578 148.55878025 94.97435882 153.3376885 95.82188416 158.11756897 C97.64621669 168.40519831 99.50555453 178.68551602 101.40196228 188.96009827 C101.59665604 190.01582535 101.79134979 191.07155243 101.99194336 192.15927124 C102.96658556 197.44276349 103.94354148 202.72581126 104.92417908 208.00819397 C106.85765985 218.45486623 108.73095198 228.90993529 110.49961853 239.38587952 C110.67328445 240.40333252 110.84695038 241.42078552 111.02587891 242.46907043 C111.18342148 243.41389282 111.34096405 244.35871521 111.50328064 245.33216858 C111.71228249 246.57743317 111.71228249 246.57743317 111.92550659 247.84785461 C112.22227478 250.12025452 112.22227478 250.12025452 112.22227478 254.12025452 C93.08227478 254.12025452 73.94227478 254.12025452 54.22227478 254.12025452 C53.45914978 248.90212952 52.69602478 243.68400452 51.90977478 238.30775452 C49.58892401 222.43172962 49.58892401 222.43172962 47.0355072 206.59169006 C46.44336478 202.99321929 46.22227478 199.80431406 46.22227478 196.12025452 C15.53227478 196.12025452 -15.15772522 196.12025452 -46.77772522 196.12025452 C-47.76772522 199.09025452 -47.76772522 199.09025452 -48.77772522 202.12025452 C-49.62533048 203.95914103 -50.51122817 205.78075077 -51.43006897 207.58509827 C-51.95431458 208.62206848 -52.47856018 209.6590387 -53.01869202 210.72743225 C-53.57854797 211.8264386 -54.13840393 212.92544495 -54.71522522 214.05775452 C-59.72820625 223.97619014 -64.61389995 233.94320595 -69.3497467 243.9969635 C-69.7732843 244.89229797 -70.1968219 245.78763245 -70.63319397 246.71009827 C-71.00081848 247.49247864 -71.36844299 248.27485901 -71.74720764 249.08094788 C-72.77772522 251.12025452 -72.77772522 251.12025452 -74.77772522 254.12025452 C-77.18217468 254.48101807 -77.18217468 254.48101807 -80.23719788 254.46083069 C-81.37822968 254.4606041 -82.51926147 254.4603775 -83.69487 254.46014404 C-85.54959427 254.43691826 -85.54959427 254.43691826 -87.44178772 254.41322327 C-88.70413239 254.40897842 -89.96647705 254.40473358 -91.26707458 254.40036011 C-94.62433873 254.38638589 -97.98099454 254.35942754 -101.33808899 254.32624817 C-104.7632267 254.29556804 -108.18842723 254.28185922 -111.61366272 254.26673889 C-118.33518572 254.23360093 -125.05642033 254.18334991 -131.77772522 254.12025452 C-130.41801179 249.73542623 -128.71096712 245.74101224 -126.65272522 241.63978577 C-126.19843643 240.7313517 -126.19843643 240.7313517 -125.73497009 239.80456543 C-124.75341338 237.84515828 -123.76580689 235.8888783 -122.77772522 233.93275452 C-122.0915495 232.56726525 -121.40551541 231.2017048 -120.71961975 229.83607483 C-116.72832034 221.9048418 -112.66220289 214.01806615 -108.48670959 206.18202209 C-104.96774215 199.55207293 -101.61889691 192.84124092 -98.27772522 186.12025452 C-94.58865676 178.69950019 -90.86510172 171.30752295 -86.96522522 163.99525452 C-82.4102035 155.44887597 -78.09162509 146.78987636 -73.77772522 138.12025452 C-69.09822178 128.71588111 -64.37754449 119.34647814 -59.43397522 110.07728577 C-55.93170277 103.48270587 -52.60170264 96.80615651 -49.27772522 90.12025452 C-44.31279222 80.13909192 -39.22414419 70.23695167 -33.98817444 60.39564514 C-27.82304494 48.80649489 -21.74635845 37.18450202 -15.91835022 25.42201233 C-13.56483657 20.67267015 -11.20350002 15.92724532 -8.84022522 11.18275452 C-8.35497375 10.20395325 -7.86972229 9.22515198 -7.36976624 8.21669006 C-6.91786926 7.3095929 -6.46597229 6.40249573 -6.00038147 5.46791077 C-5.59569641 4.65330383 -5.19101135 3.8386969 -4.77406311 2.99940491 C-3.2585556 0.14107084 -3.2585556 0.14107084 0 0 Z " fill="#3B82F6" transform="translate(2173.7777252197266,348.87974548339844)"/>
<path d="M0 0 C11.49639409 10.74253218 18.92878485 25.57120701 19.53515625 41.375 C19.61813695 46.86633052 19.39410678 51.9669661 18.3125 57.375 C1.1525 57.375 -16.0075 57.375 -33.6875 57.375 C-34.3475 53.085 -35.0075 48.795 -35.6875 44.375 C-40.92341228 34.95035789 -46.53749556 30.75304835 -56.6875 27.375 C-70.63894919 23.55644593 -87.7512205 25.74832716 -100.5 32.0625 C-108.24994132 36.56932013 -113.79551973 43.01106637 -116.375 51.6875 C-117.1807339 58.61681155 -117.49615002 63.64435564 -113.2734375 69.53515625 C-102.59080513 81.92806227 -83.87410619 84.84760442 -68.6875 88.375 C-42.23859399 94.51829186 -15.8876127 103.10538139 -0.6875 127.375 C6.80122592 142.31096305 6.30645283 161.08852758 1.5 176.83984375 C1.108125 178.00644531 0.71625 179.17304687 0.3125 180.375 C-0.038125 181.42816406 -0.38875 182.48132813 -0.75 183.56640625 C-8.74688547 204.8636672 -26.25741768 220.62860708 -46.40283203 230.23022461 C-55.81265276 234.49947355 -65.64604449 237.05622945 -75.6875 239.375 C-76.86675049 239.65102051 -76.86675049 239.65102051 -78.06982422 239.93261719 C-106.50445743 246.45048337 -143.50151654 244.0212551 -168.69140625 228.52734375 C-183.93716266 217.8616755 -193.19631797 204.87931772 -197.31640625 186.58203125 C-197.82916718 182.15069731 -197.83206226 177.76943458 -197.8125 173.3125 C-197.81636719 172.42755859 -197.82023437 171.54261719 -197.82421875 170.63085938 C-197.82292969 169.77169922 -197.82164063 168.91253906 -197.8203125 168.02734375 C-197.81918457 167.25382568 -197.81805664 166.48030762 -197.81689453 165.68334961 C-197.6875 163.375 -197.6875 163.375 -196.6875 158.375 C-179.5275 158.375 -162.3675 158.375 -144.6875 158.375 C-143.6975 165.8 -143.6975 165.8 -142.6875 173.375 C-139.00356643 182.74271678 -134.07948789 188.33934496 -124.87939453 192.49902344 C-108.65734215 198.98206241 -86.7520791 196.97143145 -70.9609375 190.20703125 C-68.73685205 189.05779646 -66.7291097 187.82061184 -64.6875 186.375 C-64.05457031 185.93414063 -63.42164063 185.49328125 -62.76953125 185.0390625 C-57.10483292 180.66673671 -52.99575894 174.47884606 -51.6875 167.375 C-50.77093625 158.56927873 -50.77093625 158.56927873 -53.5625 150.4375 C-63.84220242 139.00624622 -82.03836101 135.76580612 -96.30859375 132.140625 C-97.0675444 131.9477742 -97.82649506 131.7549234 -98.60844421 131.55622864 C-102.39681447 130.59872518 -106.18869077 129.65979656 -109.98803711 128.74682617 C-132.53249241 123.24446783 -156.20085009 113.94103535 -168.98046875 93.28515625 C-169.27566406 92.67542969 -169.57085938 92.06570313 -169.875 91.4375 C-170.17792969 90.83035156 -170.48085937 90.22320312 -170.79296875 89.59765625 C-176.92008726 74.37350589 -175.07720345 55.23933838 -168.84179688 40.35644531 C-164.93270565 31.43857159 -160.31946158 23.56757704 -153.6875 16.375 C-152.88828125 15.48425781 -152.0890625 14.59351563 -151.265625 13.67578125 C-115.13173065 -24.64966586 -41.70065515 -34.2232963 0 0 Z " fill="#3C82F6" transform="translate(1599.6875,364.625)"/>
<path d="M0 0 C56.43 0 112.86 0 171 0 C169.87692308 11.23076923 169.87692308 11.23076923 169.0625 15.875 C168.80339844 17.38320313 168.80339844 17.38320313 168.5390625 18.921875 C168 22 168 22 167.4609375 25.078125 C167.20183594 26.58632813 167.20183594 26.58632813 166.9375 28.125 C166.70353516 29.45917969 166.70353516 29.45917969 166.46484375 30.8203125 C165.82543227 35.19410194 165.43983436 39.60165635 165 44 C125.73 44 86.46 44 46 44 C45.505 48.95 45.505 48.95 45 54 C42.36 70.83 39.72 87.66 37 105 C72.64 105 108.28 105 145 105 C143.26477744 119.74939179 140.70422817 134.39716789 138 149 C102.03 149 66.06 149 29 149 C28.01 155.93 27.02 162.86 26 170 C25.1013066 175.74537822 24.2004425 181.4883235 23.26513672 187.22753906 C22.86480988 189.68762012 22.46941201 192.14846458 22.07421875 194.609375 C21.81799698 196.19015098 21.56149801 197.77088206 21.3046875 199.3515625 C21.12968216 200.44351425 21.12968216 200.44351425 20.95114136 201.55752563 C20.47247822 204.47532229 19.93706129 207.18881614 19 210 C57.94 210 96.88 210 137 210 C135.15794615 224.73643081 132.61068663 239.38015489 130 254 C73.24 254 16.48 254 -42 254 C-34.49843732 206.49010302 -34.49843732 206.49010302 -31.5 187.9375 C-31.39607941 187.29429935 -31.29215881 186.65109871 -31.18508911 185.98840714 C-25.74451256 152.32512751 -20.18629178 118.6809573 -14.63056612 85.03652877 C-13.75330018 79.72339691 -12.87726138 74.41006364 -12.00170898 69.09664917 C-10.91872296 62.52477727 -9.83374144 55.95323816 -8.74639416 49.3820864 C-8.1818754 45.97035128 -7.61812305 42.55849454 -7.05651855 39.14627838 C-6.43526601 35.37470467 -5.81078795 31.60367795 -5.18554688 27.83276367 C-5.00787529 26.74973433 -4.8302037 25.666705 -4.64714813 24.55085659 C-3.27672857 16.31731289 -1.63962155 8.19810774 0 0 Z " fill="#3B82F6" transform="translate(1226,349)"/>
<path d="M0 0 C68.97 0 137.94 0 209 0 C207.32360562 15.08754938 204.49564185 30.02614892 202 45 C175.93 45 149.86 45 123 45 C122.67 49.29 122.34 53.58 122 58 C121.46780478 61.58008896 120.90009009 65.11897045 120.25 68.67578125 C120.07625854 69.65837418 119.90251709 70.6409671 119.72351074 71.65333557 C119.34932323 73.76857797 118.97258736 75.88337089 118.59350586 77.9977417 C117.55710123 83.78611056 116.54376795 89.57850585 115.53125 95.37109375 C115.21516785 97.17794647 115.21516785 97.17794647 114.8927002 99.02130127 C112.64153372 111.9533557 110.56158425 124.91160007 108.5 137.875 C102.27328327 176.9627275 95.73076888 215.99605728 89 255 C71.51 255 54.02 255 36 255 C36.61435141 248.24213448 37.26129574 241.69227516 38.37939453 235.0324707 C38.58220284 233.79507645 38.58220284 233.79507645 38.78910828 232.53268433 C39.23315631 229.82973204 39.68286643 227.12775745 40.1328125 224.42578125 C40.45120827 222.49713354 40.76930688 220.56843675 41.08712769 218.63969421 C41.75550335 214.58873177 42.42652001 210.53821896 43.09960938 206.48803711 C43.94048633 201.4278114 44.77638279 196.36678074 45.61043739 191.3054266 C48.86390431 171.56930125 52.17678779 151.84604599 55.65625 132.1484375 C58.64284858 115.24033608 61.40856848 98.30437103 64.0579834 81.3404541 C64.81616685 76.49035721 65.57945629 71.64106093 66.34292603 66.79179382 C66.74383275 64.24335068 67.14346625 61.69470679 67.54159546 59.14582825 C67.71913361 58.0140062 67.89667175 56.88218414 68.07958984 55.71606445 C68.23390472 54.72862747 68.3882196 53.74119049 68.54721069 52.72383118 C68.97680448 50.13953657 69.48622328 47.56888359 70 45 C44.59 45 19.18 45 -7 45 C-5.75391811 35.03134487 -4.47691445 25.10882127 -2.9375 15.1875 C-2.76412109 14.04474609 -2.59074219 12.90199219 -2.41210938 11.72460938 C-2.24388672 10.63341797 -2.07566406 9.54222656 -1.90234375 8.41796875 C-1.67792603 6.96040161 -1.67792603 6.96040161 -1.44897461 5.47338867 C-1 3 -1 3 0 0 Z " fill="#3C83F6" transform="translate(1885,348)"/>
<path d="M0 0 C6.90100915 -0.05110228 13.80196871 -0.08590093 20.703125 -0.10986328 C23.04624251 -0.11986282 25.38934773 -0.13346683 27.73242188 -0.15087891 C31.11852063 -0.17539495 34.50445306 -0.18654391 37.890625 -0.1953125 C38.92237854 -0.20563507 39.95413208 -0.21595764 41.01715088 -0.22659302 C57.0286861 -0.22901143 72.66744634 3.4223361 84.7109375 14.5859375 C94.27903549 24.93113989 97.57336723 38.63407931 97.375 52.375 C97.36484863 53.41374268 97.35469727 54.45248535 97.34423828 55.52270508 C96.79125435 83.68416201 89.9462545 112.73407812 72 135 C71.2575 136.03125 70.515 137.0625 69.75 138.125 C55.39212006 153.13551085 35.07236016 161.2675216 14.50018311 162.10131836 C7.8750048 162.2428515 1.25085399 162.1831793 -5.375 162.125 C-7.38280801 162.11494474 -9.39062092 162.10582342 -11.3984375 162.09765625 C-16.26574844 162.07585688 -21.13281853 162.04146897 -26 162 C-25.34282602 151.85518355 -23.62303608 141.89327302 -21.97265625 131.875 C-21.66441705 129.98684444 -21.3564814 128.0986393 -21.04882812 126.21038818 C-20.22764612 121.17724703 -19.40140565 116.14494898 -18.57393265 111.11283875 C-17.8911911 106.95732704 -17.21133728 102.80134477 -16.53134823 98.64538193 C-11.14636362 65.74221179 -5.65020172 32.85871484 0 0 Z " fill="#FDFEFE" transform="translate(1017,395)"/>
<path d="M0 0 C451.44 0 902.88 0 1368 0 C1368 2.97 1368 5.94 1368 9 C916.56 9 465.12 9 0 9 C0 6.03 0 3.06 0 0 Z " fill="#1E40AF" transform="translate(923,632)"/>
<path d="M0 0 C0.99 0 1.98 0 3 0 C4.83273712 11.33443094 6.65870563 22.66992974 8.47612 34.00682831 C9.32029282 39.27136762 10.16676356 44.53551562 11.01855469 49.79882812 C11.84099773 54.88133841 12.65731444 59.96479864 13.4694519 65.04896545 C13.77985138 66.98530406 14.09243023 68.92129464 14.40725708 70.85691833 C14.84895195 73.57493763 15.28277397 76.29410827 15.71484375 79.01367188 C15.84575409 79.80777466 15.97666443 80.60187744 16.11154175 81.42004395 C16.2293399 82.17148682 16.34713806 82.92292969 16.46850586 83.69714355 C16.57174667 84.33871147 16.67498749 84.98027939 16.78135681 85.64128876 C17.10013198 89.08021858 17 92.54632718 17 96 C-4.12 96 -25.24 96 -47 96 C-41.37580383 82.50192918 -41.37580383 82.50192918 -39.03662109 77.86206055 C-38.5119223 76.81604172 -37.98722351 75.77002289 -37.44662476 74.69230652 C-36.61839706 73.05604057 -36.61839706 73.05604057 -35.7734375 71.38671875 C-34.87347262 69.59474585 -33.97351028 67.80277167 -33.07367897 66.0107317 C-31.8242947 63.52497017 -30.57124903 61.04106282 -29.31811523 58.55718994 C-26.54797978 53.06550217 -23.78437678 47.57053455 -21.0234375 42.07421875 C-20.7248156 41.48032223 -20.4261937 40.8864257 -20.11852264 40.27453232 C-15.43758256 30.95942463 -10.87940041 21.59153589 -6.44320679 12.15739441 C-1.9399727 2.61858784 -1.9399727 2.61858784 0 0 Z " fill="#FCFDFE" transform="translate(1762,407)"/>
<path d="M0 0 C0.99 0 1.98 0 3 0 C5.08410952 10.8137417 6.96086736 21.64357518 8.6640625 32.5234375 C8.90387744 34.04605028 9.14381961 35.56864303 9.38388062 37.09121704 C9.88117577 40.24888276 10.37675704 43.40681124 10.87109375 46.56494141 C11.50070984 50.58622176 12.13502061 54.60674557 12.77063942 58.62708092 C13.26508883 61.75823941 13.7568914 64.8898094 14.24793625 68.02150345 C14.48070665 69.50381306 14.71430934 70.98599225 14.94881058 72.46802902 C15.27668846 74.5425619 15.60092942 76.61763402 15.92431641 78.69287109 C16.20053329 80.45248672 16.20053329 80.45248672 16.48233032 82.24765015 C17.11261915 86.81632454 17.54109418 91.4109418 18 96 C-3.45 96 -24.9 96 -47 96 C-41.51952283 84.43010375 -36.01800656 72.920161 -30.25656128 61.49481201 C-24.26518939 49.6090186 -18.35240216 37.69422967 -12.65356445 25.66479492 C-8.5658361 17.04409226 -4.304827 8.51399118 0 0 Z " fill="#FCFDFE" transform="translate(2195,407)"/>
<path d="M0 0 C3.83318619 -0.08789644 7.66610928 -0.14069087 11.5 -0.1875 C13.11648438 -0.22520508 13.11648438 -0.22520508 14.765625 -0.26367188 C21.9743172 -0.32960504 28.23692754 -0.13105064 34.0234375 4.68359375 C34.46945312 5.26238281 34.91546875 5.84117187 35.375 6.4375 C35.83648438 7.01371094 36.29796875 7.58992187 36.7734375 8.18359375 C40.68812153 13.98081691 40.66552875 19.12009652 40 26 C37.79759498 35.447817 33.50559934 43.19812558 25.25 48.5 C15.18758317 53.24884468 2.83581094 51.46976059 -8 51 C-7.82871582 49.9169458 -7.65743164 48.8338916 -7.48095703 47.71801758 C-6.83582821 43.63830795 -6.19105772 39.55854176 -5.54638672 35.47875977 C-5.26913829 33.72451293 -4.99179711 31.97028075 -4.71435547 30.21606445 C-3.12196185 20.14719291 -1.53767734 10.07740103 0 0 Z " fill="#243F8D" transform="translate(932,676)"/>
<path d="M0 0 C3.66651247 -0.08796382 7.33274918 -0.14071247 11 -0.1875 C12.54494141 -0.22520508 12.54494141 -0.22520508 14.12109375 -0.26367188 C22.08789928 -0.33978785 27.5551061 0.72507007 34.3125 5.1875 C38.53834584 9.60989681 39.72540061 13.68551943 40.4375 19.6875 C40.01643781 28.58243883 37.07809015 37.07159168 30.78515625 43.41796875 C22.27256079 50.96195379 13.88081777 51.30203458 3 51.125 C1.93910156 51.11597656 0.87820313 51.10695313 -0.21484375 51.09765625 C-2.81013638 51.07427524 -5.40494465 51.04150556 -8 51 C-7.4044982 40.30739979 -5.32414944 29.83337785 -3.4375 19.3125 C-3.1043982 17.43562128 -2.77171242 15.55866867 -2.43945312 13.68164062 C-1.63109784 9.12022744 -0.81711278 4.55985218 0 0 Z " fill="#233E8C" transform="translate(1837,676)"/>
<path d="M0 0 C3.99974981 -0.11710979 7.99905281 -0.18755489 12 -0.25 C13.12535156 -0.28351562 14.25070312 -0.31703125 15.41015625 -0.3515625 C23.52026883 -0.44641762 28.60078813 0.75804349 35.09375 5.54296875 C40.03092287 11.31671813 39.85138644 17.68111259 39.44921875 24.9296875 C38.66116372 33.62806818 34.47350012 40.21962211 28 46 C22.31978948 49.67355671 17.10434665 51.13353376 10.359375 51.09765625 C9.28945312 51.09443359 8.21953125 51.09121094 7.1171875 51.08789062 C6.00601562 51.07951172 4.89484375 51.07113281 3.75 51.0625 C2.06003906 51.05573242 2.06003906 51.05573242 0.3359375 51.04882812 C-2.44276217 51.03705397 -5.22135409 51.0206084 -8 51 C-6.66924897 39.42583756 -4.88902271 27.9734635 -2.875 16.5 C-2.59470804 14.88677849 -2.31475855 13.27349743 -2.03515625 11.66015625 C-1.36069573 7.77274343 -0.68167998 3.88615305 0 0 Z " fill="#233E8C" transform="translate(1291,676)"/>
<path d="M0 0 C4.62 0 9.24 0 14 0 C17.06950518 10.98228699 20.08359121 21.97602984 23 33 C25.0631792 29.42548451 27.12615964 25.85085438 29.18896484 22.27612305 C29.88910701 21.06287623 30.58930122 19.84965944 31.28955078 18.63647461 C34.87133465 12.43094464 38.4530136 6.22550964 42 0 C46.62 0 51.24 0 56 0 C54.44968965 11.15320355 52.69244955 22.26284114 50.875 33.375 C50.59492754 35.09372971 50.31497886 36.8124796 50.03515625 38.53125 C49.35819341 42.68773329 48.67957073 46.84394233 48 51 C44.37 51 40.74 51 37 51 C37.20496094 49.60007812 37.40992188 48.20015625 37.62109375 46.7578125 C37.89334394 44.88022497 38.16547286 43.00261986 38.4375 41.125 C38.57220703 40.2071875 38.70691406 39.289375 38.84570312 38.34375 C39.72675472 32.24085604 40.44001251 26.1406676 41 20 C40.66266846 20.61931396 40.32533691 21.23862793 39.9777832 21.87670898 C38.42307205 24.73051497 36.86778931 27.58400907 35.3125 30.4375 C34.51682617 31.89833008 34.51682617 31.89833008 33.70507812 33.38867188 C30.49663554 39.27409723 27.2665238 45.14660157 24 51 C21.36 51 18.72 51 16 51 C15.74605469 49.83984375 15.49210937 48.6796875 15.23046875 47.484375 C13.37815847 32.6943576 13.37815847 32.6943576 8 20 C7.91959473 20.61931396 7.83918945 21.23862793 7.75634766 21.87670898 C7.38338391 24.73086593 7.00422866 27.58416898 6.625 30.4375 C6.49867187 31.41138672 6.37234375 32.38527344 6.2421875 33.38867188 C5.44475191 39.34950292 4.39170855 45.1487732 3 51 C-0.63 51 -4.26 51 -8 51 C-7.18439689 45.50446163 -6.36643196 40.00928157 -5.54638672 34.5144043 C-5.26841189 32.6495894 -4.99105457 30.78468234 -4.71435547 28.91967773 C-3.27959257 19.25186201 -1.83650875 9.60155305 0 0 Z " fill="#24408D" transform="translate(1636,676)"/>
<path d="M0 0 C3.89450969 2.09704368 6.78104518 4.16319051 9 8 C9.32286593 10.68764073 9.47681279 13.06868209 9.4375 15.75 C9.42920166 16.46720215 9.42090332 17.1844043 9.41235352 17.92333984 C9.19713231 24.65876776 7.96091407 28.88472548 3.3515625 33.734375 C-0.77389916 37.51754945 -4.38841011 39.78680899 -10.0625 40.25 C-12.99218378 40.00066521 -14.58654758 39.63769986 -17 38 C-17.66 37.01 -18.32 36.02 -19 35 C-19.12117188 35.54527344 -19.24234375 36.09054687 -19.3671875 36.65234375 C-20.578125 42.1015625 -21.7890625 47.55078125 -23 53 C-26.3 53 -29.6 53 -33 53 C-33.15298086 46.61155123 -32.65311806 40.75279847 -31.50390625 34.4765625 C-31.35090561 33.60857025 -31.19790497 32.740578 -31.04026794 31.84628296 C-30.71850197 30.02888195 -30.39310447 28.21212041 -30.06420898 26.39599609 C-29.56032694 23.61299795 -29.06730218 20.82824285 -28.57617188 18.04296875 C-28.26103898 16.27072256 -27.94530524 14.49858309 -27.62890625 12.7265625 C-27.48095108 11.89532867 -27.33299591 11.06409485 -27.18055725 10.20767212 C-26.60835702 7.05578829 -26.01446719 4.04340156 -25 1 C-21.7 1 -18.4 1 -15 1 C-14.67 2.32 -14.34 3.64 -14 5 C-13.21625 4.360625 -12.4325 3.72125 -11.625 3.0625 C-7.53624167 -0.15009583 -5.22636279 -0.43553023 0 0 Z " fill="#243F8D" transform="translate(1953,688)"/>
<path d="M0 0 C1.62890625 1.16796875 1.62890625 1.16796875 3.62890625 4.16796875 C4.83221709 13.31000562 3.82486906 27.77604314 -0.37109375 36.16796875 C-3.67109375 36.16796875 -6.97109375 36.16796875 -10.37109375 36.16796875 C-10.70109375 35.17796875 -11.03109375 34.18796875 -11.37109375 33.16796875 C-12.17546875 33.82796875 -12.97984375 34.48796875 -13.80859375 35.16796875 C-17.82466135 37.8421749 -21.68991575 37.89346497 -26.37109375 37.16796875 C-30.00576454 35.54396691 -31.14518071 34.50683831 -33.37109375 31.16796875 C-33.85135476 26.92566319 -33.66045274 24.70534973 -31.62109375 20.91796875 C-25.34174987 13.24321512 -16.68401984 12.75099778 -7.37109375 11.16796875 C-7.37109375 9.84796875 -7.37109375 8.52796875 -7.37109375 7.16796875 C-10.16979402 5.76861862 -12.27608167 5.9153147 -15.37109375 6.16796875 C-15.82226562 6.66425781 -16.2734375 7.16054688 -16.73828125 7.671875 C-19.01528281 9.75821854 -20.52856517 9.47352181 -23.55859375 9.35546875 C-24.45964844 9.32839844 -25.36070313 9.30132813 -26.2890625 9.2734375 C-26.97613281 9.23863281 -27.66320313 9.20382812 -28.37109375 9.16796875 C-26.75360943 3.50677364 -23.06104447 0.69469754 -18.05859375 -2.14453125 C-11.36231078 -3.85753387 -6.0931603 -3.21275725 0 0 Z " fill="#27428F" transform="translate(1434.37109375,690.83203125)"/>
<path d="M0 0 C3 2.1875 3 2.1875 5 5.1875 C5.51240232 12.16898161 4.21443679 18.82757327 3 25.6875 C2.71382812 27.35039063 2.71382812 27.35039063 2.421875 29.046875 C1.95383586 31.76150201 1.47974117 34.47492095 1 37.1875 C-2.3 37.1875 -5.6 37.1875 -9 37.1875 C-9 35.8675 -9 34.5475 -9 33.1875 C-9.72703125 33.72890625 -9.72703125 33.72890625 -10.46875 34.28125 C-15.59839059 37.83253964 -18.76197843 39.09301926 -25 38.1875 C-30.5 35.1875 -30.5 35.1875 -32 32.1875 C-32.58054291 27.29435264 -32.62419406 24.35012765 -29.5625 20.375 C-23.26993553 13.92071075 -14.54999944 13.65095791 -6 13.1875 C-6.66 11.2075 -7.32 9.2275 -8 7.1875 C-12.2544148 6.78060615 -12.2544148 6.78060615 -15.875 8.6875 C-18.53311514 10.56381657 -20.03754192 10.50180756 -23.25 10.375 C-24.14203125 10.34792969 -25.0340625 10.32085938 -25.953125 10.29296875 C-26.62859375 10.25816406 -27.3040625 10.22335937 -28 10.1875 C-26.60192483 5.29423692 -24.09570565 3.1017521 -20 0.1875 C-13.81529706 -2.76429004 -6.12556203 -3.33772795 0 0 Z " fill="#26418E" transform="translate(1724,689.8125)"/>
<path d="M0 0 C5.22981771 3.20963542 5.22981771 3.20963542 6.6015625 5.953125 C6.99451403 12.96076069 5.82064857 19.56693613 4.6015625 26.453125 C4.31539062 28.11601563 4.31539062 28.11601563 4.0234375 29.8125 C3.55539836 32.52712701 3.08130367 35.24054595 2.6015625 37.953125 C-0.6984375 37.953125 -3.9984375 37.953125 -7.3984375 37.953125 C-7.7284375 36.963125 -8.0584375 35.973125 -8.3984375 34.953125 C-9.3884375 35.613125 -10.3784375 36.273125 -11.3984375 36.953125 C-15.6870378 39.37899992 -18.50446363 39.574582 -23.3984375 38.953125 C-28.8984375 35.953125 -28.8984375 35.953125 -30.3984375 32.953125 C-30.97898041 28.05997764 -31.02263156 25.11575265 -27.9609375 21.140625 C-21.66837303 14.68633575 -12.94843694 14.41658291 -4.3984375 13.953125 C-4.3984375 11.973125 -4.3984375 9.993125 -4.3984375 7.953125 C-9.73576938 7.40445179 -9.73576938 7.40445179 -14.3359375 9.453125 C-17.67471671 11.88132806 -21.40115688 11.18373734 -25.3984375 10.953125 C-25.08670557 7.79280824 -24.84040986 6.35107621 -22.4375 4.1875 C-21.64085937 3.69765625 -20.84421875 3.2078125 -20.0234375 2.703125 C-19.23195313 2.20296875 -18.44046875 1.7028125 -17.625 1.1875 C-12.24232876 -1.79657739 -5.70988677 -2.49226328 0 0 Z " fill="#26418E" transform="translate(1086.3984375,689.046875)"/>
<path d="M0 0 C2.5 1.9375 2.5 1.9375 4 5 C4.21213887 9.07169773 3.60208811 12.97771696 3 17 C2.88140625 17.79567383 2.7628125 18.59134766 2.640625 19.41113281 C1.80757246 24.94884955 0.9187573 30.47589949 0 36 C-3.3 36 -6.6 36 -10 36 C-10.33 34.68 -10.66 33.36 -11 32 C-12.175625 32.9590625 -12.175625 32.9590625 -13.375 33.9375 C-17.02465672 36.80508742 -19.20477961 37.33568051 -23.89453125 37.29296875 C-27.27593947 36.8224574 -29.42254136 35.13740472 -32 33 C-33.60960241 29.78079518 -33.46158126 26.49111461 -33 23 C-30.53486278 17.97491258 -28.09005245 16.12085519 -23 14 C-20.22354055 13.40640976 -17.44859763 13.09077499 -14.625 12.8125 C-13.88894531 12.73064453 -13.15289063 12.64878906 -12.39453125 12.56445312 C-10.59745375 12.36607444 -8.79885107 12.18159423 -7 12 C-7.66 10.02 -8.32 8.04 -9 6 C-13.2544148 5.59310615 -13.2544148 5.59310615 -16.875 7.5 C-19.53311514 9.37631657 -21.03754192 9.31430756 -24.25 9.1875 C-25.14203125 9.16042969 -26.0340625 9.13335938 -26.953125 9.10546875 C-27.62859375 9.07066406 -28.3040625 9.03585937 -29 9 C-27.60192483 4.10673692 -25.09570565 1.9142521 -21 -1 C-13.68293665 -4.34039849 -6.93369204 -3.86686671 0 0 Z " fill="#25408D" transform="translate(1999,691)"/>
<path d="M0 0 C2.5 1.9375 2.5 1.9375 4 5 C4.21213887 9.07169773 3.60208811 12.97771696 3 17 C2.88140625 17.79567383 2.7628125 18.59134766 2.640625 19.41113281 C1.80757246 24.94884955 0.9187573 30.47589949 0 36 C-3.3 36 -6.6 36 -10 36 C-10.33 34.68 -10.66 33.36 -11 32 C-12.175625 32.9590625 -12.175625 32.9590625 -13.375 33.9375 C-17.02465672 36.80508742 -19.20477961 37.33568051 -23.89453125 37.29296875 C-27.27593947 36.8224574 -29.42254136 35.13740472 -32 33 C-33.60960241 29.78079518 -33.46158126 26.49111461 -33 23 C-30.53486278 17.97491258 -28.09005245 16.12085519 -23 14 C-20.22354055 13.40640976 -17.44859763 13.09077499 -14.625 12.8125 C-13.88894531 12.73064453 -13.15289063 12.64878906 -12.39453125 12.56445312 C-10.59745375 12.36607444 -8.79885107 12.18159423 -7 12 C-7.66 10.02 -8.32 8.04 -9 6 C-13.2544148 5.59310615 -13.2544148 5.59310615 -16.875 7.5 C-19.53311514 9.37631657 -21.03754192 9.31430756 -24.25 9.1875 C-25.14203125 9.16042969 -26.0340625 9.13335938 -26.953125 9.10546875 C-27.62859375 9.07066406 -28.3040625 9.03585937 -29 9 C-27.60192483 4.10673692 -25.09570565 1.9142521 -21 -1 C-13.68293665 -4.34039849 -6.93369204 -3.86686671 0 0 Z " fill="#25408D" transform="translate(1805,691)"/>
<path d="M0 0 C2.12630248 1.65821716 2.9023284 2.50900222 3.43359375 5.1796875 C3.44880146 15.67300619 1.14465695 25.77458203 -1 36 C-4.3 36 -7.6 36 -11 36 C-11 34.68 -11 33.36 -11 32 C-11.4125 32.45375 -11.825 32.9075 -12.25 33.375 C-15.90480211 36.76874481 -18.92523524 37.38417653 -23.96484375 37.26171875 C-27.0697895 36.8624263 -29.38115229 35.6607327 -32 34 C-33.87060127 30.25879746 -33.53196851 26.07425293 -33 22 C-30.13460728 16.91623872 -26.90532115 15.07265083 -21.4921875 13.5234375 C-17.35710724 12.65494102 -13.21332474 12.25508647 -9 12 C-8.61781233 10.34385343 -8.28604898 8.67542976 -8 7 C-9.09798661 5.68810584 -9.09798661 5.68810584 -11.8125 5.75 C-14.98352163 5.69744463 -14.98352163 5.69744463 -16.87109375 7.50390625 C-19.53174273 9.37368343 -21.03887118 9.31425509 -24.25 9.1875 C-25.14203125 9.16042969 -26.0340625 9.13335938 -26.953125 9.10546875 C-27.62859375 9.07066406 -28.3040625 9.03585937 -29 9 C-27.38251568 3.33880489 -23.68995072 0.52672879 -18.6875 -2.3125 C-11.83844427 -4.06458402 -6.17760845 -3.33590856 0 0 Z " fill="#25408D" transform="translate(1367,691)"/>
<path d="M0 0 C6.1858567 4.12390447 6.1858567 4.12390447 7.8125 7.875 C8.27520449 12.24440258 8.25027965 16.50345754 7.8125 20.875 C6.8125 21.875 6.8125 21.875 4.31225586 21.98852539 C3.22823486 21.98328857 2.14421387 21.97805176 1.02734375 21.97265625 C-0.14248047 21.96943359 -1.31230469 21.96621094 -2.51757812 21.96289062 C-3.74927734 21.95451172 -4.98097656 21.94613281 -6.25 21.9375 C-8.10334961 21.93073242 -8.10334961 21.93073242 -9.99414062 21.92382812 C-13.05864117 21.91199608 -16.12304721 21.89551173 -19.1875 21.875 C-18.58888258 24.22671131 -17.91825648 26.5609378 -17.1875 28.875 C-14.13056678 30.40346661 -11.55765453 30.10742445 -8.1875 29.875 C-7.56101562 29.37871094 -6.93453125 28.88242187 -6.2890625 28.37109375 C-3.64712173 26.49030692 -2.13917074 26.56111826 1.0625 26.6875 C1.95453125 26.71457031 2.8465625 26.74164062 3.765625 26.76953125 C4.44109375 26.80433594 5.1165625 26.83914063 5.8125 26.875 C4.44850763 31.33897502 2.71347811 33.33088384 -1.1875 35.875 C-6.70664693 38.69482616 -12.02280749 39.70992125 -18.1875 38.875 C-23.54505096 36.95436852 -26.64587216 33.95825568 -29.1875 28.875 C-30.12011005 20.45486354 -29.12631023 13.84889787 -24.1875 6.875 C-17.73709009 -0.35545948 -9.2867648 -3.27768169 0 0 Z " fill="#25408E" transform="translate(1910.1875,689.125)"/>
<path d="M0 0 C3.52180344 1.73589906 5.05998463 3.73990529 6.6875 7.3125 C7.07544986 12.01445227 6.82005734 16.5846214 6.6875 21.3125 C-2.2225 21.3125 -11.1325 21.3125 -20.3125 21.3125 C-18.77937233 25.62858796 -18.77937233 25.62858796 -16.3125 29.3125 C-12.28201267 29.62889397 -12.28201267 29.62889397 -8.3125 29.3125 C-7.83941406 28.81621094 -7.36632812 28.31992187 -6.87890625 27.80859375 C-5.3125 26.3125 -5.3125 26.3125 -2.83203125 26.01953125 C-1.93871094 26.05433594 -1.04539062 26.08914063 -0.125 26.125 C1.22658203 26.16560547 1.22658203 26.16560547 2.60546875 26.20703125 C3.63607422 26.25923828 3.63607422 26.25923828 4.6875 26.3125 C3.28942483 31.20576308 0.78320565 33.3982479 -3.3125 36.3125 C-8.4001689 38.74070561 -13.77442119 39.14022518 -19.3125 38.3125 C-23.66263921 36.60325474 -26.52954466 34.36459624 -29.3125 30.625 C-31.52260335 23.30403264 -30.89418946 17.07493553 -27.4296875 10.27734375 C-21.73660513 0.2646849 -10.93845068 -4.86153364 0 0 Z " fill="#26418E" transform="translate(1006.3125,689.6875)"/>
<path d="M0 0 C3.71456091 1.68843678 5.84752458 3.55847151 8 7 C9.48502655 15.88104113 8.08611474 30.82777052 4 39 C0.37 39 -3.26 39 -7 39 C-6.7834375 37.66066406 -6.566875 36.32132813 -6.34375 34.94140625 C-6.06214073 33.14849389 -5.78091098 31.3555219 -5.5 29.5625 C-5.35691406 28.68400391 -5.21382812 27.80550781 -5.06640625 26.90039062 C-4.18190998 21.19328375 -3.85900173 15.77505428 -4 10 C-5.2375 9.896875 -6.475 9.79375 -7.75 9.6875 C-8.44609375 9.62949219 -9.1421875 9.57148437 -9.859375 9.51171875 C-12.17702169 9.86600952 -12.17702169 9.86600952 -14.12890625 11.8203125 C-16.82133853 16.39576109 -17.39176131 20.98665934 -18.1875 26.1875 C-18.51196587 28.18137458 -18.83867674 30.17488553 -19.16796875 32.16796875 C-19.30485107 33.04735107 -19.4417334 33.9267334 -19.58276367 34.83276367 C-20 37 -20 37 -21 39 C-24.3 39 -27.6 39 -31 39 C-30.66021397 30.3014776 -29.42374359 21.82799167 -28 13.25 C-27.82178711 12.16589844 -27.64357422 11.08179688 -27.45996094 9.96484375 C-26.12811543 2.12811543 -26.12811543 2.12811543 -25 1 C-23.31391034 0.92794489 -21.62499341 0.91613932 -19.9375 0.9375 C-19.01839844 0.94652344 -18.09929687 0.95554687 -17.15234375 0.96484375 C-16.44207031 0.97644531 -15.73179688 0.98804688 -15 1 C-15 2.65 -15 4.3 -15 6 C-14.05125 5.195625 -13.1025 4.39125 -12.125 3.5625 C-8.02605295 0.08730576 -5.4892692 -0.37215384 0 0 Z " fill="#26418E" transform="translate(2038,688)"/>
<path d="M0 0 C3.11788391 2.21433388 3.34122465 2.80873147 4.375 6.75 C4.375 7.801875 4.375 8.85375 4.375 9.9375 C2.75081255 10.01840971 1.12548255 10.07664995 -0.5 10.125 C-1.40492187 10.15980469 -2.30984375 10.19460938 -3.2421875 10.23046875 C-4.42167969 10.08544922 -4.42167969 10.08544922 -5.625 9.9375 C-6.285 8.9475 -6.945 7.9575 -7.625 6.9375 C-11.125 6.52083333 -11.125 6.52083333 -14.625 6.9375 C-15.285 7.5975 -15.945 8.2575 -16.625 8.9375 C-16.625 9.9275 -16.625 10.9175 -16.625 11.9375 C-15.60019531 12.15664063 -14.57539062 12.37578125 -13.51953125 12.6015625 C-1.22760916 15.41491868 -1.22760916 15.41491868 1.875 18.75 C3.77631593 22.79029635 3.68796993 24.6896561 2.375 28.9375 C-0.11429249 33.39748237 -3.44714996 35.34055097 -8.0546875 37.2109375 C-13.85108162 38.84943189 -19.39002574 38.70958202 -25.0625 36.75 C-27.91681275 34.73109586 -29.75173176 32.89149992 -31.625 29.9375 C-31.625 28.6175 -31.625 27.2975 -31.625 25.9375 C-30.02167209 25.85628076 -28.41715974 25.79820866 -26.8125 25.75 C-25.47251953 25.69779297 -25.47251953 25.69779297 -24.10546875 25.64453125 C-21.13221636 25.99570279 -20.60024417 26.8132849 -18.625 28.9375 C-13.97108843 29.31777273 -13.97108843 29.31777273 -9.625 27.9375 C-8.96944881 25.41016765 -8.96944881 25.41016765 -8.625 22.9375 C-9.49382812 22.85113281 -10.36265625 22.76476562 -11.2578125 22.67578125 C-21.86676461 21.38229604 -21.86676461 21.38229604 -25.4375 18.875 C-28.03009921 15.39350963 -28.45268618 13.41481578 -28.140625 9.15234375 C-27.26219789 5.37910002 -25.47250681 3.48208055 -22.625 0.9375 C-15.68617457 -3.22579526 -7.24416843 -3.94072358 0 0 Z " fill="#26418E" transform="translate(1048.625,690.0625)"/>
<path d="M0 0 C3.39573647 1.93090897 5.16010443 3.48757127 7.1875 6.8125 C7.1875 8.1325 7.1875 9.4525 7.1875 10.8125 C5.56331255 10.89340971 3.93798255 10.95164995 2.3125 11 C1.40757813 11.03480469 0.50265625 11.06960938 -0.4296875 11.10546875 C-1.60917969 10.96044922 -1.60917969 10.96044922 -2.8125 10.8125 C-3.4725 9.8225 -4.1325 8.8325 -4.8125 7.8125 C-8.3125 7.39583333 -8.3125 7.39583333 -11.8125 7.8125 C-12.4725 8.4725 -13.1325 9.1325 -13.8125 9.8125 C-13.8125 10.8025 -13.8125 11.7925 -13.8125 12.8125 C-12.77609375 13.05484375 -11.7396875 13.2971875 -10.671875 13.546875 C-9.30190071 13.88467688 -7.93211885 14.22325984 -6.5625 14.5625 C-5.88058594 14.71976563 -5.19867187 14.87703125 -4.49609375 15.0390625 C-0.21543509 16.11961711 2.54662137 17.20887068 5.1875 20.8125 C5.64448941 24.92540465 5.58122426 27.60320405 4.3125 31.5 C0.27235663 35.89662661 -4.79809751 38.37663369 -10.703125 39.23046875 C-16.08163029 39.38477013 -20.30541374 39.00043906 -24.8125 35.8125 C-28.06742571 32.47191835 -28.8125 31.58437019 -28.8125 26.8125 C-25.5125 26.8125 -22.2125 26.8125 -18.8125 26.8125 C-18.4825 27.8025 -18.1525 28.7925 -17.8125 29.8125 C-15.9253125 29.8434375 -15.9253125 29.8434375 -14 29.875 C-13.29230469 29.88660156 -12.58460937 29.89820313 -11.85546875 29.91015625 C-9.60944539 29.89513217 -9.60944539 29.89513217 -6.8125 28.8125 C-6.8125 27.4925 -6.8125 26.1725 -6.8125 24.8125 C-7.77671875 24.57015625 -8.7409375 24.3278125 -9.734375 24.078125 C-10.99765625 23.74296875 -12.2609375 23.4078125 -13.5625 23.0625 C-14.81546875 22.73765625 -16.0684375 22.4128125 -17.359375 22.078125 C-21.52500818 20.55135447 -23.82616919 18.78516162 -25.8125 14.8125 C-26.31068321 11.75223168 -26.32571349 9.67763131 -24.71875 6.96875 C-18.19546372 -1.22005618 -9.74223572 -3.03446686 0 0 Z " fill="#25418E" transform="translate(1761.8125,689.1875)"/>
<path d="M0 0 C2.625 1.6875 2.625 1.6875 4.625 4.6875 C6.15533639 15.7735415 3.04548005 26.94501041 0.625 37.6875 C-0.695 37.6875 -2.015 37.6875 -3.375 37.6875 C-3.705 36.3675 -4.035 35.0475 -4.375 33.6875 C-5.138125 34.326875 -5.90125 34.96625 -6.6875 35.625 C-10.98246509 38.921136 -15.09896035 39.26456684 -20.375 38.6875 C-23.2841534 37.42265069 -24.83515566 36.43299933 -26.6875 33.875 C-28.07703397 29.45375554 -27.86279158 26.64432195 -25.75 22.5 C-20.9813283 16.85288877 -14.95562331 16.01505508 -8 15 C-7.16855469 14.87044922 -6.33710937 14.74089844 -5.48046875 14.60742188 C-3.44668071 14.29183408 -1.41101001 13.98841972 0.625 13.6875 C0.370504 12.20543505 0.09588238 10.72681385 -0.1875 9.25 C-0.33832031 8.42628906 -0.48914062 7.60257813 -0.64453125 6.75390625 C-0.88558594 6.07199219 -1.12664062 5.39007812 -1.375 4.6875 C-5.0434759 3.4646747 -7.51159719 3.30115972 -11.375 3.6875 C-13.98054182 5.13446109 -16.04967449 6.78927509 -18.375 8.6875 C-19.695 8.0275 -21.015 7.3675 -22.375 6.6875 C-15.81725519 -0.44886936 -9.25639465 -3.59970903 0 0 Z " fill="#2E4892" transform="translate(1233.375,689.3125)"/>
<path d="M0 0 C2.82325396 1.79661615 4.09015567 2.88210329 5.75 5.75 C6.32202562 14.95215131 4.94618406 29.35763188 0.75 37.75 C-0.57 37.75 -1.89 37.75 -3.25 37.75 C-3.25 36.1 -3.25 34.45 -3.25 32.75 C-4.19875 33.554375 -5.1475 34.35875 -6.125 35.1875 C-10.11620701 38.57134942 -12.79084011 39.0848161 -17.98828125 39.04296875 C-21.3042278 38.61344199 -22.99987627 37.14075646 -25.25 34.75 C-26.87045324 31.50909353 -26.81101303 28.25306976 -26.25 24.75 C-23.4757919 20.15521784 -20.94416919 18.03810499 -15.71875 16.33984375 C-10.62279392 15.12229728 -5.44170579 14.42270578 -0.25 13.75 C-0.1571875 11.831875 -0.1571875 11.831875 -0.0625 9.875 C-0.02769531 9.15570312 0.00710937 8.43640625 0.04296875 7.6953125 C-0.05371094 7.05335938 -0.15039062 6.41140625 -0.25 5.75 C-4.00456567 3.24695622 -5.79745934 3.29719926 -10.25 3.75 C-13.43288354 5.62178116 -13.43288354 5.62178116 -16.25 7.75 C-18.5 8.625 -18.5 8.625 -20.25 8.75 C-20.91 8.09 -21.57 7.43 -22.25 6.75 C-15.41926467 0.49013304 -9.5530972 -3.67426815 0 0 Z " fill="#2E4892" transform="translate(2186.25,689.25)"/>
<path d="M0 0 C2.77736759 1.76741574 4.05392397 2.97323836 5.75 5.75 C6.80999773 15.90670555 2.74504542 27.79418267 0.75 37.75 C-0.57 37.75 -1.89 37.75 -3.25 37.75 C-3.25 36.1 -3.25 34.45 -3.25 32.75 C-4.19875 33.554375 -5.1475 34.35875 -6.125 35.1875 C-10.06522128 38.52812239 -12.76619852 39.17358129 -17.91796875 39.08203125 C-22.14947735 38.47955515 -23.57243998 37.11411388 -26.25 33.75 C-27.4814238 28.89569171 -26.78478926 25.65245687 -24.25 21.375 C-17.39735658 15.378937 -8.99029312 14.88250749 -0.25 13.75 C-0.25 11.11 -0.25 8.47 -0.25 5.75 C-4.1397558 3.46918864 -6.77462083 3.6167805 -11.140625 4.1875 C-13.98988184 4.94730182 -15.27438359 6.63326813 -17.25 8.75 C-20 8.5 -20 8.5 -22.25 7.75 C-16.62988947 0.08621291 -9.46000101 -3.63846193 0 0 Z " fill="#2C4691" transform="translate(1578.25,689.25)"/>
<path d="M0 0 C3.63 0 7.26 0 11 0 C10.67 2.97 10.34 5.94 10 9 C12.31 9 14.62 9 17 9 C16.67 11.64 16.34 14.28 16 17 C13.36 17 10.72 17 8 17 C7.93941406 17.845625 7.87882812 18.69125 7.81640625 19.5625 C7.36040967 25.7359922 6.84179888 31.86689384 6 38 C7.65 38.33 9.3 38.66 11 39 C11 41.64 11 44.28 11 47 C0.21922626 47.77373974 0.21922626 47.77373974 -4.25 44.9375 C-7.61169624 39.29465274 -5.7872345 32.83395824 -4.5625 26.6875 C-4.36043945 25.61532227 -4.36043945 25.61532227 -4.15429688 24.52148438 C-3.14255712 19.28511425 -3.14255712 19.28511425 -2 17 C-3.65 17 -5.3 17 -7 17 C-7.125 11.25 -7.125 11.25 -6 9 C-4.35 9 -2.7 9 -1 9 C-0.67 6.03 -0.34 3.06 0 0 Z " fill="#25408D" transform="translate(1384,680)"/>
<path d="M0 0 C5.34952747 0.0762041 8.49340739 0.62080929 12.5625 4.25 C15.43826236 9.25595669 14.90809176 13.58680583 13.51953125 19.07421875 C11.77445957 24.40915218 10.35090147 28.32601869 5.25 31.1875 C1.48108761 32.96299104 -1.40710322 33.41263004 -5.5625 33.3125 C-6.53832031 33.29445313 -7.51414062 33.27640625 -8.51953125 33.2578125 C-9.62361328 33.22300781 -9.62361328 33.22300781 -10.75 33.1875 C-10.06146248 28.64770471 -9.36759461 24.10876921 -8.66870117 19.57055664 C-8.43154332 18.02553581 -8.19586215 16.48028759 -7.96166992 14.93481445 C-7.62543455 12.71765142 -7.28395425 10.5013516 -6.94140625 8.28515625 C-6.83719864 7.5903566 -6.73299103 6.89555695 -6.62562561 6.17970276 C-5.76132984 0.64468565 -5.5807783 0.04127795 0 0 Z " fill="#F9F9FB" transform="translate(1851.75,684.8125)"/>
<path d="M0 0 C1.72880982 -0.05449838 3.45812712 -0.09301688 5.1875 -0.125 C6.15042969 -0.14820313 7.11335938 -0.17140625 8.10546875 -0.1953125 C12.36319393 0.0919834 15.09536612 1.21761394 18.3125 4 C21.21232146 9.15523815 20.77274724 14.11149563 19.26953125 19.73046875 C17.44557807 24.77053528 15.73834229 28.15699462 11 31 C10.12601563 31.53753906 10.12601563 31.53753906 9.234375 32.0859375 C6.30591417 33.2839442 3.90208622 33.19352361 0.75 33.125 C-0.32765625 33.10695313 -1.4053125 33.08890625 -2.515625 33.0703125 C-3.33546875 33.04710937 -4.1553125 33.02390625 -5 33 C-4.85506104 32.14390137 -4.71012207 31.28780273 -4.56079102 30.40576172 C-4.01815968 27.11028623 -3.51507897 23.81182531 -3.02734375 20.5078125 C-2.85009766 19.30898438 -2.67285156 18.11015625 -2.49023438 16.875 C-2.30783203 15.6375 -2.12542969 14.4 -1.9375 13.125 C-1.75123047 11.86429688 -1.56496094 10.60359375 -1.37304688 9.3046875 C-0.91487219 6.20319736 -0.4572065 3.10163299 0 0 Z " fill="#F8F9FB" transform="translate(1300,685)"/>
<path d="M0 0 C11.84470327 -0.56905158 11.84470327 -0.56905158 17 3 C20.31982971 7.97974456 19.62920461 13.79498903 18.5 19.546875 C17.03275074 24.51551455 15.16397075 27.7283087 11 31 C7.25690007 32.8238874 4.33200985 33.22486771 0.1875 33.125 C-0.78832031 33.10695313 -1.76414062 33.08890625 -2.76953125 33.0703125 C-3.87361328 33.03550781 -3.87361328 33.03550781 -5 33 C-3.73201021 21.91627746 -2.0361826 10.96823696 0 0 Z " fill="#FAFBFC" transform="translate(942,685)"/>
<path d="M0 0 C1.65 0 3.3 0 5 0 C4.90912109 0.64549805 4.81824219 1.29099609 4.72460938 1.95605469 C4.31358397 4.88698203 3.90674892 7.81847624 3.5 10.75 C3.28537109 12.27367187 3.28537109 12.27367187 3.06640625 13.828125 C2.86337891 15.29765625 2.86337891 15.29765625 2.65625 16.796875 C2.53056641 17.69760742 2.40488281 18.59833984 2.27539062 19.52636719 C1.92623544 22.24775398 1.92623544 22.24775398 2 26 C2.4626123 25.56244385 2.92522461 25.1248877 3.40185547 24.67407227 C19.48566241 9.47137822 19.48566241 9.47137822 27.3125 2.50390625 C28.22656992 1.68928375 29.13422473 0.86577527 30 0 C31.99958364 -0.04080783 34.00045254 -0.04254356 36 0 C32.76153337 4.14928537 29.33768881 7.57682659 25.3359375 10.98828125 C22.51104718 13.42108813 19.75345894 15.92466904 17 18.4375 C16.05125 19.30246094 15.1025 20.16742187 14.125 21.05859375 C13.42375 21.69925781 12.7225 22.33992187 12 23 C13.28153651 26.43317283 14.76673498 29.42538046 16.75 32.50390625 C17.2759375 33.32697266 17.801875 34.15003906 18.34375 34.99804688 C19.16359375 36.26745117 19.16359375 36.26745117 20 37.5625 C21.08504375 39.25020366 22.16843962 40.93896816 23.25 42.62890625 C23.72953125 43.37213135 24.2090625 44.11535645 24.703125 44.88110352 C25.92447767 46.876608 26.98884421 48.89153746 28 51 C25.20996094 51.28271484 25.20996094 51.28271484 22 51 C20.15722656 49.10400391 20.15722656 49.10400391 18.640625 46.4765625 C18.08246094 45.538125 17.52429687 44.5996875 16.94921875 43.6328125 C16.10810547 42.14394531 16.10810547 42.14394531 15.25 40.625 C14.11121043 38.67861246 12.97066766 36.73324932 11.828125 34.7890625 C11.3321582 33.91975098 10.83619141 33.05043945 10.32519531 32.15478516 C9.05117454 29.89658044 9.05117454 29.89658044 7 28 C6.59007812 28.433125 6.18015625 28.86625 5.7578125 29.3125 C5.21898437 29.869375 4.68015625 30.42625 4.125 31 C3.59132813 31.556875 3.05765625 32.11375 2.5078125 32.6875 C1 34 1 34 -1 34 C-1.06058594 34.80824219 -1.12117188 35.61648438 -1.18359375 36.44921875 C-1.30927734 38.05216797 -1.30927734 38.05216797 -1.4375 39.6875 C-1.51871094 40.74324219 -1.59992188 41.79898438 -1.68359375 42.88671875 C-1.96451681 45.65086297 -2.40156852 48.28945741 -3 51 C-4.65 51 -6.3 51 -8 51 C-7.4044982 40.30739979 -5.32414944 29.83337785 -3.4375 19.3125 C-3.1043982 17.43562128 -2.77171242 15.55866867 -2.43945312 13.68164062 C-1.63109784 9.12022744 -0.81711278 4.55985218 0 0 Z " fill="#2E4892" transform="translate(1127,676)"/>
<path d="M0 0 C1.65 0 3.3 0 5 0 C4.56212717 6.70636808 3.92168096 13.19187263 2.40234375 19.74609375 C1.9635465 22.2042104 1.93407772 24.50813791 2 27 C2.639375 26.360625 3.27875 25.72125 3.9375 25.0625 C4.39382812 24.60746094 4.85015625 24.15242187 5.3203125 23.68359375 C6.57017734 22.43082224 7.81402751 21.17204426 9.0546875 19.91015625 C13.28194553 15.63170305 17.57149188 11.52963163 22.16015625 7.640625 C23.95340036 6.04155382 25.51967682 4.34711901 27.125 2.5625 C30 0 30 0 33.375 -0.375 C34.24125 -0.25125 35.1075 -0.1275 36 0 C31.20861556 6.02345473 25.70675873 11.07345894 20.0234375 16.23046875 C19.50620117 16.70661621 18.98896484 17.18276367 18.45605469 17.67333984 C17.17157665 18.84367077 15.85737878 19.9812033 14.5390625 21.11328125 C14.03117187 21.73589844 13.52328125 22.35851562 13 23 C13.41959266 26.62289714 15.26422502 29.332995 17.16015625 32.38671875 C17.78857422 33.40701172 18.41699219 34.42730469 19.06445312 35.47851562 C19.72380859 36.53748047 20.38316406 37.59644531 21.0625 38.6875 C22.36774971 40.79441912 23.67123774 42.90243099 24.97265625 45.01171875 C25.55281494 45.94459717 26.13297363 46.87747559 26.73071289 47.83862305 C28 50 28 50 28 51 C25.38671875 51.61328125 25.38671875 51.61328125 22 51 C19.43986056 48.02470281 17.67391218 44.62957906 15.8125 41.1875 C14.78099015 39.34560942 13.74596843 37.50568011 12.70703125 35.66796875 C12.2581958 34.84578857 11.80936035 34.0236084 11.34692383 33.17651367 C10.07522306 31.12155404 8.78181542 29.61772235 7 28 C1.80319643 31.53097886 -0.3691184 35.16359493 -1.56518555 41.21484375 C-2.11063097 44.4710635 -2.58706683 47.72406354 -3 51 C-4.32 51 -5.64 51 -7 51 C-7.16221125 44.43913406 -6.60184581 38.38841667 -5.46875 31.93359375 C-5.31337769 31.01409439 -5.15800537 30.09459503 -4.9979248 29.14723206 C-4.50552473 26.2427608 -4.00294482 23.34016186 -3.5 20.4375 C-3.16208292 18.4551935 -2.82483684 16.47277249 -2.48828125 14.49023438 C-1.66660266 9.6587983 -0.8357968 4.82901291 0 0 Z " fill="#2D4791" transform="translate(2080,676)"/>
<path d="M0 0 C1.65 0 3.3 0 5 0 C4.43708547 9.16191918 2.79203512 18.01728306 1 27 C4.9577764 23.61790017 8.85099458 20.21642354 12.5 16.5 C15.55449343 13.38984381 18.77205406 10.5364925 22.08984375 7.7109375 C23.9050557 6.08504214 25.49746638 4.37275932 27.125 2.5625 C30 0 30 0 33.375 -0.375 C34.24125 -0.25125 35.1075 -0.1275 36 0 C31.87936283 5.15079646 27.30134985 9.60320936 22.40332031 14.00317383 C20.92870934 15.32787721 19.46424708 16.66384991 18 18 C17.03191406 18.85335937 16.06382813 19.70671875 15.06640625 20.5859375 C14.04353516 21.78089844 14.04353516 21.78089844 13 23 C13.34525429 26.61349944 15.27745353 29.3543018 17.16015625 32.38671875 C17.78857422 33.40701172 18.41699219 34.42730469 19.06445312 35.47851562 C19.72380859 36.53748047 20.38316406 37.59644531 21.0625 38.6875 C22.36774971 40.79441912 23.67123774 42.90243099 24.97265625 45.01171875 C25.55281494 45.94459717 26.13297363 46.87747559 26.73071289 47.83862305 C28 50 28 50 28 51 C25.28515625 51.4375 25.28515625 51.4375 22 51 C20.12214673 48.63186977 18.82131141 46.63436691 17.4375 44 C16.66709657 42.62345723 15.89626638 41.24715321 15.125 39.87109375 C14.76148438 39.2044873 14.39796875 38.53788086 14.0234375 37.85107422 C12.74279146 35.53479123 11.35851294 33.29494362 9.9375 31.0625 C9.298125 30.051875 8.65875 29.04125 8 28 C6.85373678 28.97866338 5.70800212 29.95794587 4.5625 30.9375 C3.92441406 31.48277344 3.28632812 32.02804687 2.62890625 32.58984375 C-0.74828819 35.51350609 -0.80047418 38.79296775 -1.5625 43.0625 C-1.70107422 43.82111328 -1.83964844 44.57972656 -1.98242188 45.36132812 C-2.32511827 47.24024975 -2.6630073 49.12004701 -3 51 C-4.65 51 -6.3 51 -8 51 C-5.36 34.17 -2.72 17.34 0 0 Z " fill="#2A4490" transform="translate(1472,676)"/>
<path d="M0 0 C1.65 0 3.3 0 5 0 C4.67 2.97 4.34 5.94 4 9 C6.64 9 9.28 9 12 9 C11.67 10.32 11.34 11.64 11 13 C8.36 13 5.72 13 3 13 C1.78155555 22.32169156 0.67510776 31.61955539 0 41 C2.31 41.66 4.62 42.32 7 43 C7 44.32 7 45.64 7 47 C0.83087028 48.45155993 0.83087028 48.45155993 -2.875 46.4375 C-5.45539199 43.4776386 -5.61790381 41.86898009 -6 38 C-5.74633789 35.02392578 -5.74633789 35.02392578 -5.22265625 31.9453125 C-5.03896484 30.83671875 -4.85527344 29.728125 -4.66601562 28.5859375 C-4.46685547 27.44382812 -4.26769531 26.30171875 -4.0625 25.125 C-3.76956055 23.37703125 -3.76956055 23.37703125 -3.47070312 21.59375 C-2.98909404 18.72758859 -2.49860506 15.86324509 -2 13 C-3.65 13 -5.3 13 -7 13 C-7 11.68 -7 10.36 -7 9 C-4.69 9 -2.38 9 0 9 C0 6.03 0 3.06 0 0 Z " fill="#314A93" transform="translate(1191,680)"/>
<path d="M0 0 C1.32 0 2.64 0 4 0 C4.125 6.75 4.125 6.75 3 9 C5.64 9 8.28 9 11 9 C11 10.32 11 11.64 11 13 C8.03 13 5.06 13 2 13 C1.93941406 13.94101562 1.87882812 14.88203125 1.81640625 15.8515625 C1.73261719 17.09679687 1.64882812 18.34203125 1.5625 19.625 C1.48128906 20.85476563 1.40007813 22.08453125 1.31640625 23.3515625 C1 27 1 27 0.46875 30.15625 C0.03348954 32.79683014 -0.10295146 35.20520378 -0.0625 37.875 C-0.04896484 39.04675781 -0.04896484 39.04675781 -0.03515625 40.2421875 C-0.02355469 40.82226562 -0.01195313 41.40234375 0 42 C1.98 42.33 3.96 42.66 6 43 C6 44.32 6 45.64 6 47 C-1.16883117 47.47792208 -1.16883117 47.47792208 -4.5 45.5625 C-8.28673243 39.09349877 -5.43146609 29.88688097 -4 22.9375 C-3.80921875 21.97650391 -3.6184375 21.01550781 -3.421875 20.02539062 C-2.95551945 17.681954 -2.48145534 15.34037235 -2 13 C-3.98 13 -5.96 13 -8 13 C-7.67 11.68 -7.34 10.36 -7 9 C-5.02 9 -3.04 9 -1 9 C-1.020625 7.88625 -1.04125 6.7725 -1.0625 5.625 C-1 2 -1 2 0 0 Z " fill="#2F4993" transform="translate(2145,680)"/>
<path d="M0 0 C1.6953125 1.19140625 1.6953125 1.19140625 3 3 C3.97331878 9.0784712 3.56322237 14.85312325 0 20 C-3.71499122 22.47666082 -5.60907888 22.54886514 -10 22 C-12.80677997 19.10267874 -12.9928001 17.0755989 -13.375 13.0625 C-13.1870597 8.3192447 -11.35052016 5.02578023 -8.75 1.125 C-5.84639806 -0.74160125 -3.34109394 -0.35797435 0 0 Z " fill="#F9FAFC" transform="translate(1948,697)"/>
<path d="M0 0 C1.32 0 2.64 0 4 0 C3.67 2.97 3.34 5.94 3 9 C5.64 9 8.28 9 11 9 C11 10.32 11 11.64 11 13 C8.03 13 5.06 13 2 13 C1.95101563 13.65484375 1.90203125 14.3096875 1.8515625 14.984375 C1.34600741 21.15563369 0.52662867 27.18424474 -0.59765625 33.2734375 C-0.9845842 35.89553174 -1.07215335 38.354377 -1 41 C1.31 41.66 3.62 42.32 6 43 C6 44.32 6 45.64 6 47 C4.56416999 47.10836453 3.1259798 47.18576167 1.6875 47.25 C0.88699219 47.29640625 0.08648438 47.3428125 -0.73828125 47.390625 C-3 47 -3 47 -4.76953125 45.2734375 C-9.36453773 36.783616 -4.66977277 23.03466337 -3 14 C-4.32 13.67 -5.64 13.34 -7 13 C-7 11.68 -7 10.36 -7 9 C-5.02 9 -3.04 9 -1 9 C-0.67 6.03 -0.34 3.06 0 0 Z " fill="#2C4691" transform="translate(1537,680)"/>
<path d="M0 0 C-0.21196595 6.04102958 -1.27741847 9.07272479 -5.33203125 13.5546875 C-8.31785819 16.14193801 -10.55860488 16.95270767 -14.5 17.375 C-18 17 -18 17 -20.5 15.4375 C-22 13 -22 13 -22 9.4375 C-20.87107443 5.55681836 -20.39556125 4.95724212 -17 3 C-13.8359375 2.3046875 -13.8359375 2.3046875 -10.375 1.875 C-6.91601205 1.43193862 -3.3361743 0 0 0 Z " fill="#F5F6FA" transform="translate(2186,707)"/>
<path d="M0 0 C-0.21196595 6.04102958 -1.27741847 9.07272479 -5.33203125 13.5546875 C-8.31785819 16.14193801 -10.55860488 16.95270767 -14.5 17.375 C-18 17 -18 17 -20.5 15.4375 C-22 13 -22 13 -22 9.4375 C-20.87107443 5.55681836 -20.39556125 4.95724212 -17 3 C-13.8359375 2.3046875 -13.8359375 2.3046875 -10.375 1.875 C-6.91601205 1.43193862 -3.3361743 0 0 0 Z " fill="#F5F6FA" transform="translate(1578,707)"/>
<path d="M0 0 C0.50537432 5.30643041 -0.69344249 7.86680312 -4 12 C-7.08713044 15.31580676 -10.51197495 15.72106725 -14.87109375 16.05859375 C-17 16 -17 16 -19.5625 14.9375 C-21 13 -21 13 -21.5625 10.125 C-20.7851772 5.80654002 -19.55974276 4.56301478 -16 2 C-10.77230908 0.32122405 -5.48349982 -0.28860525 0 0 Z " fill="#F7F8FA" transform="translate(1232,708)"/>
<path d="M0 0 C1.65 0 3.3 0 5 0 C4.43509624 8.3007405 3.40881998 16.42730114 2 24.625 C1.82210938 25.69878906 1.64421875 26.77257812 1.4609375 27.87890625 C0.13389881 35.73220238 0.13389881 35.73220238 -1 38 C-2.32 38 -3.64 38 -5 38 C-4.49080682 25.1937914 -2.12198238 12.61539909 0 0 Z " fill="#344D95" transform="translate(1171,689)"/>
<path d="M0 0 C1.32 0 2.64 0 4 0 C4.41159276 7.98489954 2.87014977 15.66899635 1.5 23.5 C1.25850917 24.90875052 1.01761856 26.31760407 0.77734375 27.7265625 C0.19181634 31.15225803 -0.40183938 34.57648496 -1 38 C-2.65 38 -4.3 38 -6 38 C-5.40263366 30.08489594 -4.33917714 22.32157083 -3 14.5 C-2.82210937 13.43007813 -2.64421875 12.36015625 -2.4609375 11.2578125 C-1.13632015 3.40896046 -1.13632015 3.40896046 0 0 Z " fill="#334D95" transform="translate(2125,689)"/>
<path d="M0 0 C1.32 0 2.64 0 4 0 C3.40263366 7.91510406 2.33917714 15.67842917 1 23.5 C0.82210938 24.56992187 0.64421875 25.63984375 0.4609375 26.7421875 C-0.86367985 34.59103954 -0.86367985 34.59103954 -2 38 C-3.32 38 -4.64 38 -6 38 C-5.66021397 29.3014776 -4.42374359 20.82799167 -3 12.25 C-2.82178711 11.16589844 -2.64357422 10.08179688 -2.45996094 8.96484375 C-1.12811543 1.12811543 -1.12811543 1.12811543 0 0 Z " fill="#314B94" transform="translate(1517,689)"/>
<path d="M0 0 C-0.47960033 6.35470441 -0.47960033 6.35470441 -2.5625 8.9375 C-6.1843568 10.51625809 -9.06250675 10.25819628 -13 10 C-14 9 -14 9 -14.3125 6.625 C-14 4 -14 4 -12.375 2.25 C-8.31560122 0.11347432 -4.53330142 0 0 0 Z " fill="#F4F5F9" transform="translate(1358,710)"/>
<path d="M0 0 C-0.47960033 6.35470441 -0.47960033 6.35470441 -2.5625 8.9375 C-6.1443798 10.49883222 -9.10993102 10.19450345 -13 10 C-13.75 7.75 -13.75 7.75 -14 5 C-11.92508959 2.01212901 -10.53540236 1.13385059 -7 0.25 C-4 0 -4 0 0 0 Z " fill="#F4F6F9" transform="translate(1990,710)"/>
<path d="M0 0 C-0.47960033 6.35470441 -0.47960033 6.35470441 -2.5625 8.9375 C-6.1443798 10.49883222 -9.10993102 10.19450345 -13 10 C-13.75 7.75 -13.75 7.75 -14 5 C-11.92508959 2.01212901 -10.53540236 1.13385059 -7 0.25 C-4 0 -4 0 0 0 Z " fill="#F4F6F9" transform="translate(1796,710)"/>
<path d="M0 0 C1 3 1 3 -0.25 6.0625 C-2 9 -2 9 -5 11 C-7.72283905 11.31254378 -10.24442486 11.13333428 -13 11 C-14 10 -14 10 -14.0625 7.4375 C-14.041875 6.633125 -14.02125 5.82875 -14 5 C-9.37234081 2.45478745 -5.1103144 1.1454153 0 0 Z " fill="#F4F5F9" transform="translate(1716,709)"/>
<path d="M0 0 C0.51264032 3.58848221 0.13857753 4.80512535 -2 7.8125 C-6.05299408 10.76780819 -8.08131204 10.4918688 -13 10 C-14 9 -14 9 -14.3125 6.625 C-14 4 -14 4 -12.4375 2.25 C-8.45355941 0.20695355 -4.42311105 0 0 0 Z " fill="#F6F7FA" transform="translate(1426,710)"/>
<path d="M0 0 C1.15625 3.671875 1.15625 3.671875 -0.25 6.625 C-2 9 -2 9 -5 11 C-8.5625 11.25 -8.5625 11.25 -12 11 C-12.66 10.34 -13.32 9.68 -14 9 C-13.83412861 6.42899347 -13.24706446 5.26765316 -11.5 3.375 C-7.86436334 1.37539984 -4.05665429 0.7367855 0 0 Z " fill="#F5F6FA" transform="translate(1080,709)"/>
<path d="M0 0 C1.9375 1.3125 1.9375 1.3125 3 3 C3 4.32 3 5.64 3 7 C-2.28 7 -7.56 7 -13 7 C-10.04226422 -0.39433944 -7.87570752 -2.00472555 0 0 Z " fill="#F3F5F9" transform="translate(1906,697)"/>
<path d="M0 0 C2.3125 1.75 2.3125 1.75 4 4 C4 5.32 4 6.64 4 8 C-1.28 8 -6.56 8 -12 8 C-9.64997725 2.12494312 -6.70132044 -1.2028011 0 0 Z " fill="#F3F5F9" transform="translate(1000,696)"/>
<path d="M0 0 C1.65 0 3.3 0 5 0 C3.17778624 6.61242722 0.94776396 12.80520671 -2 19 C-3.32 18.67 -4.64 18.34 -6 18 C-4.02 12.06 -2.04 6.12 0 0 Z " fill="#2C4791" transform="translate(1594,720)"/>
<path d="M0 0 C1.65 0 3.3 0 5 0 C3.17778624 6.61242722 0.94776396 12.80520671 -2 19 C-3.32 19 -4.64 19 -6 19 C-4.12275039 12.62267685 -2.14328358 6.29304541 0 0 Z " fill="#2B4590" transform="translate(1249,720)"/>
<path d="M0 0 C-0.33 1.65 -0.66 3.3 -1 5 C-2.65 5 -4.3 5 -6 5 C-6.33 3.35 -6.66 1.7 -7 0 C-4.3333581 -1.33332095 -2.83319697 -0.67102033 0 0 Z " fill="#3A5298" transform="translate(1179,677)"/>
<path d="M0 0 C1.65 0.33 3.3 0.66 5 1 C4.67 2.65 4.34 4.3 4 6 C2.35 5.67 0.7 5.34 -1 5 C-0.67 3.35 -0.34 1.7 0 0 Z " fill="#26418E" transform="translate(2127,676)"/>
<path d="M0 0 C1.65 0.33 3.3 0.66 5 1 C4.67 2.65 4.34 4.3 4 6 C2.35 5.67 0.7 5.34 -1 5 C-0.67 3.35 -0.34 1.7 0 0 Z " fill="#25408E" transform="translate(1519,676)"/>
</svg>
