<?xml version="1.0" encoding="UTF-8"?>
<svg version="1.1" xmlns="http://www.w3.org/2000/svg" width="2047" height="729">
<path d="M0 0 C0.11450515 47.27965851 0.20257925 94.55930231 0.25532665 141.83907221 C0.26158 147.42396503 0.26805163 153.00885758 0.2746582 158.59375 C0.27596976 159.70557696 0.27728131 160.81740393 0.2786326 161.96292262 C0.3003747 179.95308361 0.33978967 197.94316452 0.38576398 215.93327804 C0.43256185 234.40000329 0.46030245 252.86668668 0.47044247 271.33346879 C0.47729471 282.72366753 0.49891785 294.11363988 0.53958233 305.50376891 C0.56606179 313.31997524 0.57398921 321.13606494 0.56750689 328.95231284 C0.5643121 333.45839532 0.56912501 337.96408286 0.59602737 342.47009468 C0.62052459 346.60364698 0.62148214 350.73654224 0.60449447 354.87012605 C0.60239784 356.35759263 0.60860066 357.84510177 0.62441591 359.33248575 C0.77303671 374.18565087 -2.85943854 386.75643011 -13 398 C-24.70686899 409.35682972 -37.99067005 413.32485338 -53.93359375 413.24050903 C-55.12057578 413.24221788 -56.30755781 413.24392673 -57.530509 413.24568737 C-60.8075486 413.24840272 -64.08442828 413.24218774 -67.361449 413.23213124 C-70.90190024 413.22346714 -74.44234448 413.22641899 -77.98280334 413.22793579 C-84.11104076 413.22898277 -90.23923548 413.22272572 -96.36746216 413.21146011 C-105.22776356 413.19518273 -114.08804439 413.18999482 -122.94835913 413.18748413 C-137.32479669 413.18311054 -151.7012115 413.16981055 -166.07763672 413.15087891 C-180.04020067 413.13251141 -194.00275843 413.11835916 -207.96533203 413.10986328 C-208.82647197 413.10933783 -209.6876119 413.10881239 -210.57484698 413.10827102 C-214.89507846 413.10566088 -219.21530998 413.10313348 -223.53554153 413.10064721 C-259.35704374 413.07992517 -295.1785201 413.04470879 -331 413 C-331.64431297 410.62753791 -332.28562923 408.25433115 -332.92529297 405.88061523 C-333.10605881 405.21621178 -333.28682465 404.55180832 -333.47306824 403.86727142 C-335.05427407 397.98412633 -336.20240811 392.08475344 -337.125 386.0625 C-337.28967773 384.99894287 -337.45435547 383.93538574 -337.62402344 382.83959961 C-344.99387386 333.39957829 -342.78046828 279.54464743 -318 235 C-317.42507813 233.9378125 -316.85015625 232.875625 -316.2578125 231.78125 C-304.53321494 210.81745344 -286.39097766 192.34332994 -268 177 C-267.08605469 176.20851563 -266.17210937 175.41703125 -265.23046875 174.6015625 C-257.85682824 168.23453052 -250.2242914 162.26815441 -242.45703125 156.390625 C-238.69132259 153.53839262 -234.9710217 150.63237053 -231.25830078 147.71166992 C-223.47792676 141.59923986 -215.56712814 135.74448073 -207.44287109 130.09814453 C-204.6616526 128.16324892 -201.88945718 126.2170018 -199.12963867 124.25170898 C-188.5113117 116.69225099 -177.73383363 109.39609289 -166.875 102.1875 C-165.14807386 101.03895706 -163.42118625 99.89035618 -161.69433594 98.74169922 C-142.93645917 86.27313459 -124.10663876 73.92932554 -105 62 C-104.20513184 61.5035498 -103.41026367 61.00709961 -102.59130859 60.49560547 C-5.58607456 0 -5.58607456 0 0 0 Z " fill="#3A81F5" transform="translate(503,312)"/>
<path d="M0 0 C0.0701676 18.48942205 0.1230261 36.97881697 0.15543652 55.46834469 C0.17088709 64.05389298 0.19194189 72.63935842 0.22631836 81.22485352 C0.25627625 88.71039991 0.27558816 96.19588628 0.28226548 103.68149096 C0.28616695 107.64287377 0.29529793 111.60408488 0.31719017 115.56541252 C0.33765647 119.29921335 0.34381348 123.03277285 0.33932304 126.76662445 C0.34053302 128.77953175 0.35662181 130.79241318 0.3732605 132.80525208 C0.341754 142.09216825 -0.475425 150.31106066 -7.05371094 157.33300781 C-11.15457297 160.84538688 -15.90608009 163.29596136 -20.625 165.875 C-22.96914172 167.19112287 -25.31161863 168.50987446 -27.65234375 169.83203125 C-28.25534805 170.17102951 -28.85835236 170.51002777 -29.47962952 170.85929871 C-36.13798271 174.61390122 -42.66591262 178.57648935 -49.1875 182.5625 C-50.3666039 183.28200526 -51.54572172 184.00148772 -52.72485352 184.72094727 C-55.03899946 186.13370393 -57.35222734 187.54795104 -59.66503906 188.96289062 C-62.84288224 190.90402704 -66.0256677 192.8367048 -69.2109375 194.765625 C-80.45031303 201.57481411 -91.6140188 208.48911597 -102.70263672 215.54101562 C-105.7855022 217.49884815 -108.87477041 219.4464501 -111.96411133 221.39404297 C-115.13726712 223.39512032 -118.3080856 225.39988095 -121.47851562 227.40527344 C-123.21386154 228.50280244 -124.94955889 229.59977592 -126.68554688 230.69628906 C-138.40008029 238.09951043 -150.02589949 245.61066348 -161.52587891 253.34277344 C-164.29643291 255.19855798 -167.07534754 257.04139263 -169.85546875 258.8828125 C-181.0224724 266.28505176 -192.09830089 273.78074418 -202.99658203 281.57324219 C-205.04187878 283.02982447 -207.09558989 284.47371023 -209.15234375 285.9140625 C-232.71691037 302.42374611 -255.86189652 319.61381123 -278 338 C-278.57685547 338.47775879 -279.15371094 338.95551758 -279.74804688 339.44775391 C-286.74771807 345.25876387 -293.54639784 351.249743 -300.21484375 357.4375 C-302.71105295 359.7341525 -305.2490421 361.96670399 -307.8125 364.1875 C-311.23461321 367.2164081 -314.26198074 370.40414226 -317.203125 373.8984375 C-318.44694611 375.35316741 -319.73165792 376.77354673 -321.046875 378.1640625 C-351.18033547 410.1140791 -365.89237576 455.66420168 -367 499 C-367.03867187 500.0216626 -367.03867187 500.0216626 -367.078125 501.06396484 C-367.91928622 524.72688141 -364.99034305 548.50184295 -359.58544922 571.50683594 C-358.68769033 575.32998595 -357.84735977 579.16540417 -357 583 C-357.66 583 -358.32 583 -359 583 C-360.12231445 581.51318359 -360.12231445 581.51318359 -361.36328125 579.3984375 C-362.06505493 578.21556152 -362.06505493 578.21556152 -362.78100586 577.00878906 C-363.53909546 575.70506348 -363.53909546 575.70506348 -364.3125 574.375 C-364.84302979 573.47491211 -365.37355957 572.57482422 -365.92016602 571.64746094 C-367.04814509 569.73305412 -368.17330802 567.8169857 -369.29589844 565.89941406 C-370.92409515 563.12914699 -372.5712544 560.37132124 -374.2265625 557.6171875 C-412.14588472 494.37404134 -434.68352799 425.57544826 -416.45703125 351.62890625 C-407.79497257 318.14759409 -392.68760844 286.86050862 -369.15234375 261.33984375 C-367.03283386 259.03569416 -364.98564658 256.68004566 -362.9375 254.3125 C-359.90744779 250.90145891 -356.7351156 247.88051847 -353.25390625 244.9375 C-351.02855197 243.02454381 -348.87184666 241.04807313 -346.72241211 239.05053711 C-340.6799443 233.43864439 -334.44216088 228.15201991 -328 223 C-326.89272448 222.10088159 -325.78597865 221.20111057 -324.6796875 220.30078125 C-315.10903657 212.54189638 -305.28271326 205.14513472 -295.39990234 197.79003906 C-293.19499033 196.14543938 -290.99621138 194.49316369 -288.80078125 192.8359375 C-271.50792898 179.78424569 -253.82964529 167.30593475 -236 155 C-235.43518921 154.60986725 -234.87037842 154.2197345 -234.28845215 153.81777954 C-223.33656378 146.25636976 -212.32997698 138.77674743 -201.30029297 131.3293457 C-199.43260009 130.06755389 -197.56573804 128.80453141 -195.69970703 127.5402832 C-186.14456634 121.06677156 -176.576149 114.65313828 -166.75341797 108.59165955 C-159.2065348 103.9222901 -151.86066976 98.95566411 -144.5 94 C-136.47209979 88.59511454 -128.43884824 83.22896096 -120.203125 78.14453125 C-111.61809084 72.83486419 -103.27609319 67.18278521 -94.92929077 61.50836182 C-77.67491491 49.78218618 -60.31541439 38.22389952 -42.87368774 26.77856445 C-31.4356025 19.27276554 -20.02030862 11.74985103 -8.84448242 3.85595703 C-7.71296753 3.06680908 -7.71296753 3.06680908 -6.55859375 2.26171875 C-5.61971313 1.59595825 -5.61971313 1.59595825 -4.66186523 0.91674805 C-3 0 -3 0 0 0 Z " fill="#3A81F5" transform="translate(423,0)"/>
<path d="M0 0 C0.07009354 19.19315429 0.12298987 38.38628259 0.15543652 57.57953835 C0.17090276 66.4913829 0.19198764 75.40314791 0.22631836 84.31494141 C0.25622814 92.08282537 0.27557677 99.85065172 0.28226548 107.61859167 C0.28617507 111.73134136 0.29535806 115.84392623 0.31719017 119.95662308 C0.3375803 123.82912343 0.34382873 127.70139134 0.33932304 131.57394028 C0.34014712 132.99370843 0.34609785 134.41348451 0.35761642 135.83320618 C0.37259823 137.77535347 0.36715312 139.71762599 0.36076355 141.65982056 C0.36352893 142.74569269 0.36629431 143.83156483 0.36914349 144.95034218 C-0.36966659 151.05397945 -3.41295865 155.10251389 -8 159 C-11.52093771 161.35243374 -15.15743146 163.48869375 -18.8125 165.625 C-20.48172259 166.61413227 -22.15094213 167.60326971 -23.8200531 168.59259033 C-26.24108818 170.02507689 -28.6661837 171.45062311 -31.09106445 172.87658691 C-37.0884309 176.40605126 -43.07557333 179.952866 -49.0625 183.5 C-50.08129242 184.10322083 -50.08129242 184.10322083 -51.1206665 184.71862793 C-62.95441186 191.72983832 -74.64263851 198.94789247 -86.27539062 206.28857422 C-89.78853423 208.49530689 -93.31978414 210.6718366 -96.85302734 212.84619141 C-117.33616211 225.45804408 -137.47347885 238.58540167 -157.5625 251.8125 C-158.97500534 252.74171265 -158.97500534 252.74171265 -160.41604614 253.68969727 C-172.0322307 261.33501804 -183.58016942 269.06416402 -195 277 C-195.93110596 277.64525635 -196.86221191 278.2905127 -197.8215332 278.95532227 C-235.44497804 305.08199525 -272.75311926 332.38258805 -306 364 C-306.5995752 364.56557617 -307.19915039 365.13115234 -307.81689453 365.71386719 C-345.9541825 401.89412318 -364.7971661 450.58695942 -366.18359375 502.83203125 C-366.62966275 530.43002875 -362.74181301 557.28377291 -356 584 C-359.16624412 581.05904465 -361.37950552 578.05333082 -363.6171875 574.36328125 C-364.64114624 572.67960449 -364.64114624 572.67960449 -365.68579102 570.96191406 C-366.41605005 569.74575642 -367.14577371 568.52927717 -367.875 567.3125 C-368.24760956 566.69451538 -368.62021912 566.07653076 -369.00411987 565.43981934 C-379.33822226 548.29726661 -389.44171277 530.95891304 -398.08789062 512.89355469 C-399.05720655 510.88123822 -400.05134497 508.8822776 -401.046875 506.8828125 C-426.51298226 455.1512402 -428.34296681 389.30162843 -410.71875 334.89453125 C-397.2796361 295.56769027 -373.2727733 260.59528187 -340.42578125 234.92578125 C-337.90564474 232.92509316 -335.55229259 230.8064161 -333.1875 228.625 C-327.68671627 223.62507256 -321.86391009 219.08133618 -315.98632812 214.54052734 C-313.8945743 212.91823548 -311.81374211 211.28266452 -309.734375 209.64453125 C-300.82414722 202.64076892 -291.78071537 195.87352562 -282.5625 189.28125 C-278.65768616 186.48537641 -274.79642121 183.63467467 -270.94262695 180.76904297 C-263.06190786 174.91165344 -255.08209487 169.24284154 -246.95385742 163.73413086 C-242.69997545 160.85087181 -238.47837942 157.93405421 -234.30078125 154.94140625 C-221.7741671 145.97204561 -208.88431903 137.53086328 -196.0476532 129.01498413 C-192.03126105 126.3504853 -188.01922791 123.67960447 -184.01097107 121.00288391 C-177.80356506 116.85791881 -171.57895043 112.74290591 -165.3125 108.6875 C-163.80855643 107.71229713 -162.30465268 106.73703286 -160.80078125 105.76171875 C-159.94363525 105.20597168 -159.08648926 104.65022461 -158.20336914 104.07763672 C-157.14625732 103.3920166 -156.08914551 102.70639648 -155 102 C-154.31445038 101.55537415 -153.62890076 101.11074829 -152.9225769 100.65264893 C-140.06572023 92.31161835 -127.23624613 83.92993228 -114.4375 75.5 C-113.50035156 74.88294189 -112.56320312 74.26588379 -111.59765625 73.63012695 C-96.61852238 63.76174287 -81.72313193 53.7749076 -66.86935425 43.71908569 C-46.61469522 30.0109031 -26.19211951 16.56032191 -5.74182129 3.14631653 C-0.96101165 0 -0.96101165 0 0 0 Z " fill="#3A81F5" transform="translate(503,124)"/>
<path d="M0 0 C13.06681229 -0.06998859 26.13357885 -0.12305661 39.2005415 -0.15543652 C45.27023704 -0.17098934 51.33980289 -0.19203428 57.40942383 -0.22631836 C63.28390563 -0.25928667 69.15826391 -0.27693072 75.03283119 -0.28463173 C77.25673678 -0.29010883 79.48063681 -0.30080054 81.70448875 -0.31719017 C99.58192144 -0.44351884 117.93083825 0.05109398 134.9375 6.1875 C135.80173584 6.49010742 136.66597168 6.79271484 137.55639648 7.10449219 C150.80360969 11.92255726 161.13564969 19.00954294 171 29 C171.825 29.82628906 172.65 30.65257812 173.5 31.50390625 C188.92639421 47.73810151 196.23386543 70.84594201 197 93 C197.0515625 94.01835937 197.103125 95.03671875 197.15625 96.0859375 C198.31560394 139.07864618 184.28897185 183.60784607 154.74047852 215.30688477 C139.24413048 231.30889536 119.4302223 242.67218836 98.25 249.25 C97.14579712 249.60118896 97.14579712 249.60118896 96.01928711 249.95947266 C78.51249981 255.107985 60.95851693 255.41570188 42.86328125 255.29296875 C40.40179201 255.28735895 37.94029936 255.28309542 35.47880554 255.28010559 C29.06576954 255.26876568 22.6529442 255.23939445 16.23999023 255.20599365 C9.66978808 255.17505607 3.0995512 255.16155011 -3.47070312 255.14648438 C-16.31389216 255.11451231 -29.15693145 255.06363664 -42 255 C-41.43475517 247.88932184 -40.60236173 240.89294567 -39.41261292 233.86094666 C-39.25391108 232.90305239 -39.09520924 231.94515812 -38.93169826 230.95823675 C-38.40434775 227.78132041 -37.87125602 224.60539598 -37.33813477 221.42944336 C-36.95665745 219.13871376 -36.57553277 216.84792541 -36.19473267 214.55708313 C-35.16325929 208.35829348 -34.12675205 202.16035522 -33.08923459 195.96257472 C-32.11270127 190.12483869 -31.13973231 184.28650948 -30.1666547 178.4481966 C-28.23834839 166.87954383 -26.30619604 155.31153678 -24.37182617 143.74389648 C-22.49800166 132.53829635 -20.6267881 121.33226448 -18.75854492 110.12573242 C-18.64344562 109.43531945 -18.52834633 108.74490647 -18.40975917 108.03357189 C-18.29485257 107.34431126 -18.17994597 106.65505063 -18.06155735 105.94490331 C-17.83015813 104.55687341 -17.59875778 103.1688437 -17.3673563 101.78081417 C-17.25321647 101.09616071 -17.13907664 100.41150725 -17.02147803 99.70610672 C-15.12852514 88.35218233 -13.2328103 76.99871892 -11.33709598 65.64525533 C-10.69227208 61.7825304 -10.04786589 57.91973597 -9.40353584 54.05692863 C-8.38977619 47.98028687 -7.37432396 41.90393023 -6.35757828 35.8277874 C-5.98536152 33.60190451 -5.61368386 31.37593138 -5.24259377 29.14986038 C-4.7346857 26.10367715 -4.22477794 23.05783504 -3.71437073 20.0120697 C-3.49651196 18.70129445 -3.49651196 18.70129445 -3.274252 17.36403888 C-2.29722179 11.55144395 -1.18652997 5.77339099 0 0 Z M47 47 C42.81775292 70.43139482 38.82203501 93.89181613 34.94140625 117.375 C34.83231163 118.03517372 34.723217 118.69534744 34.61081648 119.37552643 C33.26734851 127.50735863 31.92715927 135.63972978 30.58817136 143.77230072 C29.43123122 150.79866829 28.27197102 157.82465257 27.11258233 164.85061646 C24.73926859 179.23334025 22.36865903 193.61650887 20 208 C26.41878445 208.07697584 32.83744704 208.1289818 39.2565918 208.16479492 C41.43372037 208.17974751 43.61081954 208.20011697 45.7878418 208.22631836 C71.66774194 208.52966814 94.01558244 204.86393211 113.66015625 186.4296875 C135.56765786 163.68099635 143.45494472 128.48546132 143.1484375 97.7734375 C142.5581874 82.76865853 137.88761289 69.25323888 126.8125 58.8125 C114.32364054 48.71162026 97.62028927 46.81962634 82.15625 46.90234375 C80.64170227 46.90446617 80.64170227 46.90446617 79.09655762 46.90663147 C75.89767389 46.91219219 72.69886228 46.9247373 69.5 46.9375 C67.32031352 46.94252008 65.14062593 46.9470821 62.9609375 46.95117188 C57.64060074 46.96214872 52.32030552 46.97884732 47 47 Z " fill="#3A81F5" transform="translate(721,208)"/>
<path d="M0 0 C23.43 0 46.86 0 71 0 C79.60421337 46.01950483 87.87567846 92.0963068 96.10852933 138.18345702 C96.30635723 139.29088739 96.50418513 140.39831777 96.70800781 141.53930664 C96.90621651 142.64887108 97.10442522 143.75843552 97.30864024 144.90162313 C98.94006135 154.03214103 100.57606478 163.16183398 102.21291459 172.29137999 C103.80851713 181.19213981 105.40081605 190.09348655 106.99054992 198.99529642 C107.93291062 204.271726 108.87662878 209.54790377 109.82379532 214.82347298 C110.70595557 219.73751633 111.58401983 224.65227373 112.45888329 229.56762123 C112.7798875 231.36706436 113.10237323 233.16624393 113.4264431 234.96513748 C113.86781364 237.416459 114.3038544 239.86867067 114.73855591 242.32118225 C114.9325989 243.38802304 114.9325989 243.38802304 115.13056195 244.47641617 C115.7537601 248.02656454 116.14071748 251.39448523 116 255 C108.45501767 255.02312851 100.91003899 255.04091769 93.36502934 255.05181217 C89.86191115 255.05703989 86.35881715 255.0641355 82.85571289 255.07543945 C78.83219159 255.08834206 74.80869586 255.09322912 70.78515625 255.09765625 C69.52163834 255.10281754 68.25812042 255.10797882 66.95631409 255.11329651 C65.795186 255.11337204 64.63405792 255.11344757 63.43774414 255.11352539 C62.40960098 255.115746 61.38145782 255.11796661 60.32215881 255.12025452 C58 255 58 255 57 254 C56.67238642 252.44213465 56.40047367 250.87249452 56.15209961 249.30004883 C55.99200912 248.29843216 55.83191864 247.29681549 55.66697693 246.2648468 C55.49714798 245.17326767 55.32731903 244.08168854 55.15234375 242.95703125 C54.97619034 241.84067795 54.80003693 240.72432465 54.61854553 239.57414246 C54.24584918 237.20461561 53.87526147 234.8347563 53.5065918 232.46459961 C52.94248544 228.84449365 52.36917472 225.22593043 51.79492188 221.60742188 C51.43433579 219.3073794 51.07429227 217.00725178 50.71484375 214.70703125 C50.54299057 213.62557327 50.37113739 212.5441153 50.19407654 211.42988586 C50.03713821 210.41250839 49.88019989 209.39513092 49.71850586 208.34692383 C49.57940292 207.45725418 49.44029999 206.56758453 49.29698181 205.6509552 C48.97575061 202.78354214 49 199.88535043 49 197 C18.64 197 -11.72 197 -43 197 C-43.99 199.97 -43.99 199.97 -45 203 C-45.92359702 205.06734694 -46.88309102 207.11889745 -47.87109375 209.15625 C-48.44061768 210.33413086 -49.0101416 211.51201172 -49.59692383 212.72558594 C-50.21023733 213.98382726 -50.82376704 215.24196322 -51.4375 216.5 C-52.0648401 217.79192284 -52.69203605 219.08391569 -53.3190918 220.37597656 C-57.27746566 228.5200704 -61.27437702 236.64513904 -65.3125 244.75 C-65.77390381 245.67748047 -66.23530762 246.60496094 -66.71069336 247.56054688 C-67.13229736 248.40166016 -67.55390137 249.24277344 -67.98828125 250.109375 C-68.35477783 250.84124023 -68.72127441 251.57310547 -69.09887695 252.32714844 C-70 254 -70 254 -71 255 C-72.81055025 255.09376053 -74.62477201 255.1174411 -76.43774414 255.11352539 C-78.17943626 255.11341209 -78.17943626 255.11341209 -79.95631409 255.11329651 C-81.85159096 255.10555458 -81.85159096 255.10555458 -83.78515625 255.09765625 C-85.07111191 255.0962413 -86.35706757 255.09482635 -87.68199158 255.09336853 C-91.10643443 255.08954418 -94.53083509 255.07971462 -97.95526123 255.06866455 C-101.44738189 255.05844864 -104.93950934 255.05387053 -108.43164062 255.04882812 C-115.28777778 255.03809227 -122.14388687 255.02101684 -129 255 C-127.63160197 250.79104471 -126.08069642 246.91499104 -124.09375 242.95703125 C-123.52003662 241.81089355 -122.94632324 240.66475586 -122.35522461 239.48388672 C-121.73701823 238.25998918 -121.11860538 237.03619592 -120.5 235.8125 C-119.86126649 234.54190131 -119.22267733 233.27123005 -118.58422852 232.00048828 C-114.72850773 224.34220378 -110.78981273 216.73136422 -106.75976562 209.16333008 C-102.63460767 201.38505968 -98.73520411 193.4963349 -94.81616211 185.61279297 C-91.24324285 178.44173014 -87.57291962 171.33371457 -83.80859375 164.26171875 C-79.67036974 156.45098726 -75.75311951 148.53241145 -71.81860352 140.61767578 C-68.22156879 133.39818934 -64.5267965 126.24152795 -60.73828125 119.12109375 C-57.38784429 112.79849496 -54.18377982 106.40789894 -51 100 C-47.43695781 92.82877097 -43.82381523 85.69431233 -40.0625 78.625 C-36.08309564 71.14423661 -32.27179796 63.58741582 -28.5 56 C-24.7278902 48.41195687 -20.90972126 40.8603736 -16.9375 33.375 C-11.12399243 22.33669448 -5.57926624 11.15853249 0 0 Z M25 59 C24.75182526 59.50887756 24.50365051 60.01775513 24.24795532 60.54205322 C21.04299051 67.11268204 17.83483477 73.68174893 14.625 80.25 C14.10778381 81.30844116 13.59056763 82.36688232 13.05767822 83.45739746 C5.35129741 99.22097795 -2.42389464 114.94767687 -10.32568359 130.61425781 C-17.44191886 142.38291214 -17.44191886 142.38291214 -21 155 C-0.21 155 20.58 155 42 155 C40.2093012 141.86820881 38.40441084 128.7658892 36.3359375 115.6796875 C36.09585596 114.15131831 35.85592008 112.62292622 35.61611938 111.09451294 C35.12180197 107.94706046 34.62596496 104.79985273 34.12890625 101.65283203 C33.49289503 97.62541522 32.86060273 93.59742445 32.22936058 89.56925774 C31.73828567 86.43782496 31.24545245 83.30667093 30.75206375 80.17560196 C30.5179226 78.68854888 30.28429064 77.20141552 30.05118942 75.71419907 C29.72779004 73.65276956 29.40205679 71.5917222 29.07568359 69.53076172 C28.891539 68.36245819 28.70739441 67.19415466 28.51766968 65.990448 C28.10678192 63.61685238 27.63136317 61.32229986 27 59 C26.34 59 25.68 59 25 59 Z " fill="#3A81F5" transform="translate(1487,208)"/>
<path d="M0 0 C23.1 0 46.2 0 70 0 C73.44607867 14.93300756 73.44607867 14.93300756 74.72505188 22.18630981 C74.8744732 23.01801787 75.02389451 23.84972593 75.17784375 24.70663726 C75.66893948 27.44466895 76.15541411 30.18349947 76.6418457 32.92236328 C76.99680301 34.90692526 77.35204588 36.89143618 77.70755005 38.87590027 C78.66733719 44.2383505 79.62306123 49.6015175 80.57796884 54.9648385 C81.5859026 60.62229131 82.59740403 66.27910631 83.60844421 71.93600464 C85.3094467 81.4562927 87.00797337 90.97701975 88.70483398 100.49804688 C90.64992186 111.41179618 92.59805153 122.32499872 94.54806262 133.23786938 C96.6417587 144.9548753 98.73355623 156.67221953 100.82461905 168.38969564 C101.41788677 171.71358227 102.01144933 175.03741612 102.6050663 178.36124039 C107.16391004 203.89219908 111.65053844 229.432423 116 255 C96.53 255 77.06 255 57 255 C55.6078125 246.770625 55.6078125 246.770625 54.1875 238.375 C53.90156982 236.69583496 53.61563965 235.01666992 53.32104492 233.28662109 C51.29323118 221.20552811 49.65753386 209.15524832 48 197 C17.97 197.33 -12.06 197.66 -43 198 C-51.53593843 215.00320207 -51.53593843 215.00320207 -59.8125 232.125 C-63.44681743 239.80173728 -67.20011498 247.40022997 -71 255 C-90.47 255 -109.94 255 -130 255 C-119.48334813 232.7981794 -119.48334813 232.7981794 -115.0625 224 C-114.55581787 222.98856934 -114.04913574 221.97713867 -113.52709961 220.93505859 C-110.05582434 214.03166392 -106.48781002 207.18519322 -102.85961914 200.36328125 C-99.29458308 193.63066009 -95.89109921 186.82158973 -92.5 180 C-88.37196378 171.69603157 -84.16575778 163.44747282 -79.80859375 155.26171875 C-75.67036974 147.45098726 -71.75311951 139.53241145 -67.81860352 131.61767578 C-64.22156879 124.39818934 -60.5267965 117.24152795 -56.73828125 110.12109375 C-53.38784429 103.79849496 -50.18377982 97.40789894 -47 91 C-43.43695781 83.82877097 -39.82381523 76.69431233 -36.0625 69.625 C-32.0830924 62.14423052 -28.27200817 54.58731605 -24.5 47 C-19.15216432 36.24889853 -13.65277744 25.59346316 -8 15 C-5.36 10.05 -2.72 5.1 0 0 Z M25 59 C18.20579692 71.72916302 11.71369587 84.57104885 5.4375 97.5625 C3.70434807 101.13924981 1.96823602 104.71455294 0.23046875 108.2890625 C-0.20288788 109.18058517 -0.63624451 110.07210785 -1.08273315 110.99064636 C-4.04071261 117.06316042 -7.04118279 123.11308526 -10.07421875 129.1484375 C-10.47310806 129.94243454 -10.87199738 130.73643158 -11.28297424 131.55448914 C-13.17257749 135.31180777 -15.06839833 139.06587162 -16.97094727 142.81665039 C-17.64215411 144.14726576 -18.31330035 145.4779117 -18.984375 146.80859375 C-19.56928711 147.96157959 -20.15419922 149.11456543 -20.75683594 150.30249023 C-22.13951576 152.80770036 -22.13951576 152.80770036 -22 155 C-1.21 155 19.58 155 41 155 C40.41198138 147.94377658 39.83342105 141.09801934 38.72485352 134.14208984 C38.60112366 133.34375732 38.4773938 132.5454248 38.34991455 131.72290039 C37.94744179 129.13484731 37.53859718 126.54785701 37.12890625 123.9609375 C36.84351992 122.14444191 36.55827973 120.32792335 36.2731781 118.51138306 C35.67860174 114.7305661 35.08051744 110.95032349 34.48022461 107.17041016 C33.71057148 102.32059164 32.95256449 97.46902952 32.19741917 92.61693382 C31.61367826 88.87752376 31.02250632 85.1393171 30.42918205 81.40141678 C30.14627293 79.61161087 29.8660141 77.82138398 29.58844185 76.03074265 C29.20156729 73.54051238 28.80440974 71.05213675 28.40454102 68.56396484 C28.29174301 67.82324738 28.17894501 67.08252991 28.06272888 66.31936646 C27.44971506 62.23101482 27.44971506 62.23101482 25 59 Z " fill="#3A81F5" transform="translate(1921,208)"/>
<path d="M0 0 C1.10195206 -0.0092601 1.10195206 -0.0092601 2.22616577 -0.01870728 C25.11295095 -0.14231949 47.92107673 4.94868214 64.96875 21.16015625 C66.09796875 22.28744141 66.09796875 22.28744141 67.25 23.4375 C67.8996875 24.07558594 68.549375 24.71367187 69.21875 25.37109375 C81.46564899 38.28942361 83.73090162 54.40072783 83.453125 71.4453125 C83.25 75.4375 83.25 75.4375 82.25 78.4375 C65.09 78.4375 47.93 78.4375 30.25 78.4375 C29.26 73.4875 28.27 68.5375 27.25 63.4375 C25.22411794 60.13443142 23.87032681 58.03088258 21.25 55.4375 C20.528125 54.695 19.80625 53.9525 19.0625 53.1875 C7.04847675 45.71210775 -7.97979154 45.05302198 -21.62890625 47.66015625 C-32.83018454 50.44996148 -42.77431448 54.64314157 -49.21875 64.73828125 C-52.32250912 71.15641172 -53.62622891 77.20646577 -51.625 84.125 C-48.9231437 91.18859742 -43.30535537 95.13446606 -36.75 98.4375 C-26.9532263 102.14781957 -16.90558855 104.77533714 -6.74475098 107.26000977 C20.4394051 113.95072108 47.4247713 121.39570553 63.25 146.4375 C71.44748887 163.62891624 71.03008094 182.57139167 64.9609375 200.39453125 C60.3951176 212.85773156 53.53962531 222.99458054 44.25 232.4375 C43.48945312 233.2109375 42.72890625 233.984375 41.9453125 234.78125 C35.42682636 241.02189903 28.19736891 245.31898878 20.25 249.4375 C19.34507812 249.91058594 18.44015625 250.38367188 17.5078125 250.87109375 C-14.3260248 266.40097486 -56.37846381 267.05594923 -89.61767578 256.19677734 C-98.93836443 252.87786943 -107.35129841 248.02234441 -114.75 241.4375 C-115.37390625 240.89480469 -115.9978125 240.35210937 -116.640625 239.79296875 C-126.71008122 230.44588656 -133.13738099 216.10342007 -133.92431641 202.40258789 C-133.9815216 199.09936077 -133.97401314 195.80347844 -133.9375 192.5 C-133.93685547 191.36498047 -133.93621094 190.22996094 -133.93554688 189.06054688 C-133.8907804 180.7190608 -133.8907804 180.7190608 -132.75 178.4375 C-115.26 178.4375 -97.77 178.4375 -79.75 178.4375 C-79.255 185.3675 -79.255 185.3675 -78.75 192.4375 C-75.4269496 201.19826923 -71.13005143 206.90532421 -62.5546875 210.94140625 C-46.19970241 217.47967478 -26.96827843 217.68663584 -10.50390625 211.1484375 C-0.47275172 206.4647274 6.8066191 200.75453463 11.25 190.4375 C12.97312717 184.77106257 13.16453179 178.83747343 10.875 173.3125 C4.8858534 162.81584237 -8.84816686 159.03284043 -19.77807617 156.00952148 C-26.53920962 154.19608249 -33.32202633 152.46631406 -40.10644531 150.74243164 C-64.36231887 144.55458647 -91.28984287 136.91759252 -105.1640625 114.11328125 C-112.84451562 99.12400983 -112.34148957 82.4341843 -107.75 66.4375 C-99.51180227 42.28740859 -82.40578841 24.64527338 -59.8125 13.1875 C-52.64371135 9.6919609 -45.41555564 6.68361171 -37.75 4.4375 C-37.09273926 4.24140137 -36.43547852 4.04530273 -35.75830078 3.84326172 C-23.94956675 0.4822932 -12.19144704 0.04339167 0 0 Z " fill="#3A81F5" transform="translate(1285.75,204.5625)"/>
<path d="M0 0 C1.90119803 0.00138269 1.90119803 0.00138269 3.8408041 0.00279331 C4.89564225 0.00151167 4.89564225 0.00151167 5.97179025 0.00020415 C8.34566959 -0.0014527 10.71947941 0.00407402 13.09335232 0.00952244 C14.78805954 0.00980429 16.48276688 0.00964661 18.17747402 0.00907993 C22.79298069 0.00879189 27.4084616 0.01468974 32.02396226 0.02165389 C36.84196707 0.02788627 41.6599724 0.02849113 46.47798061 0.0296793 C55.6081894 0.03279296 64.73838628 0.04100681 73.86858982 0.05102879 C84.26019119 0.06218885 94.65179311 0.06770011 105.04339898 0.07272422 C126.42586079 0.0831894 147.80831186 0.1007895 169.19076443 0.12304783 C167.59215936 15.27400632 164.78710952 30.06424629 162.19076443 45.12304783 C123.25076443 45.12304783 84.31076443 45.12304783 44.19076443 45.12304783 C43.20076443 52.05304783 42.21076443 58.98304783 41.19076443 66.12304783 C40.29468145 71.72691001 39.39629471 77.3272283 38.45590115 82.9233408 C38.05521313 85.31091984 37.65993755 87.69935802 37.26498318 90.08789158 C37.00878584 91.62310011 36.75228791 93.15825851 36.49545193 94.69336033 C36.3787817 95.39945438 36.26211147 96.10554844 36.14190578 96.83303928 C35.65767555 99.6969304 35.11126369 102.36155005 34.19076443 105.12304783 C70.16076443 105.12304783 106.13076443 105.12304783 143.19076443 105.12304783 C139.68542906 129.66039539 139.68542906 129.66039539 138.06576443 138.87304783 C137.89689724 139.86691502 137.72803005 140.8607822 137.55404568 141.88476658 C137.39033474 142.82449314 137.2266238 143.7642197 137.05795193 144.73242283 C136.91470486 145.55710056 136.77145779 146.3817783 136.6238699 147.23144627 C136.19076443 149.12304783 136.19076443 149.12304783 135.19076443 150.12304783 C133.77397532 150.21855481 132.35245201 150.24493266 130.93244839 150.24330235 C129.5546722 150.24536434 129.5546722 150.24536434 128.14906216 150.24746799 C126.62560932 150.24207508 126.62560932 150.24207508 125.07137966 150.23657322 C124.00809444 150.23671925 122.94480923 150.23686527 121.84930325 150.23701572 C118.31596785 150.23631608 114.78268442 150.22852126 111.24935818 150.22070408 C108.80698074 150.21884008 106.36460294 150.21741609 103.922225 150.21641636 C97.47941978 150.21258972 91.03663694 150.2027582 84.5938406 150.19171238 C78.02524016 150.18150139 71.45663613 150.17691941 64.88803005 150.17187595 C51.98893165 150.16113606 39.0898499 150.1440579 26.19076443 150.12304783 C25.86076443 154.08304783 25.53076443 158.04304783 25.19076443 162.12304783 C22.55076443 177.96304783 19.91076443 193.80304783 17.19076443 210.12304783 C56.13076443 210.12304783 95.07076443 210.12304783 135.19076443 210.12304783 C129.19076443 248.12304783 129.19076443 248.12304783 127.19076443 255.12304783 C70.10076443 255.12304783 13.01076443 255.12304783 -45.80923557 255.12304783 C-34.93423557 189.43554783 -34.93423557 189.43554783 -31.36807346 167.90356541 C-30.36007762 161.81658683 -29.35212433 155.72960125 -28.34439182 149.64257908 C-28.2114375 148.83951084 -28.07848319 148.03644261 -27.94149995 147.20903897 C-24.35688777 125.55636969 -20.78160826 103.9022033 -17.22565866 82.24480766 C-16.47358854 77.66436142 -15.7208873 73.08401931 -14.96780491 68.50373936 C-14.76232407 67.25396525 -14.55684322 66.00419115 -14.34513569 64.7165451 C-13.94051774 62.25566816 -13.53587796 59.79479481 -13.1312151 57.33392525 C-11.96394397 50.23323245 -10.80034761 43.13194901 -9.63931656 36.03023338 C-8.9279916 31.68425559 -8.21341858 27.33881667 -7.49791241 22.99352551 C-7.16978639 20.99632695 -6.84308925 18.99889304 -6.51791286 17.00121212 C-6.0803636 14.31399131 -5.63795161 11.6276171 -5.19424534 8.9414072 C-5.06717764 8.15324273 -4.94010994 7.36507826 -4.8091917 6.55303001 C-3.74449604 0.16401334 -3.74449604 0.16401334 0 0 Z " fill="#3A81F5" transform="translate(978.8092355728149,207.87695217132568)"/>
<path d="M0 0 C69.3 0 138.6 0 210 0 C208.8740681 13.51118275 208.8740681 13.51118275 207.84375 19.62890625 C207.62589844 20.93021484 207.40804688 22.23152344 207.18359375 23.57226562 C207.01512939 24.5551355 207.01512939 24.5551355 206.84326172 25.55786133 C206.49522593 27.59038041 206.15529508 29.62414082 205.81640625 31.65820312 C204.1409337 41.5771989 204.1409337 41.5771989 203 45 C177.26 45 151.52 45 125 45 C124.34 50.28 123.68 55.56 123 61 C122.53914104 64.08876876 122.06765331 67.16573877 121.55137634 70.24436951 C121.41969938 71.04546034 121.28802242 71.84655118 121.15235525 72.6719175 C120.72164105 75.28755576 120.2865256 77.9024399 119.85131836 80.51733398 C119.53712074 82.41948251 119.2231891 84.32167499 118.90950012 86.22390747 C118.06545031 91.33699679 117.21742966 96.44941968 116.36841273 101.56168628 C115.65877743 105.83694274 114.95111569 110.11252493 114.24343878 114.38810593 C112.57588888 124.46274644 110.90509217 134.5368447 109.23217773 144.6105957 C107.50545791 155.00867234 105.78405726 165.40761977 104.06524557 175.8070063 C102.58703902 184.74958486 101.10570584 193.69164152 99.62180239 202.63327652 C98.7363859 207.96872681 97.85214745 213.30436552 96.97086906 218.64050102 C96.14465624 223.64230943 95.31455223 228.64345626 94.48136711 233.64410782 C94.17559109 235.48339355 93.8712146 237.32291254 93.56830215 239.16267204 C93.15647889 241.6625476 92.73972485 244.16155037 92.32164001 246.66038513 C92.14129012 247.76607453 92.14129012 247.76607453 91.95729679 248.89410108 C91.11414523 253.88585477 91.11414523 253.88585477 90 255 C88.31198015 255.09353163 86.62004793 255.11744791 84.92944336 255.11352539 C83.84839828 255.11344986 82.76735321 255.11337433 81.65354919 255.11329651 C79.889515 255.10555458 79.889515 255.10555458 78.08984375 255.09765625 C76.89267227 255.0962413 75.69550079 255.09482635 74.46205139 255.09336853 C70.62050934 255.08774979 66.77902457 255.07519411 62.9375 255.0625 C60.34049563 255.05748741 57.74349035 255.05292409 55.14648438 255.04882812 C48.764302 255.03862316 42.38215823 255.01985737 36 255 C39.95879363 229.68674953 44.04079337 204.395997 48.22944665 179.11980844 C48.83910306 175.43998856 49.44792159 171.76003021 50.05678338 168.08007878 C51.49005718 159.41766715 52.92484143 150.75550668 54.3605957 142.09350586 C55.83770637 133.18179738 57.31189377 124.26960852 58.78478557 115.35720187 C60.06044292 107.63896496 61.33797664 99.92104021 62.61701077 92.20336217 C63.37651455 87.6203654 64.13528177 83.03724977 64.89217567 78.45382118 C65.59842263 74.17752603 66.30700023 69.90162367 67.01741219 65.62601852 C67.2774757 64.05837006 67.53669972 62.49058207 67.7950325 60.92264748 C68.14680991 58.7883668 68.50158112 56.65460511 68.85713196 54.52095032 C69.05489888 53.32680669 69.25266581 52.13266306 69.45642567 50.90233326 C70 48 70 48 71 45 C45.26 45 19.52 45 -7 45 C-4.85316771 29.97217396 -2.49564185 14.97385108 0 0 Z " fill="#3A81F5" transform="translate(1634,208)"/>
<path d="M0 0 C451.44 0 902.88 0 1368 0 C1368 2.97 1368 5.94 1368 9 C916.56 9 465.12 9 0 9 C0 6.03 0 3.06 0 0 Z " fill="#1E40AF" transform="translate(673,492)"/>
<path d="M0 0 C4.95 0 9.9 0 15 0 C17.64 10.56 20.28 21.12 23 32 C27.38362954 24.46274358 27.38362954 24.46274358 31.7644043 16.92382812 C32.93534323 14.91349853 34.11573598 12.90865771 35.3034668 10.90820312 C36.35041118 9.11352741 37.36265302 7.29743968 38.31567383 5.45117188 C39.41782268 3.40273361 40.3933665 1.68146463 42 0 C45.55078125 -0.78125 45.55078125 -0.78125 49.3125 -0.5 C50.56675781 -0.4278125 51.82101562 -0.355625 53.11328125 -0.28125 C54.06589844 -0.1884375 55.01851562 -0.095625 56 0 C55.4044982 10.69260021 53.32414944 21.16662215 51.4375 31.6875 C51.1043982 33.56437872 50.77171242 35.44133133 50.43945312 37.31835938 C49.63109784 41.87977256 48.81711278 46.44014782 48 51 C44.37 51 40.74 51 37 51 C37.70383299 41.61556012 38.79061687 32.32972126 40 23 C39.55084229 23.81267334 39.10168457 24.62534668 38.63891602 25.46264648 C36.97604654 28.46942291 35.31166529 31.47535178 33.64624023 34.48071289 C32.92492574 35.78310885 32.20422045 37.08584241 31.48413086 38.38891602 C30.45064658 40.25886107 29.41499737 42.12759212 28.37890625 43.99609375 C27.7557251 45.12200928 27.13254395 46.2479248 26.49047852 47.40795898 C25 50 25 50 24 51 C21.32941149 51.14115161 18.67567762 51.04247107 16 51 C14.00978618 45.47576164 12.70558353 39.83413164 11.375 34.125 C11.03082031 32.66320312 11.03082031 32.66320312 10.6796875 31.171875 C10.11732121 28.78181828 9.55749967 26.39119571 9 24 C7.33094861 29.39732202 6.29685088 34.73353951 5.4375 40.3125 C4.13019031 48.73961938 4.13019031 48.73961938 3 51 C-0.63 51 -4.26 51 -8 51 C-7.29448914 40.29809581 -5.32786614 29.854104 -3.4375 19.3125 C-3.1043982 17.43562128 -2.77171242 15.55866867 -2.43945312 13.68164062 C-1.63109784 9.12022744 -0.81711278 4.55985218 0 0 Z " fill="#1D3989" transform="translate(1386,536)"/>
<path d="M0 0 C4.16642697 -0.11703447 8.3324259 -0.18753101 12.5 -0.25 C13.67304687 -0.28351562 14.84609375 -0.31703125 16.0546875 -0.3515625 C23.95381594 -0.44031675 30.00049472 0.1278675 35.83984375 5.78125 C36.38318359 6.63203125 36.38318359 6.63203125 36.9375 7.5 C37.31777344 8.0671875 37.69804688 8.634375 38.08984375 9.21875 C41.45206294 15.79888712 40.69754396 24.2511121 38.875 31.1875 C36.09517569 39.43518629 30.70442209 45.3117588 23.2109375 49.59375 C17.47547906 52.0023277 11.16116257 51.31222357 5.0625 51.1875 C3.80630859 51.17396484 2.55011719 51.16042969 1.25585938 51.14648438 C-1.82987279 51.11128591 -4.91471024 51.06204305 -8 51 C-7.45484918 41.50803128 -6.01215105 32.23704618 -4.41601562 22.87866211 C-3.99558158 20.41157291 -3.58319054 17.94323362 -3.171875 15.47460938 C-2.90671279 13.89835958 -2.64110445 12.32218475 -2.375 10.74609375 C-2.25205566 10.0117662 -2.12911133 9.27743866 -2.00244141 8.52085876 C-1.49925257 5.58416629 -0.94400633 2.83201898 0 0 Z M10 10 C9.34658992 13.29020811 8.70371479 16.58239533 8.0625 19.875 C7.78889648 21.25171875 7.78889648 21.25171875 7.50976562 22.65625 C6.3284236 28.75627063 5.50414854 34.807137 5 41 C12.96744262 41.53825546 12.96744262 41.53825546 20.5 39.375 C25.31012925 34.80537721 27.69642633 30.66279054 28.23828125 24.125 C28.26277344 23.09375 28.28726562 22.0625 28.3125 21 C28.34988281 19.96875 28.38726563 18.9375 28.42578125 17.875 C27.89727696 14.30638385 26.7718702 13.22161025 24 11 C21.23547967 9.61773984 18.9538637 9.90474613 15.875 9.9375 C14.77929688 9.94652344 13.68359375 9.95554687 12.5546875 9.96484375 C11.29011719 9.98224609 11.29011719 9.98224609 10 10 Z " fill="#1D3989" transform="translate(1041,536)"/>
<path d="M0 0 C4.16642697 -0.11703447 8.3324259 -0.18753101 12.5 -0.25 C13.67304687 -0.28351562 14.84609375 -0.31703125 16.0546875 -0.3515625 C23.95381594 -0.44031675 30.00049472 0.1278675 35.83984375 5.78125 C36.38318359 6.63203125 36.38318359 6.63203125 36.9375 7.5 C37.31777344 8.0671875 37.69804688 8.634375 38.08984375 9.21875 C41.48658765 15.8664548 40.69068281 24.34080795 38.75 31.3125 C35.86790737 39.75863256 30.74773212 45.23697557 23.140625 49.6640625 C17.43591958 52.0043184 11.10955602 51.31116816 5.0625 51.1875 C3.80630859 51.17396484 2.55011719 51.16042969 1.25585938 51.14648438 C-1.82987279 51.11128591 -4.91471024 51.06204305 -8 51 C-7.45484918 41.50803128 -6.01215105 32.23704618 -4.41601562 22.87866211 C-3.99558158 20.41157291 -3.58319054 17.94323362 -3.171875 15.47460938 C-2.90671279 13.89835958 -2.64110445 12.32218475 -2.375 10.74609375 C-2.25205566 10.0117662 -2.12911133 9.27743866 -2.00244141 8.52085876 C-1.49925257 5.58416629 -0.94400633 2.83201898 0 0 Z M10 10 C9.34658992 13.29020811 8.70371479 16.58239533 8.0625 19.875 C7.78889648 21.25171875 7.78889648 21.25171875 7.50976562 22.65625 C6.3284236 28.75627063 5.50414854 34.807137 5 41 C12.96744262 41.53825546 12.96744262 41.53825546 20.5 39.375 C26.70026226 33.48475085 28.64906312 27.45644676 29 19 C28.45513263 15.99544567 27.71492942 14.62955844 26 12 C22.6421285 9.7209017 19.7337055 9.78839771 15.75 9.875 C14.13351562 9.90207031 14.13351562 9.90207031 12.484375 9.9296875 C11.25460937 9.96449219 11.25460937 9.96449219 10 10 Z " fill="#1D3989" transform="translate(1587,536)"/>
<path d="M0 0 C4.16642697 -0.11703447 8.3324259 -0.18753101 12.5 -0.25 C13.67304687 -0.28351562 14.84609375 -0.31703125 16.0546875 -0.3515625 C23.22753608 -0.4321563 27.93427428 0.07090107 34 4 C39.96903722 10.28319707 40.52874101 15.7075628 40.3203125 24.16015625 C39.67206977 31.93116367 36.37754252 40.15760938 30.40234375 45.40234375 C24.81173674 49.64137544 19.56680469 51.262541 12.5078125 51.1953125 C10.70957031 51.18564453 10.70957031 51.18564453 8.875 51.17578125 C7.6375 51.15902344 6.4 51.14226563 5.125 51.125 C3.86429688 51.11597656 2.60359375 51.10695313 1.3046875 51.09765625 C-1.7970704 51.07415808 -4.89843652 51.04130334 -8 51 C-6.66924897 39.42583756 -4.88902271 27.9734635 -2.875 16.5 C-2.59470804 14.88677849 -2.31475855 13.27349743 -2.03515625 11.66015625 C-1.36069573 7.77274343 -0.68167998 3.88615305 0 0 Z M10 10 C8.35 20.23 6.7 30.46 5 41 C15.7522279 41.76465838 15.7522279 41.76465838 23 37 C23.51046875 36.55785156 24.0209375 36.11570312 24.546875 35.66015625 C28.10435681 31.59582891 28.86250647 25.39785089 29.375 20.1875 C28.95649114 16.63017472 28.23078444 14.78848054 26 12 C20.95650161 9.10557281 20.95650161 9.10557281 10 10 Z " fill="#1D3989" transform="translate(682,536)"/>
<path d="M0 0 C3.63 0 7.26 0 11 0 C11.33 0.99 11.66 1.98 12 3 C12.639375 2.505 13.27875 2.01 13.9375 1.5 C18.05347873 -0.51598958 21.49154992 -0.60659147 26 0 C29.73698169 1.62477465 31.84763317 3.55621307 34 7 C36.25565621 13.76696862 35.56742586 21.31632098 33.04296875 27.9296875 C30.17072317 33.63114877 26.13609877 37.95463374 20 40 C15.22823633 40.67684591 12.22248006 40.89235886 8.22265625 37.97265625 C7.48917969 37.32167969 6.75570313 36.67070313 6 36 C5.79503906 37.21558594 5.59007812 38.43117188 5.37890625 39.68359375 C5.10698039 41.26826514 4.83483357 42.85289863 4.5625 44.4375 C4.42779297 45.23994141 4.29308594 46.04238281 4.15429688 46.86914062 C3.11328125 52.88671875 3.11328125 52.88671875 2 54 C-1.66655195 54.14300125 -5.33144219 54.04216733 -9 54 C-8.43375379 44.14413811 -6.67092075 34.47477419 -4.98876953 24.76293945 C-4.49591259 21.91387182 -4.01119307 19.06350037 -3.52734375 16.21289062 C-3.2166225 14.40095986 -2.90544155 12.58910785 -2.59375 10.77734375 C-2.37652283 9.49935158 -2.37652283 9.49935158 -2.15490723 8.19554138 C-1.11537783 2.23075565 -1.11537783 2.23075565 0 0 Z M10 4 C11 6 11 6 11 6 Z M10.3359375 12.2421875 C7.70974866 15.69769914 7.20276163 19.74899758 7 24 C7.92201738 28.02334857 8.51432924 28.67621949 12 31 C15.22189759 30.83477448 16.69193481 30.25525402 19.1875 28.1875 C22.71069556 23.93536742 23.44573347 20.56680117 23.3203125 15.12890625 C23.12540851 12.78488845 23.12540851 12.78488845 21.25 10.4375 C16.93479177 7.68056141 13.92523883 9.05372186 10.3359375 12.2421875 Z " fill="#1D3989" transform="translate(1678,548)"/>
<path d="M0 0 C4.05730831 2.9129393 4.05730831 2.9129393 5.4375 5.75 C5.84430058 12.75510602 4.65612507 19.36641513 3.4375 26.25 C3.15132812 27.91289063 3.15132812 27.91289063 2.859375 29.609375 C2.39134559 32.32394556 1.91523961 35.0371215 1.4375 37.75 C-2.1925 37.75 -5.8225 37.75 -9.5625 37.75 C-9.8925 37.09 -10.2225 36.43 -10.5625 35.75 C-11.18125 36.245 -11.8 36.74 -12.4375 37.25 C-16.83887957 39.36266219 -20.75745319 39.34272781 -25.5625 38.75 C-29.24873011 37.13727433 -30.31605 36.119675 -32.5625 32.75 C-33.05342933 27.54614906 -32.54576659 24.08054828 -29.5625 19.75 C-23.28557334 14.75699016 -15.27279277 14.05985669 -7.5625 12.75 C-7.5625 11.43 -7.5625 10.11 -7.5625 8.75 C-10.5325 8.75 -13.5025 8.75 -16.5625 8.75 C-16.8925 9.74 -17.2225 10.73 -17.5625 11.75 C-20.8625 11.42 -24.1625 11.09 -27.5625 10.75 C-27.34337133 6.91524836 -26.62221606 5.80835887 -23.8125 3.0625 C-16.58381851 -2.0809849 -8.40457601 -2.94897404 0 0 Z M-13.4375 21.5625 C-14.76394531 21.78873047 -14.76394531 21.78873047 -16.1171875 22.01953125 C-18.77598392 22.81377235 -19.91264863 23.54097081 -21.5625 25.75 C-21.31103421 27.88745922 -21.10324221 29.20925779 -19.5625 30.75 C-15.86817496 31.16980966 -14.00019254 31.00288902 -10.75 29.125 C-8.15575866 26.30839511 -7.81922062 24.5152358 -7.5625 20.75 C-9.54397383 20.75 -11.49339112 21.21594146 -13.4375 21.5625 Z " fill="#1D3989" transform="translate(1115.5625,549.25)"/>
<path d="M0 0 C3.46243515 1.84760195 5.38297047 3.59927095 6.734375 7.2421875 C6.98275237 14.45695858 5.39163232 21.82273294 4.234375 28.9296875 C4.10393799 29.73229004 3.97350098 30.53489258 3.83911133 31.36181641 C2.85919198 37.11737052 2.85919198 37.11737052 1.734375 38.2421875 C-0.11850002 38.31445252 -1.97396378 38.3259997 -3.828125 38.3046875 C-4.84003906 38.29566406 -5.85195312 38.28664063 -6.89453125 38.27734375 C-8.06822266 38.25994141 -8.06822266 38.25994141 -9.265625 38.2421875 C-9.265625 37.5821875 -9.265625 36.9221875 -9.265625 36.2421875 C-10.049375 36.7371875 -10.833125 37.2321875 -11.640625 37.7421875 C-16.78291297 39.8700308 -21.95679683 40.59579902 -27.2421875 38.43359375 C-29.6841713 36.76123991 -31.08596656 35.00573586 -31.765625 32.1171875 C-32.05562667 26.75215656 -30.87889075 23.3437324 -27.265625 19.2421875 C-23.05622719 16.15477992 -18.98538863 15.37765823 -13.953125 14.5546875 C-12.84227539 14.36036133 -12.84227539 14.36036133 -11.70898438 14.16210938 C-9.89610166 13.8463169 -8.08105649 13.54298167 -6.265625 13.2421875 C-6.265625 11.9221875 -6.265625 10.6021875 -6.265625 9.2421875 C-9.64026524 8.9918298 -9.64026524 8.9918298 -13.265625 9.2421875 C-13.719375 9.7475 -14.173125 10.2528125 -14.640625 10.7734375 C-16.265625 12.2421875 -16.265625 12.2421875 -18.96484375 12.31640625 C-20.44404297 12.12498047 -20.44404297 12.12498047 -21.953125 11.9296875 C-23.44392578 11.74986328 -23.44392578 11.74986328 -24.96484375 11.56640625 C-25.72410156 11.45941406 -26.48335937 11.35242188 -27.265625 11.2421875 C-24.9138277 5.79592008 -22.37003261 2.70991763 -16.96875 0.15625 C-11.63575898 -1.64710246 -5.3644063 -1.79430142 0 0 Z M-12.703125 22.0546875 C-13.48558594 22.20550781 -14.26804687 22.35632813 -15.07421875 22.51171875 C-17.54728443 23.33607398 -18.68358744 24.18605399 -20.265625 26.2421875 C-20.01415921 28.37964672 -19.80636721 29.70144529 -18.265625 31.2421875 C-14.47097332 31.0273959 -11.98511413 30.77233738 -8.890625 28.4921875 C-7.10573831 26.02080593 -6.59960349 24.24799388 -6.265625 21.2421875 C-8.51726265 21.2421875 -10.49530028 21.60877216 -12.703125 22.0546875 Z " fill="#1D3989" transform="translate(1182.265625,548.7578125)"/>
<path d="M0 0 C2.54275154 1.77992608 3.86214928 3.13894214 5.5 5.75 C6.69381887 12.87921674 4.88075527 20.38725881 3.5 27.375 C3.30921875 28.37917969 3.1184375 29.38335938 2.921875 30.41796875 C2.4560514 32.86354267 1.97918561 35.30700909 1.5 37.75 C-2.13 37.75 -5.76 37.75 -9.5 37.75 C-9.83 37.09 -10.16 36.43 -10.5 35.75 C-11.11875 36.245 -11.7375 36.74 -12.375 37.25 C-16.80545039 39.37661619 -20.66784196 39.4215619 -25.5 38.75 C-29.0625 37.25 -29.0625 37.25 -31.5 34.75 C-33.02903326 30.66678619 -32.78977805 27.58713659 -31.375 23.5 C-27.96243338 18.49490229 -24.3172952 16.23076605 -18.5 14.75 C-14.50991573 14.01431225 -10.51108049 13.36009962 -6.5 12.75 C-6.5 11.1 -6.5 9.45 -6.5 7.75 C-7.758125 7.853125 -9.01625 7.95625 -10.3125 8.0625 C-11.37404297 8.14951172 -11.37404297 8.14951172 -12.45703125 8.23828125 C-14.60560015 8.57765639 -14.60560015 8.57765639 -15.9375 10.3125 C-17.5 11.75 -17.5 11.75 -19.98046875 11.82421875 C-21.32044922 11.63279297 -21.32044922 11.63279297 -22.6875 11.4375 C-23.58855469 11.31761719 -24.48960938 11.19773437 -25.41796875 11.07421875 C-26.10503906 10.96722656 -26.79210938 10.86023438 -27.5 10.75 C-26.41873578 5.58395985 -24.53384091 3.57699745 -20.3515625 0.73046875 C-14.29323208 -2.47763449 -6.30147246 -2.25052588 0 0 Z M-12.875 21.625 C-13.66648437 21.78742187 -14.45796875 21.94984375 -15.2734375 22.1171875 C-17.75703602 22.70028506 -17.75703602 22.70028506 -20.5 24.75 C-20.83343551 27.29207971 -20.83343551 27.29207971 -20.5 29.75 C-19.40801858 31.04956335 -19.40801858 31.04956335 -16.75 31.0625 C-12.69858661 30.67294102 -11.24271847 29.72780863 -8.5 26.75 C-7.61406002 23.61136296 -7.61406002 23.61136296 -7.5 20.75 C-9.32641364 20.75 -11.09416868 21.25039147 -12.875 21.625 Z " fill="#1D3989" transform="translate(1747.5,549.25)"/>
<path d="M0 0 C3.36481744 2.37999282 5.76553615 4.82009038 7.3125 8.6875 C7.85637078 13.31040163 7.69196366 17.29464538 6.5625 21.8125 C-2.0175 21.8125 -10.5975 21.8125 -19.4375 21.8125 C-18.7775 24.1225 -18.1175 26.4325 -17.4375 28.8125 C-16.00094146 28.89381463 -14.5630517 28.95183559 -13.125 29 C-12.32449219 29.03480469 -11.52398438 29.06960938 -10.69921875 29.10546875 C-7.89561969 28.74230825 -7.37344698 27.76871867 -5.4375 25.8125 C-3.24609375 25.44921875 -3.24609375 25.44921875 -0.875 25.5 C-0.08996094 25.50386719 0.69507813 25.50773438 1.50390625 25.51171875 C3.5625 25.8125 3.5625 25.8125 5.5625 27.8125 C2.26456289 32.80651905 -0.26364782 36.52753677 -6.2265625 38.36328125 C-12.14655827 39.56610725 -19.04263649 40.01693622 -24.5 37.125 C-28.41604116 34.04215908 -30.17668807 31.59254145 -30.90625 26.61328125 C-30.97773986 18.63322557 -30.40300796 12.28666708 -25.4375 5.8125 C-18.133758 -1.13600163 -9.72954817 -3.36111664 0 0 Z M-17.4375 11.8125 C-17.7675 12.8025 -18.0975 13.7925 -18.4375 14.8125 C-13.4875 14.8125 -8.5375 14.8125 -3.4375 14.8125 C-3.7675 12.8325 -4.0975 10.8525 -4.4375 8.8125 C-9.70387022 6.17931489 -13.50700121 7.88200121 -17.4375 11.8125 Z " fill="#1D3989" transform="translate(1661.4375,549.1875)"/>
<path d="M0 0 C2.54275154 1.77992608 3.86214928 3.13894214 5.5 5.75 C6.69381887 12.87921674 4.88075527 20.38725881 3.5 27.375 C3.30921875 28.37917969 3.1184375 29.38335938 2.921875 30.41796875 C2.4560514 32.86354267 1.97918561 35.30700909 1.5 37.75 C-2.13 37.75 -5.76 37.75 -9.5 37.75 C-9.83 37.09 -10.16 36.43 -10.5 35.75 C-11.11875 36.245 -11.7375 36.74 -12.375 37.25 C-16.80545039 39.37661619 -20.66784196 39.4215619 -25.5 38.75 C-29.0625 37.25 -29.0625 37.25 -31.5 34.75 C-33.02903326 30.66678619 -32.78977805 27.58713659 -31.375 23.5 C-27.96243338 18.49490229 -24.3172952 16.23076605 -18.5 14.75 C-14.50991573 14.01431225 -10.51108049 13.36009962 -6.5 12.75 C-6.5 11.1 -6.5 9.45 -6.5 7.75 C-7.758125 7.853125 -9.01625 7.95625 -10.3125 8.0625 C-11.37404297 8.14951172 -11.37404297 8.14951172 -12.45703125 8.23828125 C-14.60560015 8.57765639 -14.60560015 8.57765639 -15.9375 10.3125 C-17.5 11.75 -17.5 11.75 -19.98046875 11.82421875 C-21.32044922 11.63279297 -21.32044922 11.63279297 -22.6875 11.4375 C-23.58855469 11.31761719 -24.48960938 11.19773437 -25.41796875 11.07421875 C-26.10503906 10.96722656 -26.79210938 10.86023438 -27.5 10.75 C-26.41873578 5.58395985 -24.53384091 3.57699745 -20.3515625 0.73046875 C-14.29323208 -2.47763449 -6.30147246 -2.25052588 0 0 Z M-12.875 21.625 C-13.66648437 21.78742187 -14.45796875 21.94984375 -15.2734375 22.1171875 C-17.75703602 22.70028506 -17.75703602 22.70028506 -20.5 24.75 C-20.83343551 27.29207971 -20.83343551 27.29207971 -20.5 29.75 C-19.40801858 31.04956335 -19.40801858 31.04956335 -16.75 31.0625 C-12.69858661 30.67294102 -11.24271847 29.72780863 -8.5 26.75 C-7.61406002 23.61136296 -7.61406002 23.61136296 -7.5 20.75 C-9.32641364 20.75 -11.09416868 21.25039147 -12.875 21.625 Z " fill="#1D3989" transform="translate(1553.5,549.25)"/>
<path d="M0 0 C5.27596646 3.56127736 5.27596646 3.56127736 5.93359375 6.8671875 C5.94880146 17.36050619 3.64465695 27.46208203 1.5 37.6875 C-2.13 37.6875 -5.76 37.6875 -9.5 37.6875 C-9.83 37.0275 -10.16 36.3675 -10.5 35.6875 C-11.11875 36.1825 -11.7375 36.6775 -12.375 37.1875 C-16.78438426 39.30400445 -20.68765834 39.2652976 -25.5 38.6875 C-28.75729499 37.39815407 -29.99532642 36.4335392 -31.9375 33.5625 C-32.77741783 29.26958665 -32.16917991 25.72135145 -30.5 21.6875 C-24.77253907 14.35140035 -15.02693992 13.98447792 -6.5 12.6875 C-6.5 11.0375 -6.5 9.3875 -6.5 7.6875 C-7.758125 7.790625 -9.01625 7.89375 -10.3125 8 C-11.37404297 8.08701172 -11.37404297 8.08701172 -12.45703125 8.17578125 C-14.60560015 8.51515639 -14.60560015 8.51515639 -15.9375 10.25 C-17.5 11.6875 -17.5 11.6875 -19.98046875 11.76171875 C-21.32044922 11.57029297 -21.32044922 11.57029297 -22.6875 11.375 C-23.58855469 11.25511719 -24.48960938 11.13523437 -25.41796875 11.01171875 C-26.10503906 10.90472656 -26.79210938 10.79773438 -27.5 10.6875 C-26.09967986 6.23193592 -24.06811858 3.68796335 -20.5 0.6875 C-14.25911245 -2.43294377 -6.45365088 -2.42011908 0 0 Z M-12.875 21.5625 C-13.66648437 21.72492187 -14.45796875 21.88734375 -15.2734375 22.0546875 C-17.75703602 22.63778506 -17.75703602 22.63778506 -20.5 24.6875 C-20.75030977 27.27130177 -20.75030977 27.27130177 -20.5 29.6875 C-15.40145613 30.89172992 -15.40145613 30.89172992 -10.625 29.125 C-8.13236308 26.26579882 -7.7547099 24.42324522 -7.5 20.6875 C-9.32641364 20.6875 -11.09416868 21.18789147 -12.875 21.5625 Z " fill="#1D3989" transform="translate(1473.5,549.3125)"/>
<path d="M0 0 C3.02420129 1.95313 4.2279436 3.29569953 5.54492188 6.61694336 C6.56000203 11.79308975 5.17653171 17.06897724 4.25 22.1875 C3.95609375 23.96253906 3.95609375 23.96253906 3.65625 25.7734375 C2.22559044 34.26072869 2.22559044 34.26072869 1 37.9375 C-2.63 37.9375 -6.26 37.9375 -10 37.9375 C-10.33 37.2775 -10.66 36.6175 -11 35.9375 C-11.61875 36.4325 -12.2375 36.9275 -12.875 37.4375 C-17.2729159 39.54849963 -21.19826008 39.53673191 -26 38.9375 C-30.51315789 36.91118421 -30.51315789 36.91118421 -32 33.9375 C-32.64851184 28.78646311 -32.64562229 25.0471633 -30 20.5 C-23.36402357 14.83177013 -15.38826567 14.12583764 -7 12.9375 C-7 11.6175 -7 10.2975 -7 8.9375 C-9.67286779 7.94754897 -10.85219333 7.89175032 -13.625 8.75 C-16.10870329 9.83538478 -16.10870329 9.83538478 -18 11.9375 C-20.3828125 11.9140625 -20.3828125 11.9140625 -23.125 11.5625 C-24.03507813 11.45164062 -24.94515625 11.34078125 -25.8828125 11.2265625 C-26.58148437 11.13117187 -27.28015625 11.03578125 -28 10.9375 C-26.60306939 6.04824285 -24.06012438 3.88308043 -20 0.9375 C-13.80986367 -2.00920952 -6.5105028 -2.24404565 0 0 Z M-13.375 21.8125 C-14.16648437 21.97492187 -14.95796875 22.13734375 -15.7734375 22.3046875 C-18.25703602 22.88778506 -18.25703602 22.88778506 -21 24.9375 C-21.25030977 27.52130177 -21.25030977 27.52130177 -21 29.9375 C-16.54532271 31.15031215 -16.54532271 31.15031215 -12.19921875 30.06640625 C-9.45629477 27.96502535 -8.08704033 26.59030248 -7.625 23.125 C-7.74875 22.403125 -7.8725 21.68125 -8 20.9375 C-9.82641364 20.9375 -11.59416868 21.43789147 -13.375 21.8125 Z " fill="#1D3989" transform="translate(838,549.0625)"/>
<path d="M0 0 C3.54740404 3.28783789 6.28596805 5.87842277 6.83984375 10.87890625 C6.88959113 14.67628977 6.76951415 17.75395754 5.5625 21.375 C-3.0175 21.375 -11.5975 21.375 -20.4375 21.375 C-20.1075 23.685 -19.7775 25.995 -19.4375 28.375 C-17.83342672 28.40208567 -16.2292215 28.42143483 -14.625 28.4375 C-13.28501953 28.45490234 -13.28501953 28.45490234 -11.91796875 28.47265625 C-9.30336209 28.48509967 -9.30336209 28.48509967 -6.4375 27.375 C-6.4375 26.715 -6.4375 26.055 -6.4375 25.375 C-4.97957116 25.32100264 -3.52107288 25.28220823 -2.0625 25.25 C-0.84433594 25.21519531 -0.84433594 25.21519531 0.3984375 25.1796875 C2.5625 25.375 2.5625 25.375 4.5625 27.375 C1.28349379 32.92408744 -2.13265989 36.27338663 -8.4375 38.375 C-16.05205161 39.00268601 -22.37531167 39.3828947 -28.4375 34.375 C-32.52246413 29.10407854 -32.15122637 22.74111108 -31.4375 16.375 C-29.67894602 9.20806302 -25.49910035 4.44993059 -19.4375 0.375 C-13.17729556 -2.65380442 -6.30381792 -2.97998665 0 0 Z M-18.4375 11.375 C-18.7675 12.365 -19.0975 13.355 -19.4375 14.375 C-14.4875 14.375 -9.5375 14.375 -4.4375 14.375 C-4.4375 12.725 -4.4375 11.075 -4.4375 9.375 C-6.36196296 7.03515237 -6.36196296 7.03515237 -9.75 7 C-13.99618217 7.43181514 -15.49890708 8.34997788 -18.4375 11.375 Z " fill="#1D3989" transform="translate(757.4375,549.625)"/>
<path d="M0 0 C1.37478516 0.01740234 1.37478516 0.01740234 2.77734375 0.03515625 C3.69644531 0.04417969 4.61554688 0.05320312 5.5625 0.0625 C6.27277344 0.07410156 6.98304687 0.08570313 7.71484375 0.09765625 C8.04484375 1.41765625 8.37484375 2.73765625 8.71484375 4.09765625 C9.49859375 3.43765625 10.28234375 2.77765625 11.08984375 2.09765625 C15.35313105 -0.73778423 19.76974475 -0.71964726 24.71484375 0.09765625 C28.86234449 2.43062542 30.26750148 4.65739354 31.71484375 9.09765625 C31.96290003 15.93692219 30.30788096 22.98281451 29.21484375 29.72265625 C29.08440674 30.52920654 28.95396973 31.33575684 28.81958008 32.16674805 C27.83732239 37.97517761 27.83732239 37.97517761 26.71484375 39.09765625 C24.86196873 39.16992127 23.00650497 39.18146845 21.15234375 39.16015625 C20.14042969 39.15113281 19.12851563 39.14210938 18.0859375 39.1328125 C16.91224609 39.11541016 16.91224609 39.11541016 15.71484375 39.09765625 C15.84761719 38.05867187 15.98039062 37.0196875 16.1171875 35.94921875 C17.30687049 26.59159089 17.30687049 26.59159089 18.40234375 17.22265625 C18.48871094 16.46210937 18.57507812 15.7015625 18.6640625 14.91796875 C18.86096717 12.99658492 18.86096717 12.99658492 17.71484375 11.09765625 C13.14355549 10.71428286 13.14355549 10.71428286 8.90234375 12.09765625 C5.67997305 17.5248069 5.13775309 24.92782267 4.08984375 31.09765625 C3.95578125 31.87238281 3.82171875 32.64710938 3.68359375 33.4453125 C3.35802326 35.32897032 3.03604949 37.21324923 2.71484375 39.09765625 C-1.24515625 39.09765625 -5.20515625 39.09765625 -9.28515625 39.09765625 C-8.45418546 33.70336255 -7.61790441 28.30992983 -6.77661133 22.91723633 C-6.49095546 21.08120237 -6.20677234 19.24493866 -5.92407227 17.40844727 C-5.51832522 14.77428911 -5.10735168 12.14099279 -4.6953125 9.5078125 C-4.56923111 8.68177017 -4.44314972 7.85572784 -4.31324768 7.00465393 C-3.22961611 0.13801778 -3.22961611 0.13801778 0 0 Z " fill="#1D3989" transform="translate(1765.28515625,547.90234375)"/>
<path d="M0 0 C5.20345745 3.60239362 5.20345745 3.60239362 6.125 7.875 C6.2796875 9.2671875 6.2796875 9.2671875 6.4375 10.6875 C2.8075 11.0175 -0.8225 11.3475 -4.5625 11.6875 C-4.8925 10.3675 -5.2225 9.0475 -5.5625 7.6875 C-10.3522321 7.45321687 -10.3522321 7.45321687 -14.5625 9.6875 C-14.8925 10.6775 -15.2225 11.6675 -15.5625 12.6875 C-14.45390625 12.91824219 -13.3453125 13.14898438 -12.203125 13.38671875 C-10.73935477 13.71512874 -9.27582517 14.04461257 -7.8125 14.375 C-7.08289063 14.52388672 -6.35328125 14.67277344 -5.6015625 14.82617188 C-1.85959159 15.69362877 0.09083873 16.36132571 2.94921875 19.05078125 C4.96919566 22.62948051 4.76638263 24.59975404 4.10546875 28.5390625 C2.66279988 33.17922553 -0.57996482 35.093885 -4.5625 37.5 C-10.98892528 39.97170203 -18.77973243 39.64707502 -25.1875 37.4375 C-27.64766477 35.62474701 -29.16338084 34.40800947 -30.5625 31.6875 C-30.75 28.4375 -30.75 28.4375 -30.5625 25.6875 C-26.9325 25.6875 -23.3025 25.6875 -19.5625 25.6875 C-19.2325 27.0075 -18.9025 28.3275 -18.5625 29.6875 C-15.5925 29.3575 -12.6225 29.0275 -9.5625 28.6875 C-9.2325 27.3675 -8.9025 26.0475 -8.5625 24.6875 C-9.59890625 24.45675781 -10.6353125 24.22601562 -11.703125 23.98828125 C-13.0731556 23.65984926 -14.4429346 23.33036651 -15.8125 23 C-16.49441406 22.85111328 -17.17632813 22.70222656 -17.87890625 22.54882812 C-21.35731099 21.68766967 -23.43515495 20.80863798 -26.046875 18.32421875 C-28.10928601 14.73626145 -27.83412814 12.79063864 -27.1640625 8.8359375 C-25.88078057 4.25278775 -23.54076501 2.27853511 -19.5625 -0.125 C-13.34342178 -2.47562352 -6.16182574 -2.27014633 0 0 Z " fill="#1D3989" transform="translate(797.5625,549.3125)"/>
<path d="M0 0 C2.48628127 1.78502245 4.00575851 3.04559942 5.4375 5.75 C5.4375 7.4 5.4375 9.05 5.4375 10.75 C2.1375 11.08 -1.1625 11.41 -4.5625 11.75 C-4.8925 10.43 -5.2225 9.11 -5.5625 7.75 C-9.0844721 7.66995518 -12.18231469 7.70994298 -15.5625 8.75 C-15.2325 10.07 -14.9025 11.39 -14.5625 12.75 C-13.52609375 12.98074219 -12.4896875 13.21148438 -11.421875 13.44921875 C-10.0518444 13.77765074 -8.6820654 14.10713349 -7.3125 14.4375 C-6.63058594 14.58638672 -5.94867187 14.73527344 -5.24609375 14.88867188 C-0.45433528 16.07498101 1.86698808 17.53072538 4.4375 21.75 C5.09852159 25.63350184 4.63522645 27.36975682 2.8125 30.875 C-0.42952333 34.79955455 -3.73652688 37.14134229 -8.5625 38.75 C-22.20560615 39.69718494 -22.20560615 39.69718494 -27.5625 35.75 C-30.24178695 32.97832384 -31.14902632 30.57463151 -31.5625 26.75 C-30.5625 25.75 -30.5625 25.75 -28.05859375 25.65234375 C-27.04925781 25.66394531 -26.03992187 25.67554688 -25 25.6875 C-23.98808594 25.69652344 -22.97617188 25.70554687 -21.93359375 25.71484375 C-20.75990234 25.73224609 -20.75990234 25.73224609 -19.5625 25.75 C-19.2325 26.74 -18.9025 27.73 -18.5625 28.75 C-14.38819213 29.71884725 -14.38819213 29.71884725 -10.25 29 C-8.24966985 27.76833257 -8.24966985 27.76833257 -7.5625 24.75 C-8.67109375 24.51925781 -9.7796875 24.28851562 -10.921875 24.05078125 C-12.38564523 23.72237126 -13.84917483 23.39288743 -15.3125 23.0625 C-16.04210938 22.91361328 -16.77171875 22.76472656 -17.5234375 22.61132812 C-21.30653317 21.73433776 -23.20417897 21.09932081 -26.05078125 18.32421875 C-28.07605395 14.87549857 -28.05516569 12.69132553 -27.5625 8.75 C-25.650614 4.18271678 -22.77971752 2.21004355 -18.5625 -0.25 C-12.61773844 -2.23158719 -5.88291841 -2.0641819 0 0 Z " fill="#1D3989" transform="translate(1513.5625,549.25)"/>
<path d="M0 0 C3.96 0 7.92 0 12 0 C11.67 2.64 11.34 5.28 11 8 C13.97 8.495 13.97 8.495 17 9 C16.67 11.97 16.34 14.94 16 18 C13.69 18 11.38 18 9 18 C8.01 24.93 7.02 31.86 6 39 C7.65 39 9.3 39 11 39 C12.4783226 41.95664519 12.06032783 44.74229737 12 48 C8.31833802 49.84083099 4.02754194 49.36729156 0 49 C-4.51315789 46.97368421 -4.51315789 46.97368421 -6 44 C-6.62094214 35.15157448 -4.66803264 26.64795492 -3 18 C-4.65 18 -6.3 18 -8 18 C-7.125 10.125 -7.125 10.125 -6 9 C-4.33382885 8.95936168 -2.66611905 8.957279 -1 9 C-0.67 6.03 -0.34 3.06 0 0 Z " fill="#1D3989" transform="translate(1134,539)"/>
<path d="M0 0 C1.98 0 3.96 0 6 0 C5.90912109 0.61520508 5.81824219 1.23041016 5.72460938 1.86425781 C5.31345112 4.65907971 4.90668141 7.45452331 4.5 10.25 C4.28537109 11.70212891 4.28537109 11.70212891 4.06640625 13.18359375 C3.86337891 14.58544922 3.86337891 14.58544922 3.65625 16.015625 C3.53056641 16.87446289 3.40488281 17.73330078 3.27539062 18.61816406 C2.92342934 21.26263751 2.92342934 21.26263751 3 25 C3.6290625 24.35933594 4.258125 23.71867188 4.90625 23.05859375 C9.50508232 18.41127976 14.14170167 13.91347585 19.11328125 9.66796875 C21.72169811 7.36197703 24.13911787 4.88826379 26.5546875 2.3828125 C29.73356969 -0.65860451 32.78137835 -0.07812262 37 0 C30.04371713 8.69535359 21.56735482 15.93703189 13 23 C14.28153651 26.43317283 15.76673498 29.42538046 17.75 32.50390625 C18.2759375 33.32697266 18.801875 34.15003906 19.34375 34.99804688 C20.16359375 36.26745117 20.16359375 36.26745117 21 37.5625 C22.08504375 39.25020366 23.16843962 40.93896816 24.25 42.62890625 C24.72953125 43.37213135 25.2090625 44.11535645 25.703125 44.88110352 C26.92447767 46.876608 27.98884421 48.89153746 29 51 C25.875 51.5625 25.875 51.5625 22 51 C19.42114993 48.37474389 17.80226144 45.18761421 16 42 C14.92145773 40.2323468 13.82721367 38.47500325 12.73217773 36.7175293 C11.13832184 34.15505889 9.56954857 31.5774059 8 29 C4.44202374 31.14821208 1.75013036 32.77769493 0.37402344 36.85449219 C-0.74787266 41.51717019 -1.40702931 46.24493979 -2 51 C-3.98 51 -5.96 51 -8 51 C-6.66924897 39.42583756 -4.88902271 27.9734635 -2.875 16.5 C-2.59470804 14.88677849 -2.31475855 13.27349743 -2.03515625 11.66015625 C-1.36069573 7.77274343 -0.68167998 3.88615305 0 0 Z " fill="#1D3989" transform="translate(1830,536)"/>
<path d="M0 0 C1.98 0 3.96 0 6 0 C5.90912109 0.54938232 5.81824219 1.09876465 5.72460938 1.66479492 C5.31229696 4.17170729 4.90609748 6.67957369 4.5 9.1875 C4.28537109 10.48397461 4.28537109 10.48397461 4.06640625 11.80664062 C3.40685738 15.90526577 2.79290734 19.83226024 3 24 C6.9577764 20.61790017 10.85099458 17.21642354 14.5 13.5 C17.5928574 10.35039293 20.85055565 7.44792437 24.203125 4.578125 C26.01911248 3.05395474 26.01911248 3.05395474 27.47265625 1.30859375 C30.26095319 -1.08035632 33.48365069 -0.17293521 37 0 C34.19569194 3.85592358 31.03541681 6.81349814 27.4375 9.88671875 C24.40617752 12.51483648 21.4523303 15.22132127 18.5 17.9375 C17.95923828 18.43459473 17.41847656 18.93168945 16.86132812 19.44384766 C15.57352466 20.62847768 14.28666012 21.81412826 13 23 C14.30748447 26.48688291 15.84000759 29.58481092 17.78515625 32.7578125 C18.31560547 33.63050781 18.84605469 34.50320313 19.39257812 35.40234375 C20.21918945 36.75005859 20.21918945 36.75005859 21.0625 38.125 C22.16025549 39.91761814 23.25542766 41.71182152 24.34765625 43.5078125 C24.83242432 44.29816895 25.31719238 45.08852539 25.81665039 45.90283203 C27 48 27 48 28 51 C24.89453125 51.6171875 24.89453125 51.6171875 21 51 C18.32106801 48.04463919 16.55939609 44.62972498 14.6875 41.125 C13.65161653 39.27238676 12.61393912 37.42077513 11.57421875 35.5703125 C10.90265747 34.32918701 10.90265747 34.32918701 10.2175293 33.06298828 C9.04271225 30.8763347 9.04271225 30.8763347 7 29 C2.74647369 31.36307017 1.33605023 32.82637003 -0.03125 37.6015625 C-0.58394333 40.28955836 -1.031238 42.98854924 -1.45703125 45.69921875 C-2 49 -2 49 -3 51 C-4.65 51 -6.3 51 -8 51 C-7.45484918 41.50803128 -6.01215105 32.23704618 -4.41601562 22.87866211 C-3.99558158 20.41157291 -3.58319054 17.94323362 -3.171875 15.47460938 C-2.90671279 13.89835958 -2.64110445 12.32218475 -2.375 10.74609375 C-2.25205566 10.0117662 -2.12911133 9.27743866 -2.00244141 8.52085876 C-1.49925257 5.58416629 -0.94400633 2.83201898 0 0 Z " fill="#1D3989" transform="translate(877,536)"/>
<path d="M0 0 C1.98 0 3.96 0 6 0 C5.90912109 0.57967529 5.81824219 1.15935059 5.72460938 1.7565918 C5.31250055 4.39963588 4.90619983 7.04354162 4.5 9.6875 C4.28537109 11.05551758 4.28537109 11.05551758 4.06640625 12.45117188 C3.86337891 13.78051758 3.86337891 13.78051758 3.65625 15.13671875 C3.53056641 15.94842529 3.40488281 16.76013184 3.27539062 17.59643555 C2.99022277 20.08533405 2.95325261 22.49706689 3 25 C3.70125 24.28714844 4.4025 23.57429687 5.125 22.83984375 C9.99356873 17.91614615 14.86352539 13.09271141 20.171875 8.63671875 C22.11414295 6.89780791 23.77205142 5.01227982 25.5 3.0625 C27.44693178 1.04812255 28.44887087 0.10886501 31.21484375 -0.4375 C33.4375 -0.4375 33.4375 -0.4375 37 0 C32.17391592 5.969104 26.77642407 10.95891826 21 16 C20.20078125 16.70253906 19.4015625 17.40507813 18.578125 18.12890625 C16.7227565 19.75728818 14.86360462 21.38105856 13 23 C14.37329422 26.7435108 16.0915791 29.92205132 18.2578125 33.265625 C18.88300781 34.23757813 19.50820312 35.20953125 20.15234375 36.2109375 C20.80332031 37.21382812 21.45429687 38.21671875 22.125 39.25 C23.42122364 41.25394653 24.71560262 43.25908792 26.0078125 45.265625 C26.58160645 46.15024414 27.15540039 47.03486328 27.74658203 47.94628906 C29 50 29 50 29 51 C25.875 51.5625 25.875 51.5625 22 51 C19.42114993 48.37474389 17.80226144 45.18761421 16 42 C14.92145773 40.2323468 13.82721367 38.47500325 12.73217773 36.7175293 C11.13832184 34.15505889 9.56954857 31.5774059 8 29 C6.576875 30.2375 6.576875 30.2375 5.125 31.5 C2.25 34 2.25 34 0 34 C-0.04898437 34.72445312 -0.09796875 35.44890625 -0.1484375 36.1953125 C-0.55206152 41.41458867 -1.01275807 46.09813658 -3 51 C-4.65 51 -6.3 51 -8 51 C-6.66924897 39.42583756 -4.88902271 27.9734635 -2.875 16.5 C-2.59470804 14.88677849 -2.31475855 13.27349743 -2.03515625 11.66015625 C-1.36069573 7.77274343 -0.68167998 3.88615305 0 0 Z " fill="#1D3989" transform="translate(1222,536)"/>
<path d="M0 0 C2.10812823 1.90411582 2.9179851 3.11395697 3.9375 5.75 C4.17684067 13.34051842 2.65860144 21.02474845 1.4375 28.5 C1.30706299 29.29873535 1.17662598 30.0974707 1.04223633 30.92041016 C0.06461646 36.62288354 0.06461646 36.62288354 -1.0625 37.75 C-2.72867115 37.79063832 -4.39638095 37.792721 -6.0625 37.75 C-6.3925 37.09 -6.7225 36.43 -7.0625 35.75 C-7.660625 36.245 -8.25875 36.74 -8.875 37.25 C-13.56179275 39.45554953 -17.96603305 39.46166881 -23.0625 38.75 C-26.06447464 36.94881522 -27.51416366 35.84667268 -29.0625 32.75 C-29.40694547 27.49720662 -29.63991751 23.92365376 -26.0625 19.75 C-21.09796457 16.74676252 -16.32623655 15.88537782 -10.6875 15.0625 C-9.85605469 14.93294922 -9.02460937 14.80339844 -8.16796875 14.66992188 C-6.13418071 14.35433408 -4.09851001 14.05091972 -2.0625 13.75 C-2.18625 12.450625 -2.31 11.15125 -2.4375 9.8125 C-2.50710938 9.08160156 -2.57671875 8.35070312 -2.6484375 7.59765625 C-2.78507813 6.98792969 -2.92171875 6.37820313 -3.0625 5.75 C-6.27052255 4.14598872 -9.58223123 4.25836352 -13.0625 4.75 C-16.41002558 6.56378992 -16.41002558 6.56378992 -19.0625 8.75 C-20.0525 9.245 -20.0525 9.245 -21.0625 9.75 C-23.1875 8.8125 -23.1875 8.8125 -25.0625 7.75 C-24.17937962 6.61499306 -23.28031145 5.49238693 -22.375 4.375 C-21.87613281 3.74851562 -21.37726562 3.12203125 -20.86328125 2.4765625 C-15.4927293 -2.67264349 -6.58446234 -2.68753565 0 0 Z M-12.4375 19.9375 C-13.11039063 20.03869141 -13.78328125 20.13988281 -14.4765625 20.24414062 C-18.08423571 20.90104962 -19.91027241 21.60016593 -22.546875 24.1953125 C-24.31429163 26.64110087 -24.31429163 26.64110087 -23.9375 29.4375 C-23.18706118 31.89951065 -23.18706118 31.89951065 -21.0625 33.75 C-16.87229173 34.38388219 -13.10303707 34.17978705 -9.1875 32.5625 C-4.55755108 28.61342592 -3.64503585 24.69186569 -3.0625 18.75 C-6.24049376 18.75 -9.31821458 19.38512654 -12.4375 19.9375 Z " fill="#1D3989" transform="translate(985.0625,549.25)"/>
<path d="M0 0 C2.25890202 1.47486564 3.83066822 2.74336769 5.046875 5.17578125 C5.69267189 12.6981886 4.43407583 19.93362008 3.046875 27.30078125 C2.85609375 28.35265625 2.6653125 29.40453125 2.46875 30.48828125 C2.00256217 33.05231434 1.52849553 35.6146104 1.046875 38.17578125 C-0.933125 38.17578125 -2.913125 38.17578125 -4.953125 38.17578125 C-4.953125 37.18578125 -4.953125 36.19578125 -4.953125 35.17578125 C-5.71625 35.83578125 -6.479375 36.49578125 -7.265625 37.17578125 C-11.7893669 40.19160918 -16.72863468 39.93122506 -21.953125 39.17578125 C-25.078125 37.73828125 -25.078125 37.73828125 -26.953125 35.17578125 C-28.43969884 30.4846171 -28.47531789 27.26033572 -26.328125 22.80078125 C-21.45789092 17.41789096 -16.54520082 16.48554832 -9.640625 15.48828125 C-8.38668945 15.29395508 -8.38668945 15.29395508 -7.10742188 15.09570312 C-5.05745373 14.77942233 -3.00546599 14.47627978 -0.953125 14.17578125 C-0.71884187 9.38604915 -0.71884187 9.38604915 -2.953125 5.17578125 C-7.21029049 4.3226754 -11.03388809 4.75446433 -14.953125 6.55078125 C-17.05029177 8.02664156 -17.05029177 8.02664156 -17.953125 10.17578125 C-20.428125 9.18578125 -20.428125 9.18578125 -22.953125 8.17578125 C-21.44677035 3.95798822 -18.71300078 2.40101385 -14.953125 0.17578125 C-10.23251072 -1.39775684 -4.68776566 -1.97823711 0 0 Z M-19.703125 22.86328125 C-22.30495628 25.0802001 -22.30495628 25.0802001 -22.453125 28.80078125 C-22.28613003 32.2400075 -22.28613003 32.2400075 -19.953125 34.17578125 C-15.37624143 34.96300522 -11.75555948 34.56213859 -7.578125 32.55078125 C-3.90987634 29.2318896 -2.09039483 26.28058525 -1.765625 21.30078125 C-1.8275 20.59953125 -1.889375 19.89828125 -1.953125 19.17578125 C-7.77111442 19.17578125 -14.57448354 19.99074889 -19.703125 22.86328125 Z " fill="#1D3989" transform="translate(1936.953125,548.82421875)"/>
<path d="M0 0 C2.26749945 1.46784988 3.83712371 2.73674743 5.0546875 5.171875 C5.41585922 12.56837085 4.35165261 19.46523607 3.0546875 26.734375 C2.76851562 28.39049805 2.76851562 28.39049805 2.4765625 30.08007812 C2.00928861 32.77858484 1.53520028 35.4756999 1.0546875 38.171875 C-0.9253125 38.171875 -2.9053125 38.171875 -4.9453125 38.171875 C-4.9453125 37.181875 -4.9453125 36.191875 -4.9453125 35.171875 C-5.7084375 35.831875 -6.4715625 36.491875 -7.2578125 37.171875 C-11.75631083 40.17087389 -16.74711199 39.97890156 -21.9453125 39.171875 C-24.94728714 37.37069022 -26.39697616 36.26854768 -27.9453125 33.171875 C-28.34669125 28.99753605 -28.20725553 26.67635787 -26.2578125 22.921875 C-21.55821159 17.33316041 -16.54073126 16.48212491 -9.6328125 15.484375 C-8.37887695 15.29004883 -8.37887695 15.29004883 -7.09960938 15.09179688 C-5.04964123 14.77551608 -2.99765349 14.47237353 -0.9453125 14.171875 C-0.71102937 9.3821429 -0.71102937 9.3821429 -2.9453125 5.171875 C-7.20247799 4.31876915 -11.02607559 4.75055808 -14.9453125 6.546875 C-17.04247927 8.02273531 -17.04247927 8.02273531 -17.9453125 10.171875 C-19.5953125 9.841875 -21.2453125 9.511875 -22.9453125 9.171875 C-22.6193176 6.12925592 -21.96635989 5.1917531 -19.6953125 3.046875 C-13.92005603 -0.89079986 -6.76925032 -2.88168889 0 0 Z M-19.6953125 22.859375 C-22.29714378 25.07629385 -22.29714378 25.07629385 -22.4453125 28.796875 C-22.27831753 32.23610125 -22.27831753 32.23610125 -19.9453125 34.171875 C-15.36842893 34.95909897 -11.74774698 34.55823234 -7.5703125 32.546875 C-3.90206384 29.22798335 -2.08258233 26.276679 -1.7578125 21.296875 C-1.8196875 20.595625 -1.8815625 19.894375 -1.9453125 19.171875 C-7.76330192 19.171875 -14.56667104 19.98684264 -19.6953125 22.859375 Z " fill="#1D3989" transform="translate(1328.9453125,548.828125)"/>
<path d="M0 0 C1.98 0 3.96 0 6 0 C5.67 2.97 5.34 5.94 5 9 C7.31 9 9.62 9 12 9 C12 10.65 12 12.3 12 14 C9.36 14.33 6.72 14.66 4 15 C3.33090374 19.29129158 2.6651333 23.58309253 2 27.875 C1.80921875 29.09832031 1.6184375 30.32164062 1.421875 31.58203125 C1.24140625 32.74863281 1.0609375 33.91523437 0.875 35.1171875 C0.70742188 36.19597168 0.53984375 37.27475586 0.3671875 38.38623047 C-0.04637198 40.89018618 -0.04637198 40.89018618 0 43 C2.31 43.33 4.62 43.66 7 44 C7 45.65 7 47.3 7 49 C2.41419121 49.38862786 0.00057951 49.55133973 -4.0625 47.3125 C-9.21320055 38.50646357 -3.84938971 23.71220383 -2 14 C-3.65 14 -5.3 14 -7 14 C-7 12.35 -7 10.7 -7 9 C-5.02 9 -3.04 9 -1 9 C-0.67 6.03 -0.34 3.06 0 0 Z " fill="#1D3989" transform="translate(941,539)"/>
<path d="M0 0 C1.65 0 3.3 0 5 0 C4.67 2.97 4.34 5.94 4 9 C6.31 9 8.62 9 11 9 C11.33 9.66 11.66 10.32 12 11 C11.67 11.99 11.34 12.98 11 14 C8.36 14 5.72 14 3 14 C2.49171557 17.35296491 1.99488543 20.70753343 1.5 24.0625 C1.28537109 25.47692383 1.28537109 25.47692383 1.06640625 26.91992188 C0.32190861 32.00732242 -0.17113566 36.8587994 0 42 C0.78375 42.103125 1.5675 42.20625 2.375 42.3125 C5 43 5 43 7 46 C6.67 46.99 6.34 47.98 6 49 C-1.89031079 49.30347349 -1.89031079 49.30347349 -5 47 C-7.64700394 43.29419449 -6.90372941 39.81426716 -6.25 35.5625 C-6.15219238 34.86253906 -6.05438477 34.16257812 -5.95361328 33.44140625 C-5.64940783 31.29201224 -5.32696833 29.14603838 -5 27 C-4.80664062 25.69933594 -4.61328125 24.39867187 -4.4140625 23.05859375 C-3.95629869 20.03668917 -3.48569697 17.01752159 -3 14 C-4.65 14 -6.3 14 -8 14 C-7.67 12.35 -7.34 10.7 -7 9 C-5.35 8.67 -3.7 8.34 -2 8 C-1.34 5.36 -0.68 2.72 0 0 Z " fill="#1D3989" transform="translate(1895,539)"/>
<path d="M0 0 C1.65 0 3.3 0 5 0 C4.67 2.97 4.34 5.94 4 9 C6.31 9 8.62 9 11 9 C11.33 9.66 11.66 10.32 12 11 C11.67 11.99 11.34 12.98 11 14 C8.36 14 5.72 14 3 14 C2.48996146 17.16513278 1.99384043 20.33230284 1.5 23.5 C1.28537109 24.8303125 1.28537109 24.8303125 1.06640625 26.1875 C0.24134389 31.53076099 -0.15157107 36.59396514 0 42 C0.78375 42.0825 1.5675 42.165 2.375 42.25 C5 43 5 43 6.375 44.9375 C7 47 7 47 6 49 C2.39022605 49.21233964 -0.44202761 49.19407735 -3.875 48 C-6.42491204 45.60008279 -6.62731508 43.90633782 -6.97265625 40.49609375 C-7.02826529 35.41978283 -5.98193292 30.47505449 -5.0625 25.5 C-4.86720703 24.39140625 -4.67191406 23.2828125 -4.47070312 22.140625 C-3.99079727 19.42506015 -3.50034209 16.71186051 -3 14 C-4.65 14 -6.3 14 -8 14 C-7.67 12.35 -7.34 10.7 -7 9 C-5.35 8.67 -3.7 8.34 -2 8 C-1.34 5.36 -0.68 2.72 0 0 Z " fill="#1D3989" transform="translate(1287,539)"/>
<path d="M0 0 C1.2065625 0.0309375 1.2065625 0.0309375 2.4375 0.0625 C0.99231695 13.16422527 -1.22051973 26.0946791 -3.5625 39.0625 C-5.5425 39.0625 -7.5225 39.0625 -9.5625 39.0625 C-8.73152921 33.6682063 -7.89524816 28.27477358 -7.05395508 22.88208008 C-6.76829921 21.04604612 -6.48411609 19.20978241 -6.20141602 17.37329102 C-5.79566897 14.73913286 -5.38469543 12.10583654 -4.97265625 9.47265625 C-4.84657486 8.64661392 -4.72049347 7.82057159 -4.59059143 6.96949768 C-3.50421507 0.08546866 -3.50421507 0.08546866 0 0 Z " fill="#1D3A89" transform="translate(1877.5625,547.9375)"/>
<path d="M0 0 C1.65 0 3.3 0 5 0 C6.62155641 3.24311283 5.41565119 6.57750849 4.8203125 10.03515625 C4.62198318 11.22594032 4.62198318 11.22594032 4.41964722 12.44078064 C4.13849629 14.11997795 3.85415769 15.79864416 3.56689453 17.47680664 C3.12641503 20.05422012 2.69720328 22.63332451 2.26953125 25.21289062 C1.99545879 26.84125826 1.72074108 28.46951745 1.4453125 30.09765625 C1.25148483 31.26168724 1.25148483 31.26168724 1.05374146 32.44923401 C0.11561118 37.88438882 0.11561118 37.88438882 -1 39 C-2.66617115 39.04063832 -4.33388095 39.042721 -6 39 C-4.55481695 25.89827473 -2.34198027 12.9678209 0 0 Z " fill="#1D3A89" transform="translate(921,548)"/>
<path d="M0 0 C1.2065625 0.0309375 1.2065625 0.0309375 2.4375 0.0625 C0.62495723 13.09738206 -1.32961876 26.09278556 -3.5625 39.0625 C-5.5425 39.0625 -7.5225 39.0625 -9.5625 39.0625 C-8.73152921 33.6682063 -7.89524816 28.27477358 -7.05395508 22.88208008 C-6.76829921 21.04604612 -6.48411609 19.20978241 -6.20141602 17.37329102 C-5.79566897 14.73913286 -5.38469543 12.10583654 -4.97265625 9.47265625 C-4.84657486 8.64661392 -4.72049347 7.82057159 -4.59059143 6.96949768 C-3.50421507 0.08546866 -3.50421507 0.08546866 0 0 Z " fill="#1D3989" transform="translate(1269.5625,547.9375)"/>
<path d="M0 0 C1.2065625 0.0309375 1.2065625 0.0309375 2.4375 0.0625 C1.84911801 4.90361765 0.36096884 9.02321195 -1.625 13.4375 C-1.90666016 14.07816406 -2.18832031 14.71882812 -2.47851562 15.37890625 C-3.16709421 16.94279659 -3.86394711 18.50303941 -4.5625 20.0625 C-6.2125 20.0625 -7.8625 20.0625 -9.5625 20.0625 C-8.58835436 16.91508923 -7.60734717 13.7698597 -6.625 10.625 C-6.20831055 9.27825195 -6.20831055 9.27825195 -5.78320312 7.90429688 C-5.51572266 7.05029297 -5.24824219 6.19628906 -4.97265625 5.31640625 C-4.60346069 4.13026733 -4.60346069 4.13026733 -4.22680664 2.92016602 C-3.22080906 0.10699601 -3.09865146 0.07557686 0 0 Z " fill="#1D3989" transform="translate(1001.5625,579.9375)"/>
<path d="M0 0 C1.98 0 3.96 0 6 0 C5.23405666 2.21003415 4.46202117 4.41795739 3.6875 6.625 C3.25824219 7.85476563 2.82898437 9.08453125 2.38671875 10.3515625 C1.11350007 13.70138291 -0.33657706 16.82925245 -2 20 C-3.32 20 -4.64 20 -6 20 C-4.63125844 13.04223041 -2.5466871 6.61396893 0 0 Z " fill="#1D3989" transform="translate(1344,580)"/>
<path d="M0 0 C0.6875 1.8125 0.6875 1.8125 1 4 C-0.4375 5.75 -0.4375 5.75 -2 7 C-4.475 6.01 -4.475 6.01 -7 5 C-6.625 2.5625 -6.625 2.5625 -6 0 C-3.50907189 -1.24546405 -2.58919267 -0.7767578 0 0 Z " fill="#1D3989" transform="translate(1274,536)"/>
<path d="M0 0 C0.6875 1.8125 0.6875 1.8125 1 4 C-0.4375 5.75 -0.4375 5.75 -2 7 C-4.475 6.01 -4.475 6.01 -7 5 C-6.625 2.5625 -6.625 2.5625 -6 0 C-3.50907189 -1.24546405 -2.58919267 -0.7767578 0 0 Z " fill="#1D3989" transform="translate(1882,536)"/>
<path d="M0 0 C2.125 0.375 2.125 0.375 4 1 C4.625 3.375 4.625 3.375 5 6 C4.34 6.66 3.68 7.32 3 8 C0.875 7.625 0.875 7.625 -1 7 C-1.625 4.625 -1.625 4.625 -2 2 C-1.34 1.34 -0.68 0.68 0 0 Z " fill="#1C3A88" transform="translate(924,535)"/>
</svg>
