<?xml version="1.0" encoding="UTF-8"?>
<svg version="1.1" xmlns="http://www.w3.org/2000/svg" width="498" height="723">
<path d="M0 0 C0.09155776 47.72993971 0.16203988 95.45987012 0.20426132 143.18988033 C0.20926414 148.82499198 0.21444143 154.46010345 0.21972656 160.09521484 C0.2207758 161.21706289 0.22182505 162.33891094 0.22290608 163.49475439 C0.24031076 181.65896497 0.27184881 199.82312491 0.30861118 217.98730545 C0.34601882 236.62577511 0.36823549 255.26421825 0.37635398 273.90272391 C0.3818421 285.40345204 0.39917525 296.90403703 0.43166587 308.4047211 C0.45281154 316.29143921 0.45919991 324.17808332 0.45400551 332.06482773 C0.45144383 336.61491347 0.45536762 341.16474908 0.4768219 345.71479034 C0.49633586 349.88383232 0.49723874 354.05245674 0.48359558 358.22151823 C0.48191023 359.72640526 0.48694344 361.2313187 0.49953273 362.736154 C0.6097173 376.72495917 -2.76725327 386.34805731 -12 397 C-20.57869186 405.36529157 -30.11605803 410.53172936 -42.2194826 410.64540654 C-43.34694394 410.63084234 -44.47440527 410.61627813 -45.6360321 410.60127258 C-46.86232938 410.60554471 -48.08862666 410.60981683 -49.35208446 410.61421841 C-52.72545282 410.62098783 -56.09734428 410.60552873 -59.47053277 410.58032811 C-63.11931497 410.55860837 -66.76805667 410.56605161 -70.41688538 410.56983948 C-76.7285038 410.57245325 -83.03986252 410.55684993 -89.35141563 410.52865028 C-98.476663 410.48790589 -107.60178559 410.47498192 -116.72711406 410.46871033 C-131.53453708 410.45778425 -146.34182189 410.42455597 -161.14916992 410.37719727 C-175.52774365 410.33125792 -189.90627975 410.29588746 -204.28491211 410.2746582 C-205.6157642 410.27268778 -205.6157642 410.27268778 -206.97350218 410.27067754 C-211.4247782 410.26415206 -215.87605449 410.25783359 -220.32733095 410.25161803 C-257.21831819 410.19983757 -294.1091483 410.11181839 -331 410 C-331.80325525 406.25264088 -332.59763099 402.50344904 -333.390625 398.75390625 C-333.72634521 397.18848083 -333.72634521 397.18848083 -334.06884766 395.59143066 C-345.20868692 342.71799942 -343.77074546 282.12231167 -317 234 C-316.42507813 232.9378125 -315.85015625 231.875625 -315.2578125 230.78125 C-303.53321494 209.81745344 -285.39097766 191.34332994 -267 176 C-266.08605469 175.20851563 -265.17210937 174.41703125 -264.23046875 173.6015625 C-256.85682824 167.23453052 -249.2242914 161.26815441 -241.45703125 155.390625 C-237.69132259 152.53839262 -233.9710217 149.63237053 -230.25830078 146.71166992 C-222.47792676 140.59923986 -214.56712814 134.74448073 -206.44287109 129.09814453 C-203.6616526 127.16324892 -200.88945718 125.2170018 -198.12963867 123.25170898 C-187.5113117 115.69225099 -176.73383363 108.39609289 -165.875 101.1875 C-164.14807386 100.03895706 -162.42118625 98.89035618 -160.69433594 97.74169922 C-141.93645917 85.27313459 -123.10663876 72.92932554 -104 61 C-103.20513184 60.5035498 -102.41026367 60.00709961 -101.59130859 59.49560547 C-77.26699794 44.3261776 -52.72677133 29.50364352 -28 15 C-27.39988098 14.64796509 -26.79976196 14.29593018 -26.18145752 13.93322754 C-22.51986747 11.78665784 -18.85448641 9.64676739 -15.18414307 7.51519775 C-13.47011528 6.51895691 -11.75822882 5.51903482 -10.04638672 4.51904297 C-8.5055542 3.62789795 -8.5055542 3.62789795 -6.93359375 2.71875 C-5.5731897 1.92887695 -5.5731897 1.92887695 -4.18530273 1.12304688 C-2 0 -2 0 0 0 Z " fill="#3A81F5" transform="translate(498,313)"/>
<path d="M0 0 C0.0701676 18.48942205 0.1230261 36.97881697 0.15543652 55.46834469 C0.17088709 64.05389298 0.19194189 72.63935842 0.22631836 81.22485352 C0.25627625 88.71039991 0.27558816 96.19588628 0.28226548 103.68149096 C0.28616695 107.64287377 0.29529793 111.60408488 0.31719017 115.56541252 C0.33765647 119.29921335 0.34381348 123.03277285 0.33932304 126.76662445 C0.34053302 128.77953175 0.35662181 130.79241318 0.3732605 132.80525208 C0.341754 142.09216825 -0.475425 150.31106066 -7.05371094 157.33300781 C-11.15457297 160.84538688 -15.90608009 163.29596136 -20.625 165.875 C-22.96914172 167.19112287 -25.31161863 168.50987446 -27.65234375 169.83203125 C-28.25534805 170.17102951 -28.85835236 170.51002777 -29.47962952 170.85929871 C-36.13798271 174.61390122 -42.66591262 178.57648935 -49.1875 182.5625 C-50.3666039 183.28200526 -51.54572172 184.00148772 -52.72485352 184.72094727 C-55.03899946 186.13370393 -57.35222734 187.54795104 -59.66503906 188.96289062 C-62.84288224 190.90402704 -66.0256677 192.8367048 -69.2109375 194.765625 C-80.45031303 201.57481411 -91.6140188 208.48911597 -102.70263672 215.54101562 C-105.7855022 217.49884815 -108.87477041 219.4464501 -111.96411133 221.39404297 C-115.13726712 223.39512032 -118.3080856 225.39988095 -121.47851562 227.40527344 C-123.21386154 228.50280244 -124.94955889 229.59977592 -126.68554688 230.69628906 C-138.40008029 238.09951043 -150.02589949 245.61066348 -161.52587891 253.34277344 C-164.29643291 255.19855798 -167.07534754 257.04139263 -169.85546875 258.8828125 C-181.0224724 266.28505176 -192.09830089 273.78074418 -202.99658203 281.57324219 C-205.04187878 283.02982447 -207.09558989 284.47371023 -209.15234375 285.9140625 C-232.71691037 302.42374611 -255.86189652 319.61381123 -278 338 C-278.57685547 338.47775879 -279.15371094 338.95551758 -279.74804688 339.44775391 C-286.74771807 345.25876387 -293.54639784 351.249743 -300.21484375 357.4375 C-302.71105295 359.7341525 -305.2490421 361.96670399 -307.8125 364.1875 C-311.23461321 367.2164081 -314.26198074 370.40414226 -317.203125 373.8984375 C-318.44694611 375.35316741 -319.73165792 376.77354673 -321.046875 378.1640625 C-351.18033547 410.1140791 -365.89237576 455.66420168 -367 499 C-367.03867187 500.0216626 -367.03867187 500.0216626 -367.078125 501.06396484 C-367.91928622 524.72688141 -364.99034305 548.50184295 -359.58544922 571.50683594 C-358.68769033 575.32998595 -357.84735977 579.16540417 -357 583 C-357.66 583 -358.32 583 -359 583 C-360.12231445 581.51318359 -360.12231445 581.51318359 -361.36328125 579.3984375 C-362.06505493 578.21556152 -362.06505493 578.21556152 -362.78100586 577.00878906 C-363.53909546 575.70506348 -363.53909546 575.70506348 -364.3125 574.375 C-364.84302979 573.47491211 -365.37355957 572.57482422 -365.92016602 571.64746094 C-367.04814509 569.73305412 -368.17330802 567.8169857 -369.29589844 565.89941406 C-370.92409515 563.12914699 -372.5712544 560.37132124 -374.2265625 557.6171875 C-402.86722775 509.84930368 -419.9791904 468.32263071 -419.70678711 412.26196289 C-419.68844878 408.3766827 -419.6954651 404.49285838 -419.72729492 400.60766602 C-420.06533499 359.29990269 -420.06533499 359.29990269 -413 339 C-412.60159912 337.74501709 -412.20319824 336.49003418 -411.79272461 335.19702148 C-410.82113029 332.25509531 -409.76297721 329.38090828 -408.625 326.5 C-408.2441626 325.51209473 -407.8633252 324.52418945 -407.47094727 323.50634766 C-404.15100131 315.05545104 -400.33589145 306.97067868 -396 299 C-395.38769531 297.83726562 -394.77539062 296.67453125 -394.14453125 295.4765625 C-386.81270993 282.02229245 -377.42385798 270.18657929 -367 259 C-365.6435724 257.43946234 -364.28936667 255.87699037 -362.9375 254.3125 C-359.90744779 250.90145891 -356.7351156 247.88051847 -353.25390625 244.9375 C-351.02855197 243.02454381 -348.87184666 241.04807313 -346.72241211 239.05053711 C-340.6799443 233.43864439 -334.44216088 228.15201991 -328 223 C-326.89272448 222.10088159 -325.78597865 221.20111057 -324.6796875 220.30078125 C-315.10903657 212.54189638 -305.28271326 205.14513472 -295.39990234 197.79003906 C-293.19499033 196.14543938 -290.99621138 194.49316369 -288.80078125 192.8359375 C-271.50792898 179.78424569 -253.82964529 167.30593475 -236 155 C-235.43518921 154.60986725 -234.87037842 154.2197345 -234.28845215 153.81777954 C-223.33656378 146.25636976 -212.32997698 138.77674743 -201.30029297 131.3293457 C-199.43260009 130.06755389 -197.56573804 128.80453141 -195.69970703 127.5402832 C-186.14456634 121.06677156 -176.576149 114.65313828 -166.75341797 108.59165955 C-159.2065348 103.9222901 -151.86066976 98.95566411 -144.5 94 C-136.47209979 88.59511454 -128.43884824 83.22896096 -120.203125 78.14453125 C-111.61809084 72.83486419 -103.27609319 67.18278521 -94.92929077 61.50836182 C-77.67491491 49.78218618 -60.31541439 38.22389952 -42.87368774 26.77856445 C-31.4356025 19.27276554 -20.02030862 11.74985103 -8.84448242 3.85595703 C-7.71296753 3.06680908 -7.71296753 3.06680908 -6.55859375 2.26171875 C-5.61971313 1.59595825 -5.61971313 1.59595825 -4.66186523 0.91674805 C-3 0 -3 0 0 0 Z " fill="#3A81F5" transform="translate(419,0)"/>
<path d="M0 0 C0.66 0 1.32 0 2 0 C2.09345559 19.45390294 2.16398521 38.9077603 2.20724869 58.3618412 C2.22787092 67.39478689 2.25598502 76.42759307 2.30175781 85.46044922 C2.34163598 93.33380902 2.36743528 101.20706777 2.37635398 109.08052576 C2.38156709 113.24922149 2.39381257 117.41762817 2.42292023 121.58623123 C2.45010495 125.51130743 2.45843892 129.43597599 2.45243073 133.36113739 C2.45352961 134.80026592 2.46146563 136.23940833 2.4768219 137.67845535 C2.49679338 139.64683369 2.48953833 141.61543161 2.48101807 143.58389282 C2.48470524 144.68451365 2.48839241 145.78513447 2.49219131 146.91910744 C1.6957015 151.90476945 -0.71437706 155.03906096 -4.70483398 158.02172852 C-5.72907471 158.61397217 -6.75331543 159.20621582 -7.80859375 159.81640625 C-8.374608 160.14935196 -8.94062225 160.48229767 -9.52378845 160.82533264 C-10.72917282 161.53320912 -11.93787007 162.23547065 -13.14959717 162.93243408 C-15.59231554 164.34172877 -18.0115328 165.78902899 -20.43264771 167.23501587 C-22.31825809 168.35958554 -24.20735267 169.4780656 -26.09765625 170.59472656 C-56.26927946 188.41811061 -86.12198861 206.72386092 -115.65234375 225.59375 C-119.00853559 227.73689672 -122.37414916 229.86298234 -125.75390625 231.96875 C-138.99126337 240.2494227 -151.93462406 248.95280454 -164.875 257.6875 C-165.7981601 258.31061066 -166.72132019 258.93372131 -167.67245483 259.57571411 C-202.41330835 283.04015098 -236.81640566 306.91872784 -269.23095703 333.55126953 C-270.83366232 334.86378032 -272.44561218 336.16498249 -274.05859375 337.46484375 C-279.61299297 341.94775603 -284.95599121 346.60164662 -290.19921875 351.4453125 C-292.38169394 353.43602209 -294.58687942 355.38033593 -296.8203125 357.3125 C-336.49067633 391.9581688 -358.90276176 438.11715094 -362.72265625 490.69921875 C-364.56000726 522.03984824 -360.66251027 552.63526514 -353 583 C-356.16624412 580.05904465 -358.37950552 577.05333082 -360.6171875 573.36328125 C-361.64114624 571.67960449 -361.64114624 571.67960449 -362.68579102 569.96191406 C-363.41605005 568.74575642 -364.14577371 567.52927717 -364.875 566.3125 C-365.24760956 565.69451538 -365.62021912 565.07653076 -366.00411987 564.43981934 C-376.33822226 547.29726661 -386.44171277 529.95891304 -395.08789062 511.89355469 C-396.05720655 509.88123822 -397.05134497 507.8822776 -398.046875 505.8828125 C-423.51298226 454.1512402 -425.34296681 388.30162843 -407.71875 333.89453125 C-394.2796361 294.56769027 -370.2727733 259.59528187 -337.42578125 233.92578125 C-334.90564474 231.92509316 -332.55229259 229.8064161 -330.1875 227.625 C-324.68671627 222.62507256 -318.86391009 218.08133618 -312.98632812 213.54052734 C-310.8945743 211.91823548 -308.81374211 210.28266452 -306.734375 208.64453125 C-297.82414722 201.64076892 -288.78071537 194.87352562 -279.5625 188.28125 C-275.65768616 185.48537641 -271.79642121 182.63467467 -267.94262695 179.76904297 C-260.06190786 173.91165344 -252.08209487 168.24284154 -243.95385742 162.73413086 C-239.69997545 159.85087181 -235.47837942 156.93405421 -231.30078125 153.94140625 C-218.7741671 144.97204561 -205.88431903 136.53086328 -193.0476532 128.01498413 C-189.03126105 125.3504853 -185.01922791 122.67960447 -181.01097107 120.00288391 C-174.80356506 115.85791881 -168.57895043 111.74290591 -162.3125 107.6875 C-160.80855643 106.71229713 -159.30465268 105.73703286 -157.80078125 104.76171875 C-156.94363525 104.20597168 -156.08648926 103.65022461 -155.20336914 103.07763672 C-154.14625732 102.3920166 -153.08914551 101.70639648 -152 101 C-151.31445038 100.55537415 -150.62890076 100.11074829 -149.9225769 99.65264893 C-137.06572023 91.31161835 -124.23624613 82.92993228 -111.4375 74.5 C-110.50035156 73.88294189 -109.56320312 73.26588379 -108.59765625 72.63012695 C-93.61915889 62.7621622 -78.72358816 52.77687416 -63.87136841 42.72009277 C-47.51917692 31.65044974 -31.05469116 20.75682962 -14.54492188 9.92382812 C-13.6423465 9.3311615 -12.73977112 8.73849487 -11.80984497 8.12786865 C-10.11536589 7.01556643 -8.42014911 5.90438698 -6.72409058 4.79449463 C-5.60842209 4.06235748 -5.60842209 4.06235748 -4.47021484 3.31542969 C-3.82047699 2.88993835 -3.17073914 2.46444702 -2.50131226 2.02606201 C-1.01970946 1.0813102 -1.01970946 1.0813102 0 0 Z " fill="#3A81F5" transform="translate(496,125)"/>
</svg>
